<?xml version="1.0" standalone="no"?>
<!DOCTYPE svg PUBLIC "-//W3C//DTD SVG 1.1//EN" "http://www.w3.org/Graphics/SVG/1.1/DTD/svg11.dtd" >
<svg xmlns="http://www.w3.org/2000/svg" xmlns:xlink="http://www.w3.org/1999/xlink" version="1.1">
<metadata></metadata>
<defs>
<font id="boonmedium" horiz-adv-x="0" >
<font-face units-per-em="1200" ascent="960" descent="-240" />
<missing-glyph horiz-adv-x="330" />
<glyph unicode="&#xeab;&#xe99;" horiz-adv-x="1120" d="M545 52q77 8 77 81v294q0 54 -9.5 76.5t-32.5 22.5q-35 0 -65 -48q-5 -21 -27.5 -63.5t-22.5 -74.5v-199q0 -67 -46.5 -111t-133.5 -44q-89 0 -137.5 44t-48.5 111v149q0 56 61 121h-6q-46 0 -76.5 27.5t-30.5 71.5t30.5 71.5t76.5 27.5t76.5 -27.5t30.5 -71.5 q0 -46 -29.5 -110.5t-29.5 -109.5v-152q0 -80 83 -80q88 0 88 80v182q0 45 38 91q-46 0 -76.5 27.5t-30.5 71.5t30.5 71.5t76.5 27.5q36 0 63 -16.5t38 -45.5q51 62 105 62q108 0 108 -168v-231q57 -145 142 -145q71 0 71 112v423h107v-416q0 -85 -37.5 -141.5t-114.5 -56.5 q-107 0 -173 112q-14 -55 -60 -82t-93 -30zM411 464q20 0 32.5 13t12.5 33t-12.5 33t-32.5 13t-32.5 -13t-12.5 -33t12.5 -33t32.5 -13zM154 464q20 0 32.5 13t12.5 33t-12.5 33t-32.5 13t-32.5 -13t-12.5 -33t12.5 -33t32.5 -13z" />
<glyph unicode="&#xeab;&#xea1;" horiz-adv-x="1120" d="M640 136q-20 0 -32.5 -13t-12.5 -33t12.5 -33t32.5 -13t32.5 13t12.5 33t-12.5 33t-32.5 13zM411 464q20 0 32.5 13t12.5 33t-12.5 33t-32.5 13t-32.5 -13t-12.5 -33t12.5 -33t32.5 -13zM154 464q20 0 32.5 13t12.5 33t-12.5 33t-32.5 13t-32.5 -13t-12.5 -33t12.5 -33 t32.5 -13zM154 411q-46 0 -76.5 27.5t-30.5 71.5t30.5 71.5t76.5 27.5t76.5 -27.5t30.5 -71.5q0 -46 -29.5 -110.5t-29.5 -109.5v-152q0 -80 83 -80q88 0 88 80v182q0 45 38 91q-46 0 -76.5 27.5t-30.5 71.5t30.5 71.5t76.5 27.5q36 0 63 -16.5t38 -45.5q51 62 105 62 q108 0 108 -168v-231q0 -21 7 -47q7 -6 38 -38t54.5 -46t51.5 -14q33 0 47.5 27.5t14.5 91.5v416h107v-416q0 -87 -34.5 -142.5t-110.5 -55.5q-35 0 -66.5 15.5t-49 33t-38.5 44.5q-4 -40 -33.5 -64t-72.5 -24q-46 0 -76.5 27.5t-30.5 71.5q0 43 29 70t73 29q-13 26 -13 51 v187q0 54 -9.5 76.5t-32.5 22.5q-35 0 -65 -48q-5 -21 -27.5 -63.5t-22.5 -74.5v-199q0 -67 -46.5 -111t-133.5 -44q-89 0 -137.5 44t-48.5 111v149q0 56 61 121h-6z" />
<glyph unicode="&#x2e;&#x200d;&#x2e;&#x200d;&#x2e;" horiz-adv-x="870" d="M705 144q35 0 57.5 -20t22.5 -54t-22.5 -54t-57.5 -20t-57.5 20t-22.5 54t22.5 54t57.5 20zM435 144q35 0 57.5 -20t22.5 -54t-22.5 -54t-57.5 -20t-57.5 20t-22.5 54t22.5 54t57.5 20zM165 144q35 0 57.5 -20t22.5 -54t-22.5 -54t-57.5 -20t-57.5 20t-22.5 54t22.5 54 t57.5 20z" />
<glyph unicode="&#xe4f;&#x200d;&#x2e;&#x200d;&#x2e;" horiz-adv-x="660" d="M380 890h87l-15 -260h-58zM193 890h87l-14 -260h-58zM330 346q-20 0 -32.5 -13t-12.5 -33t12.5 -33t32.5 -13t32.5 13t12.5 33t-12.5 33t-32.5 13zM330 399q46 0 76.5 -27.5t30.5 -71.5t-30.5 -71.5t-76.5 -27.5t-76.5 27.5t-30.5 71.5t30.5 71.5t76.5 27.5zM330 52 q-118 0 -189 71t-71 177t71 177t189 71t189 -71t71 -177t-71 -177t-189 -71zM330 111q84 0 135.5 51t51.5 138t-51.5 138t-135.5 51t-135.5 -51t-51.5 -138t51.5 -138t135.5 -51z" />
<glyph unicode="&#xe24;&#x200d;&#xe45;" horiz-adv-x="950" d="M196 136q-20 0 -32.5 -13t-12.5 -33t12.5 -33t32.5 -13t32.5 13t12.5 33t-12.5 33t-32.5 13zM528 537q52 76 152 76q88 0 139 -50.5t51 -125.5v-647h-106v647q0 50 -24.5 73.5t-62.5 23.5q-77 0 -100 -98q3 -18 3 -37v-609h-107v609q0 69 -42.5 105t-115.5 36 q-116 0 -150 -100l143 -30l-11 -44q-1 0 -6.5 1t-13 1.5t-12.5 0.5q-57 0 -57 -65v-64q0 -29 -11 -51q46 0 76 -27.5t30 -71.5t-30.5 -71.5t-76.5 -27.5t-76.5 27.5t-30.5 71.5q0 23 6 60.5t6 59.5v84q0 76 69 98l-120 24q12 85 81 144t184 59q139 0 213 -82z" />
<glyph unicode="&#xe26;&#x200d;&#xe45;" horiz-adv-x="960" d="M147 136q-20 0 -32.5 -13t-12.5 -33t12.5 -33t32.5 -13t32.5 13t12.5 33t-12.5 33t-32.5 13zM538 537q52 76 152 76q88 0 139 -50.5t51 -125.5v-647h-106v647q0 50 -24.5 73.5t-62.5 23.5q-77 0 -100 -98q3 -18 3 -37v-609h-107v609q0 69 -42.5 105t-115.5 36 q-116 0 -150 -99l163 -31l-11 -44q-1 0 -6.5 1t-13 1.5t-12.5 0.5q-57 0 -57 -65v-94q0 -22 8 -59.5t8 -60.5q0 -44 -30.5 -71.5t-76.5 -27.5t-76.5 27.5t-30.5 71.5q0 43 29 70t74 29q-12 24 -12 51v54q0 74 68 98l-139 24q12 85 81 144t184 59q139 0 213 -82z" />
<glyph unicode="[FontUni]" horiz-adv-x="840" d="M0 40v760q0 16 12 28t28 12h760q16 0 28 -12t12 -28v-760q0 -16 -12 -28t-28 -12h-128v420q0 106 -73 179t-179 73t-179 -73t-73 -179t73 -179t179 -73q25 0 52 5v-173h-432q-16 0 -28 12t-12 28zM315 420q0 44 30.5 74.5t74.5 30.5t74.5 -30.5t30.5 -74.5t-30.5 -74.5 t-74.5 -30.5t-74.5 30.5t-30.5 74.5z" />
<glyph />
<glyph />
<glyph unicode="&#x9;" horiz-adv-x="330" />
<glyph unicode=" "  horiz-adv-x="330" />
<glyph unicode="&#x09;" horiz-adv-x="330" />
<glyph unicode="&#xa0;" horiz-adv-x="330" />
<glyph unicode="!" horiz-adv-x="330" d="M96 810h138l-29 -540h-80zM165 144q35 0 57.5 -20t22.5 -54t-22.5 -54t-57.5 -20t-57.5 20t-22.5 54t22.5 54t57.5 20z" />
<glyph unicode="&#x22;" horiz-adv-x="540" d="M325 900h110l-18 -360h-73zM105 900h110l-18 -360h-73z" />
<glyph unicode="#" horiz-adv-x="810" d="M50 206v78h136l58 212h-134v78h155l55 206h93l-55 -206h194l55 206h93l-55 -206h115v-78h-136l-58 -212h134v-78h-155l-55 -206h-93l55 206h-194l-55 -206h-93l55 206h-115zM337 496l-58 -212h194l58 212h-194z" />
<glyph unicode="$" horiz-adv-x="660" d="M60 185l117 7q8 -51 49.5 -85.5t104.5 -34.5q72 0 112 33t40 98q0 88 -90 120q-53 17 -174 65q-59 25 -100 72.5t-41 120.5q0 82 56.5 141.5t157.5 69.5v108h86v-109q65 -9 112 -44t67 -72t26 -75l-117 -9q-8 51 -43.5 84t-91.5 33q-59 0 -97.5 -32.5t-38.5 -94.5 q0 -31 16.5 -55t34 -34.5t42.5 -20.5q120 -48 164 -62q64 -21 106 -72t42 -134t-57.5 -143.5t-164.5 -71.5v-108h-86v108q-106 11 -164.5 71.5t-67.5 125.5z" />
<glyph unicode="%" horiz-adv-x="780" d="M476 186v18q0 36 6 67t20 62t43 49t70 18t70 -18t43 -49t20 -62t6 -67v-18q0 -36 -6 -67t-20 -62t-43 -49t-70 -18t-70 18t-43 49t-20 62t-6 67zM615 42q30 0 48.5 37t18.5 107v18q0 70 -18.5 107t-48.5 37t-48.5 -37t-18.5 -107v-18q0 -70 18.5 -107t48.5 -37zM26 576 v18q0 36 6 67t20 62t43 49t70 18t70 -18t43 -49t20 -62t6 -67v-18q0 -36 -6 -67t-20 -62t-43 -49t-70 -18t-70 18t-43 49t-20 62t-6 67zM165 432q30 0 48.5 37t18.5 107v18q0 70 -18.5 107t-48.5 37t-48.5 -37t-18.5 -107v-18q0 -70 18.5 -107t48.5 -37zM75 0v6l556 774h74 v-6l-556 -774h-74z" />
<glyph unicode="&#x26;" horiz-adv-x="810" d="M648 153l142 -147v-6h-133q-31 33 -76 81q-115 -100 -268 -100q-120 0 -184 54t-64 136q0 40 16.5 77.5t47.5 70t62 56.5t73 51q-82 108 -82 196q0 83 50 130t131 47q85 0 130 -45.5t45 -106.5q0 -132 -142 -232q21 -22 51 -53.5t71 -74t66 -68.5q47 79 58 191l100 -14 q-13 -135 -94 -243zM523 143q-175 188 -205 221q-136 -97 -136 -193q0 -50 34 -76.5t97 -26.5q125 0 210 75zM363 722q-40 0 -59 -29t-19 -74q0 -63 58 -141q95 75 95 169q0 35 -20.5 55t-54.5 20z" />
<glyph unicode="'" horiz-adv-x="330" d="M110 900h110l-18 -360h-73z" />
<glyph unicode="(" horiz-adv-x="390" d="M65 390q0 308 184 521l72 -29q-152 -185 -152 -492t152 -492l-72 -29q-184 213 -184 521z" />
<glyph unicode=")" horiz-adv-x="390" d="M325 390q0 -308 -184 -521l-72 29q152 185 152 492t-152 492l72 29q184 -213 184 -521z" />
<glyph unicode="*" horiz-adv-x="570" d="M46 690l30 95l180 -80l-21 195h100l-21 -195l179 80l31 -95l-192 -40l132 -146l-81 -58l-98 170l-99 -170l-80 58l131 146z" />
<glyph unicode="+" horiz-adv-x="600" d="M90 320v80h156v160h107v-160h157v-80h-157v-160h-107v160h-156z" />
<glyph unicode="," horiz-adv-x="330" d="M85 68q0 34 22 56t58 22q48 0 71.5 -33t23.5 -81q0 -76 -40.5 -135t-99.5 -97l-35 47q83 53 97 151q-12 -2 -20 -2q-33 0 -55 20t-22 52z" />
<glyph unicode="-" horiz-adv-x="600" d="M90 403h420v-86h-420v86z" />
<glyph unicode="." horiz-adv-x="330" d="M165 144q35 0 57.5 -20t22.5 -54t-22.5 -54t-57.5 -20t-57.5 20t-22.5 54t22.5 54t57.5 20z" />
<glyph unicode="/" horiz-adv-x="510" d="M40 0v6l328 774h102v-6l-327 -774h-103z" />
<glyph unicode="0" horiz-adv-x="660" d="M60 373v34q0 57 6.5 108t25 104.5t47.5 92t78 63t113 24.5t113 -24.5t78 -63t47.5 -92t25 -104.5t6.5 -108v-34q0 -57 -6.5 -108t-25 -104.5t-47.5 -92t-78 -63t-113 -24.5t-113 24.5t-78 63t-47.5 92t-25 104.5t-6.5 108zM330 68q70 0 111 81t41 224v34q0 143 -41 224 t-111 81t-111 -81t-41 -224v-34q0 -143 41 -224t111 -81z" />
<glyph unicode="1" horiz-adv-x="660" d="M95 630l263 156l83 -9v-684h149v-93h-455v93h190v563l-180 -111z" />
<glyph unicode="2" horiz-adv-x="660" d="M70 44q0 51 17 98t40 80.5t62 69t66.5 55.5t69.5 48q71 47 107 87t36 95q0 56 -31 95.5t-105 39.5q-52 0 -88.5 -34t-45.5 -79l-121 11q6 29 23 59.5t46 61t77 49.5t107 19q62 0 109.5 -17t74 -41.5t43 -57t21.5 -57.5t5 -49q0 -45 -17 -85.5t-49 -73.5t-57.5 -53.5 t-61.5 -44.5q-90 -60 -138 -109.5t-59 -117.5h389v-93h-514q-6 19 -6 44z" />
<glyph unicode="3" horiz-adv-x="660" d="M40 131l116 22q31 -86 147 -86q47 0 80.5 13.5t50 36.5t24 47t7.5 51q0 57 -36 94.5t-117 37.5h-105v86h93q58 0 99.5 39.5t41.5 104.5q0 56 -31 95.5t-105 39.5q-52 0 -88.5 -34t-45.5 -79l-120 11q6 29 22.5 59.5t45.5 61t77 49.5t107 19q62 0 110 -17t74 -41.5t43 -57 t22 -58t5 -48.5q0 -112 -105 -175q70 -25 101.5 -76.5t31.5 -104.5q0 -27 -6 -55.5t-24.5 -63t-48 -60.5t-82.5 -43.5t-121 -17.5q-63 0 -114 16.5t-80 42.5t-45 48t-24 43z" />
<glyph unicode="4" horiz-adv-x="660" d="M391 197h-352l-9 56l377 533l98 -9v-494h125v-86h-125v-197h-114v197zM395 283v343l-238 -343h238z" />
<glyph unicode="5" horiz-adv-x="660" d="M60 131l117 22q31 -86 146 -86q47 0 80 15t50 41t24 53t7 58q0 71 -32.5 119.5t-111.5 48.5q-48 0 -90 -28t-67 -66l-1 2l-1 -2l-87 46l14 426h450v-86h-340l-8 -258q69 48 152 48q58 0 103.5 -18.5t70.5 -45.5t41.5 -62t22 -63t5.5 -54q0 -29 -6 -59.5t-24.5 -68 t-48 -65.5t-82.5 -47.5t-121 -19.5q-63 0 -114 16.5t-80 42.5t-45 48t-24 43z" />
<glyph unicode="6" horiz-adv-x="660" d="M80 297v139q0 46 4 87t20 94.5t42.5 91t77.5 64t119 26.5q50 0 91 -13t66 -30.5t44.5 -41.5t27.5 -41.5t13 -33.5l-115 -19q-29 92 -127 92q-146 0 -146 -276v-11q63 58 163 58q83 0 140.5 -39t81 -93.5t23.5 -117.5q0 -107 -69 -179.5t-193 -72.5q-131 0 -197 83.5 t-66 232.5zM198 269q9 -201 145 -201q64 0 104.5 41.5t40.5 123.5q0 76 -38 122t-110 46q-55 0 -93.5 -35t-48.5 -97z" />
<glyph unicode="7" horiz-adv-x="660" d="M65 687v93h511l9 -65q-91 -124 -163.5 -312.5t-72.5 -352.5v-50h-124v50q0 149 65 322t155 315h-380z" />
<glyph unicode="8" horiz-adv-x="660" d="M330 -19q-127 0 -203.5 63t-76.5 157q0 145 159 200q-124 55 -124 180q0 91 67.5 154.5t177.5 63.5t177.5 -63.5t67.5 -154.5q0 -125 -124 -180q159 -55 159 -200q0 -94 -76.5 -157t-203.5 -63zM330 66q74 0 117 35.5t43 99.5q0 109 -109 142q-22 8 -51 17 q-29 -9 -51 -17q-109 -33 -109 -142q0 -64 43 -99.5t117 -35.5zM330 713q-54 0 -91 -33.5t-37 -98.5q0 -53 26.5 -85.5t64.5 -43.5q5 -1 17.5 -5.5t19.5 -6.5q7 2 19.5 6.5t17.5 5.5q38 11 64.5 43.5t26.5 85.5q0 65 -37 98.5t-91 33.5z" />
<glyph unicode="9" horiz-adv-x="660" d="M580 483v-139q0 -46 -4 -87t-20 -94.5t-42.5 -91t-77.5 -64t-119 -26.5q-50 0 -91 13t-66 30.5t-44.5 41.5t-27.5 41.5t-13 33.5l115 19q29 -92 127 -92q146 0 146 276v11q-63 -58 -163 -58q-83 0 -140.5 39t-81 93.5t-23.5 117.5q0 107 69 179.5t193 72.5 q131 0 197 -83.5t66 -232.5zM462 511q-9 201 -145 201q-64 0 -104.5 -41.5t-40.5 -123.5q0 -76 38 -122t110 -46q55 0 93.5 35t48.5 97z" />
<glyph unicode=":" horiz-adv-x="330" d="M165 564q35 0 57.5 -20t22.5 -54t-22.5 -54t-57.5 -20t-57.5 20t-22.5 54t22.5 54t57.5 20zM165 144q35 0 57.5 -20t22.5 -54t-22.5 -54t-57.5 -20t-57.5 20t-22.5 54t22.5 54t57.5 20z" />
<glyph unicode=";" horiz-adv-x="330" d="M85 68q0 34 22 56t58 22q48 0 71.5 -33t23.5 -81q0 -76 -40.5 -135t-99.5 -97l-35 47q83 53 97 151q-12 -2 -20 -2q-33 0 -55 20t-22 52zM165 564q35 0 57.5 -20t22.5 -54t-22.5 -54t-57.5 -20t-57.5 20t-22.5 54t22.5 54t57.5 20z" />
<glyph unicode="&#x3c;" horiz-adv-x="600" d="M90 328v32v32l398 240l22 -89l-313 -183l313 -183l-22 -89z" />
<glyph unicode="=" horiz-adv-x="600" d="M90 421v83h420v-83h-420zM90 216v83h420v-83h-420z" />
<glyph unicode="&#x3e;" horiz-adv-x="600" d="M510 392v-32v-32l-398 -240l-22 89l313 183l-313 183l22 89z" />
<glyph unicode="?" horiz-adv-x="570" d="M55 647q0 79 63 130.5t167 51.5q101 0 160.5 -52.5t59.5 -142.5q0 -45 -20.5 -84t-50 -66.5t-59 -52.5t-50 -54.5t-20.5 -60.5q0 -28 12 -54l-93 -11q-19 35 -19 72q0 43 18.5 78.5t44.5 61t52.5 49t45 54t18.5 65.5q0 59 -29.5 84.5t-73.5 25.5q-48 0 -77 -24t-29 -70 q0 -36 12 -60l-113 -29q-19 41 -19 89zM285 144q35 0 57.5 -20t22.5 -54t-22.5 -54t-57.5 -20t-57.5 20t-22.5 54t22.5 54t57.5 20z" />
<glyph unicode="@" horiz-adv-x="1020" d="M80 237q0 97 32.5 192.5t91 174t151 127.5t203.5 49q93 0 167 -31.5t120.5 -85t70.5 -122t24 -144.5q0 -84 -28.5 -165.5t-85.5 -138t-127 -56.5q-75 0 -92 70q-58 -75 -135 -75q-64 0 -107 31.5t-59.5 74t-16.5 92.5q0 53 18.5 109.5t53.5 107.5t93 83.5t129 32.5 q65 0 96.5 -38t31.5 -88q0 -49 -23 -141q-17 -89 -17 -142q0 -59 28 -59q60 0 117.5 93.5t57.5 208.5q0 142 -81.5 233t-234.5 91q-91 0 -170 -42t-131 -110.5t-81.5 -155t-29.5 -176.5q0 -76 21 -141t63.5 -116.5t112 -81t159.5 -29.5q45 0 97 17.5t80 33.5l36 -48 q-35 -22 -94 -42t-119 -20q-107 0 -190 36t-132.5 97t-74.5 135.5t-25 158.5zM472 97q98 0 137 210q22 99 22 130q0 61 -48 61q-81 0 -144 -83.5t-63 -184.5q0 -63 27 -98t69 -35z" />
<glyph unicode="A" horiz-adv-x="750" d="M735 0h-136l-59 167h-330l-59 -167h-136v8l310 772h100l310 -772v-8zM510 253l-135 385l-135 -385h270z" />
<glyph unicode="B" horiz-adv-x="745" d="M510 433q85 -23 132.5 -75.5t47.5 -131.5q0 -110 -88.5 -172.5t-231.5 -62.5q-118 0 -280 9v780q144 9 250 9q119 0 197 -52t78 -144q0 -107 -105 -160zM370 450q54 6 91 40t37 93q0 62 -45.5 91.5t-126.5 29.5q-13 0 -123 -5v-253q98 4 167 4zM203 81q74 -4 153 -4 q98 0 157 35.5t59 113.5q0 145 -216 145q-79 0 -153 -4v-286z" />
<glyph unicode="C" horiz-adv-x="755" d="M60 406q0 58 10 111.5t35.5 106t64.5 90.5t101 61.5t141 23.5q71 0 129 -21t93 -54t55 -67.5t26 -67.5l-123 -12q-10 50 -57 90.5t-123 40.5q-111 0 -168.5 -80.5t-57.5 -221.5v-32q0 -141 57.5 -221.5t168.5 -80.5q76 0 123 40.5t57 90.5l123 -12q-6 -33 -26 -67.5 t-55 -67.5t-93 -54t-129 -21q-79 0 -141 23.5t-101 61.5t-64.5 90.5t-35.5 106t-10 111.5v32z" />
<glyph unicode="D" horiz-adv-x="770" d="M210 80q54 -2 83 -2q297 0 297 298v28q0 298 -297 298q-29 0 -83 -2v-620zM90 780q110 9 203 9q113 0 196.5 -33t130 -89.5t68.5 -122t22 -140.5v-28q0 -75 -22 -140.5t-68.5 -122t-130 -89.5t-196.5 -33q-41 0 -92 2t-81 5l-30 2v780z" />
<glyph unicode="E" horiz-adv-x="675" d="M90 0v780h515v-93h-395v-259h359v-86h-359v-249h410v-93h-530z" />
<glyph unicode="F" horiz-adv-x="640" d="M90 0v780h505v-93h-383v-256h347v-92h-347v-339h-122z" />
<glyph unicode="G" horiz-adv-x="770" d="M419 302v86h291v-251q-31 -61 -106 -108.5t-192 -47.5q-79 0 -141 23.5t-101 61.5t-64.5 90.5t-35.5 106t-10 111.5v32q0 58 10 111.5t35.5 106t64.5 90.5t101 61.5t141 23.5q71 0 129 -21t93 -54t55 -67.5t26 -67.5l-122 -12q-10 50 -57 91t-124 41q-113 0 -171 -80 t-58 -223v-32q0 -143 58 -223t171 -80q131 0 188 80v151h-181z" />
<glyph unicode="H" horiz-adv-x="790" d="M90 0v780h120v-344h370v344h120v-780h-120v344h-370v-344h-120z" />
<glyph unicode="I" horiz-adv-x="320" d="M100 0v780h120v-780h-120z" />
<glyph unicode="J" horiz-adv-x="520" d="M20 138l121 9q12 -80 84 -80q37 0 60.5 23t23.5 74v616h121v-616q0 -77 -55 -130t-150 -53q-91 0 -143.5 47t-61.5 110z" />
<glyph unicode="K" horiz-adv-x="715" d="M90 0v780h116v-372l328 372l134 -9v-6l-301 -315l343 -444v-6h-141l-278 369l-85 -88v-281h-116z" />
<glyph unicode="L" horiz-adv-x="570" d="M90 0v780h122v-687h333v-93h-455z" />
<glyph unicode="M" horiz-adv-x="880" d="M790 0h-119v554l-202 -359h-58l-202 359v-554h-119v769l100 11l250 -462l250 462l100 -11v-769z" />
<glyph unicode="N" horiz-adv-x="790" d="M90 0v769l103 11l390 -587v587h117v-780h-103l-390 587v-587h-117z" />
<glyph unicode="O" horiz-adv-x="820" d="M60 372v36q0 58 10 111t35 105t64 90t100.5 61.5t140.5 23.5t140.5 -23.5t100.5 -61.5t64 -90t35 -105t10 -111v-36q0 -58 -10 -111t-35 -105t-64 -90t-100.5 -61.5t-140.5 -23.5t-140.5 23.5t-100.5 61.5t-64 90t-35 105t-10 111zM410 71q112 0 169.5 80t57.5 221v36 q0 141 -57.5 221t-169.5 80t-169.5 -80t-57.5 -221v-36q0 -141 57.5 -221t169.5 -80z" />
<glyph unicode="P" horiz-adv-x="710" d="M209 410q64 -4 127 -4q215 0 215 148q0 78 -59 113.5t-156 35.5q-63 0 -127 -4v-289zM209 323v-323h-119v329v451q162 9 260 9q143 0 231.5 -62.5t88.5 -172.5t-88.5 -172t-231.5 -62q-78 0 -141 3z" />
<glyph unicode="Q" horiz-adv-x="820" d="M60 372v36q0 58 10 111t35 105t64 90t100.5 61.5t140.5 23.5t140.5 -23.5t100.5 -61.5t64 -90t35 -105t10 -111v-36q0 -153 -66 -253l106 -83l-51 -68l-109 88q-88 -75 -230 -75q-79 0 -140.5 23.5t-100.5 61.5t-64 90t-35 105t-10 111zM385 263l47 62l171 -134 q34 71 34 181v36q0 141 -57.5 221t-169.5 80t-169.5 -80t-57.5 -221v-36q0 -141 57.5 -221t169.5 -80q90 0 146 53z" />
<glyph unicode="R" horiz-adv-x="730" d="M304 320q-66 2 -95 3v-323h-119v329v451q162 9 260 9q143 0 231.5 -62.5t88.5 -172.5q0 -93 -63.5 -152t-172.5 -76l266 -320v-6h-136zM209 410q64 -4 127 -4q215 0 215 148q0 78 -59 113.5t-156 35.5q-63 0 -127 -4v-289z" />
<glyph unicode="S" horiz-adv-x="710" d="M55 179l119 17q9 -50 56 -89t125 -39q89 0 136 35t47 97q0 89 -97 117q-112 32 -202 64q-67 25 -116.5 73.5t-49.5 124.5q0 96 78.5 158t203.5 62q121 0 193.5 -61.5t86.5 -132.5l-119 -17q-9 49 -52 86.5t-109 37.5q-75 0 -120 -35t-45 -93q0 -42 26.5 -65t74.5 -41 q52 -19 192 -62q72 -22 122 -73.5t50 -136.5q0 -98 -81.5 -161.5t-218.5 -63.5q-69 0 -126 19.5t-92 50t-55.5 63.5t-26.5 65z" />
<glyph unicode="T" horiz-adv-x="620" d="M30 691v89h560v-89h-220v-691h-120v691h-220z" />
<glyph unicode="U" horiz-adv-x="770" d="M80 240v540h122v-540q0 -82 50 -125.5t133 -43.5t133 43.5t50 125.5v540h122v-540q0 -112 -84 -185t-221 -73t-221 73t-84 185z" />
<glyph unicode="V" horiz-adv-x="750" d="M20 761v8l141 11l214 -632l214 632l141 -11v-8l-305 -761h-100z" />
<glyph unicode="W" horiz-adv-x="1060" d="M1035 761l-228 -761h-104l-173 590l-173 -590h-104l-228 761v8l131 11l158 -612l166 592h100l166 -592l158 612l131 -11v-8z" />
<glyph unicode="X" horiz-adv-x="740" d="M55 761v7l133 12l182 -290l182 290l133 -12v-7l-247 -346l297 -409v-6h-139l-226 319l-226 -319h-139v6l297 409z" />
<glyph unicode="Y" horiz-adv-x="670" d="M10 761v8l135 11l190 -368l190 368l135 -11v-8l-265 -466v-295h-120v295z" />
<glyph unicode="Z" horiz-adv-x="670" d="M35 69l429 618h-403v93h555l9 -69l-428 -618h438v-93h-591z" />
<glyph unicode="[" horiz-adv-x="435" d="M120 -120v1020h225v-69h-128v-882h126v-69h-223z" />
<glyph unicode="\" horiz-adv-x="510" d="M470 0h-103l-327 774v6h102l328 -774v-6z" />
<glyph unicode="]" horiz-adv-x="435" d="M315 900v-1020h-225v69h128v882h-126v69h223z" />
<glyph unicode="^" horiz-adv-x="630" d="M30 589l263 300h44l263 -300l-58 -40l-227 219l-227 -219z" />
<glyph unicode="_" horiz-adv-x="600" d="M0 0h600v-86h-600v86z" />
<glyph unicode="`" horiz-adv-x="390" d="M0 824l86 64l274 -299l-58 -40z" />
<glyph unicode="a" horiz-adv-x="625" d="M55 173q0 62 51 106t146 44q80 0 178 -10v106q0 60 -35.5 89t-94.5 29q-52 0 -86 -29.5t-41 -83.5l-113 9q11 77 72.5 131.5t167.5 54.5q109 0 174.5 -56t65.5 -144v-276q0 -43 13.5 -61t51.5 -22l-28 -74q-101 12 -124 89q-64 -89 -180 -89q-101 0 -159.5 50.5 t-58.5 136.5zM436 245q-88 12 -178 12q-39 0 -66 -22.5t-27 -63.5q0 -58 35 -87t87 -29q67 0 102.5 44.5t46.5 110.5v35z" />
<glyph unicode="b" horiz-adv-x="675" d="M620 311v-22q0 -55 -13.5 -106t-41.5 -96.5t-79 -73t-118 -27.5q-112 0 -178 106l-9 -92h-96v810h110v-292q68 96 173 96q67 0 118 -27.5t79 -73t41.5 -96.5t13.5 -106zM195 374v-148q17 -68 57 -112.5t103 -44.5q73 0 112.5 57t39.5 163v22q0 106 -39.5 163t-112.5 57 q-63 0 -103 -44.5t-57 -112.5z" />
<glyph unicode="c" horiz-adv-x="605" d="M55 287v26q0 44 7.5 85t27 82t50 71t79.5 49t112 19q57 0 103 -17t73 -43.5t42.5 -53.5t20.5 -53l-114 -10q-7 36 -40.5 65t-84.5 29q-76 0 -118 -59t-42 -164v-26q0 -105 42 -164t118 -59q51 0 84.5 29t40.5 65l114 -10q-5 -26 -20.5 -53t-42.5 -53.5t-73 -43.5 t-103 -17q-63 0 -112 19t-79.5 49t-50 71t-27 82t-7.5 85z" />
<glyph unicode="d" horiz-adv-x="680" d="M55 289v22q0 55 13.5 106t41.5 96.5t79 73t118 27.5q106 0 173 -99v295h110v-667q0 -43 13.5 -61t51.5 -22l-28 -74q-123 15 -130 124q-71 -124 -190 -124q-67 0 -118 27.5t-79 73t-41.5 96.5t-13.5 106zM480 374q-17 68 -57 112.5t-103 44.5q-73 0 -112.5 -57 t-39.5 -163v-22q0 -106 39.5 -163t112.5 -57q63 0 103 44.5t57 112.5v148z" />
<glyph unicode="e" horiz-adv-x="640" d="M55 286v28q0 56 13.5 106.5t43 97t85 74t130.5 27.5q123 0 190.5 -76t67.5 -183q0 -38 -8 -81h-411q2 -103 43.5 -160.5t117.5 -57.5q55 0 90.5 30t41.5 67l109 -10q-10 -60 -72 -113.5t-169 -53.5q-77 0 -132.5 27.5t-84.5 74t-42 96.5t-13 107zM167 351h312v10 q0 87 -41.5 132.5t-110.5 45.5q-70 0 -111.5 -49.5t-48.5 -138.5z" />
<glyph unicode="f" horiz-adv-x="400" d="M30 528v72h90v77q0 24 8 49t25.5 49t51 39t78.5 15q83 0 142 -46l-48 -61q-40 28 -86 28q-29 0 -45 -20t-16 -53v-77h150v-72h-147v-528h-113v528h-90z" />
<glyph unicode="g" horiz-adv-x="670" d="M55 315q0 42 8 82.5t27 80t47 69.5t72 48.5t98 18.5q110 0 178 -108l9 94h96v-626q0 -89 -66.5 -146t-175.5 -57q-98 0 -160.5 37t-77.5 78l105 29q8 -23 42.5 -44.5t90.5 -21.5q63 0 99.5 31.5t36.5 93.5v148q-68 -106 -177 -106q-54 0 -98 18.5t-72 48.5t-47 69.5 t-27 80t-8 82.5zM480 372q-17 68 -57 113.5t-103 45.5q-73 0 -112.5 -57t-39.5 -159t39.5 -159t112.5 -57q63 0 103 45.5t57 113.5v114z" />
<glyph unicode="h" horiz-adv-x="665" d="M85 0v810h110v-362q81 166 227 166q84 0 128.5 -57t44.5 -141v-416h-113v412q0 59 -25 85.5t-65 26.5q-69 0 -124.5 -69.5t-69.5 -156.5v-298h-113z" />
<glyph unicode="i" horiz-adv-x="300" d="M93 0v600h114v-600h-114zM150 854q35 0 57.5 -20t22.5 -54t-22.5 -54t-57.5 -20t-57.5 20t-22.5 54t22.5 54t57.5 20z" />
<glyph unicode="j" horiz-adv-x="310" d="M-5 -151q55 18 81.5 48.5t26.5 88.5v614h114v-621q0 -79 -52.5 -130t-133.5 -73zM160 854q35 0 57.5 -20t22.5 -54t-22.5 -54t-57.5 -20t-57.5 20t-22.5 54t22.5 54t57.5 20z" />
<glyph unicode="k" horiz-adv-x="605" d="M95 0v810h108v-481l243 271l124 -7v-5l-237 -244l267 -339v-5h-130l-208 271l-59 -60v-211h-108z" />
<glyph unicode="l" horiz-adv-x="315" d="M90 128v682h113v-672q0 -39 24.5 -56t77.5 -22l-22 -74q-193 14 -193 142z" />
<glyph unicode="m" horiz-adv-x="945" d="M75 594l103 9l14 -124q61 131 180 131q64 0 104 -35.5t54 -94.5q60 130 180 130q81 0 123 -55.5t42 -138.5v-416h-113v412q0 109 -82 109q-55 0 -92.5 -58t-50.5 -141v-322h-114v412q0 109 -81 109q-55 0 -93 -59t-51 -141v-321h-113v420z" />
<glyph unicode="n" horiz-adv-x="655" d="M85 0v420l-10 174l103 9l16 -150q77 161 219 161q83 0 127.5 -57t44.5 -141v-416h-113v412q0 59 -25 85.5t-64 26.5q-67 0 -119.5 -69t-65.5 -156v-299h-113z" />
<glyph unicode="o" horiz-adv-x="660" d="M55 286v28q0 56 13 106.5t42.5 97t86 74t133.5 27.5t133.5 -27.5t86 -74t42.5 -97t13 -106.5v-28q0 -56 -13 -106.5t-42.5 -97t-86 -74t-133.5 -27.5t-133.5 27.5t-86 74t-42.5 97t-13 106.5zM330 63q78 0 120 58.5t42 164.5v28q0 106 -42 164.5t-120 58.5t-120 -58.5 t-42 -164.5v-28q0 -106 42 -164.5t120 -58.5z" />
<glyph unicode="p" horiz-adv-x="675" d="M620 311v-22q0 -55 -13.5 -106t-41.5 -96.5t-79 -73t-118 -27.5q-104 0 -170 94v-290h-113v630l-10 174l103 9l10 -95q69 106 180 106q67 0 118 -27.5t79 -73t41.5 -96.5t13.5 -106zM198 215q17 -64 57 -105t100 -41q73 0 112.5 57t39.5 163v22q0 106 -39.5 163 t-112.5 57q-60 0 -100 -41t-57 -105v-170z" />
<glyph unicode="q" horiz-adv-x="675" d="M55 289v22q0 55 13.5 106t41.5 96.5t79 73t118 27.5q112 0 178 -106l9 92h96v-810h-110v292q-68 -96 -173 -96q-67 0 -118 27.5t-79 73t-41.5 96.5t-13.5 106zM480 226v148q-17 68 -57 112.5t-103 44.5q-73 0 -112.5 -57t-39.5 -163v-22q0 -106 39.5 -163t112.5 -57 q63 0 103 44.5t57 112.5z" />
<glyph unicode="r" horiz-adv-x="435" d="M70 592l95 11l34 -138q48 149 165 149q38 0 71 -15l-43 -94q-22 12 -46 12q-52 0 -85 -58t-43 -141v-318h-113v435z" />
<glyph unicode="s" horiz-adv-x="570" d="M45 139l110 14q6 -37 41 -64.5t93 -27.5q61 0 94.5 26t33.5 69q0 63 -72 85q-111 32 -152 47q-132 49 -132 156q0 76 61.5 125.5t162.5 49.5q99 0 156.5 -48.5t67.5 -105.5l-110 -15q-6 37 -35 63t-79 26q-53 0 -84.5 -24.5t-31.5 -66.5q0 -53 73 -78q32 -10 145 -44 q138 -42 138 -166q0 -78 -65.5 -128.5t-174.5 -50.5q-107 0 -168 49.5t-72 108.5z" />
<glyph unicode="t" horiz-adv-x="415" d="M30 528v72h94v126l107 9v-135h149v-72h-147v-384q0 -44 13 -60.5t42 -16.5q58 0 95 25l27 -74q-58 -32 -136 -32q-154 0 -154 142v400h-90z" />
<glyph unicode="u" horiz-adv-x="620" d="M65 187v413h113v-413q0 -62 36.5 -93t95.5 -31t95.5 31t36.5 93v413h113v-413q0 -88 -67 -147t-178 -59t-178 59t-67 147z" />
<glyph unicode="v" horiz-adv-x="600" d="M15 585v6l123 9l162 -467l162 467l123 -9v-6l-239 -585h-92z" />
<glyph unicode="w" horiz-adv-x="830" d="M810 585l-175 -585h-97l-123 428l-123 -428h-97l-175 585v6l121 9l111 -441l118 426h90l118 -426l111 441l121 -9v-6z" />
<glyph unicode="x" horiz-adv-x="600" d="M50 585v6l120 9l130 -206l130 206l120 -9v-6l-188 -262l228 -318v-5h-127l-163 234l-163 -234h-127v5l228 318z" />
<glyph unicode="y" horiz-adv-x="600" d="M15 585v6l123 9l162 -468l162 468l123 -9v-6l-245 -609q-1 -2 -12.5 -27.5t-13.5 -30t-13.5 -27t-16 -28.5t-16.5 -24t-20 -23.5t-21.5 -17t-25.5 -15.5t-28.5 -8t-33.5 -4q-61 0 -114 42l55 68q35 -31 55 -31q31 0 55.5 35t57.5 112l4 9z" />
<glyph unicode="z" horiz-adv-x="530" d="M30 57l315 464h-293v79h435l7 -57l-315 -464h321v-79h-463z" />
<glyph unicode="{" horiz-adv-x="390" d="M45 370v20v20q40 8 68.5 39t28.5 89q0 17 -17 90.5t-17 106.5q0 72 41.5 118.5t115.5 46.5h50v-59h-37q-70 0 -70 -113q0 -25 15 -99.5t15 -100.5q0 -103 -86 -138q86 -35 86 -138q0 -26 -15 -100.5t-15 -99.5q0 -113 70 -113h37v-59h-50q-74 0 -115.5 46.5t-41.5 118.5 q0 33 17 106.5t17 90.5q0 58 -28.5 89t-68.5 39z" />
<glyph unicode="|" horiz-adv-x="360" d="M130 -120v1020h100v-1020h-100z" />
<glyph unicode="}" horiz-adv-x="390" d="M345 410v-20v-20q-40 -8 -68.5 -39t-28.5 -89q0 -17 17 -90.5t17 -106.5q0 -72 -41.5 -118.5t-115.5 -46.5h-50v59h37q70 0 70 113q0 25 -15 99.5t-15 100.5q0 103 86 138q-86 35 -86 138q0 26 15 100.5t15 99.5q0 113 -70 113h-37v59h50q74 0 115.5 -46.5t41.5 -118.5 q0 -33 -17 -106.5t-17 -90.5q0 -58 28.5 -89t68.5 -39z" />
<glyph unicode="~" horiz-adv-x="600" d="M45 324q12 35 23 58.5t29.5 51t45 41.5t59.5 14q28 0 56 -13.5t40 -24t33 -31.5q47 -47 71 -47q26 0 47 30.5t33 74.5l73 -22q-12 -34 -23.5 -58.5t-30 -51.5t-44.5 -41t-59 -14q-28 0 -56 13.5t-40 24t-33 31.5q-47 47 -71 47q-50 0 -80 -105z" />
<glyph unicode="&#xa1;" horiz-adv-x="330" d="M234 -210h-138l29 540h80zM165 456q-35 0 -57.5 20t-22.5 54t22.5 54t57.5 20t57.5 -20t22.5 -54t-22.5 -54t-57.5 -20z" />
<glyph unicode="&#xa2;" horiz-adv-x="605" d="M55 318v26q0 52 11.5 99.5t36.5 92.5t73 75t114 37v133h86v-134q87 -12 136 -61.5t58 -102.5l-114 -10q-7 36 -40.5 65t-84.5 29q-76 0 -118 -59t-42 -164v-26q0 -105 42 -164t118 -59q51 0 84.5 29t40.5 65l114 -10q-9 -53 -58 -102.5t-136 -61.5v-134h-86v133 q-66 7 -114 37t-73 75t-36.5 92.5t-11.5 99.5z" />
<glyph unicode="&#xa3;" horiz-adv-x="660" d="M75 357v66h98v130q0 18 1.5 35t7 49t19.5 57.5t35 50.5t58 39.5t85 14.5q55 0 96.5 -19t63.5 -49t31.5 -51.5t14.5 -42.5l-112 -13q-21 93 -94 93q-27 0 -46 -15t-28.5 -40.5t-13.5 -52t-4 -56.5v-130h218v-66h-218v-59q0 -140 -63 -216h381v-82h-519l-11 69 q51 40 74.5 91t23.5 138v59h-98z" />
<glyph unicode="&#xa4;" horiz-adv-x="720" d="M660 150l-61 -60l-99 99q-59 -37 -140 -37t-140 37l-99 -99l-61 60l98 98q-46 63 -46 142t46 142l-98 98l61 60l99 -99q59 37 140 37t140 -37l99 99l61 -60l-98 -98q46 -63 46 -142t-46 -142zM360 238q63 0 102 40.5t39 111.5t-39 111.5t-102 40.5t-102 -40.5t-39 -111.5 t39 -111.5t102 -40.5z" />
<glyph unicode="&#xa5;" horiz-adv-x="660" d="M100 312v66h130l-205 383v8l135 11l170 -368l170 368l135 -11v-8l-205 -383h130v-66h-165l-5 -10v-74h170v-66h-170v-162h-120v162h-170v66h170v74l-5 10h-165z" />
<glyph unicode="&#xa6;" horiz-adv-x="360" d="M130 450v450h100v-450h-100zM130 -120v450h100v-450h-100z" />
<glyph unicode="&#xa7;" horiz-adv-x="660" d="M102 615q0 91 64.5 152.5t174.5 61.5q56 0 102 -19.5t73 -50.5t42.5 -62.5t20.5 -62.5l-109 -9q-8 52 -41.5 88.5t-87.5 36.5q-59 0 -94 -35t-35 -100q0 -47 23.5 -72t61.5 -43q91 -39 154 -61q60 -21 102 -72t42 -131q0 -75 -60 -135q30 -47 30 -112q0 -93 -67.5 -155.5 t-186.5 -62.5q-61 0 -110 19.5t-78.5 51t-46 64t-21.5 64.5l110 9q8 -53 45 -91t101 -38q70 0 107 35.5t37 103.5q0 93 -85 124q-77 30 -160 66q-55 24 -96.5 72t-41.5 118q0 82 65 135q-35 48 -35 111zM468 169q17 29 17 67q0 93 -82 124q-100 38 -163 66q-19 9 -35 18 q-23 -33 -23 -75q0 -32 16 -57t32.5 -35.5t42.5 -22.5q118 -51 148 -62q29 -11 47 -23z" />
<glyph unicode="&#xa8;" horiz-adv-x="510" d="M60 780q0 31 21 49.5t53 18.5t53 -18.5t21 -49.5t-21 -49.5t-53 -18.5t-53 18.5t-21 49.5zM303 780q0 31 21 49.5t53 18.5t52.5 -18.5t20.5 -49.5t-20.5 -49.5t-52.5 -18.5t-53 18.5t-21 49.5z" />
<glyph unicode="&#xa9;" horiz-adv-x="1020" d="M337 411q0 37 9 69.5t28 62.5t56 47.5t87 17.5q69 0 108 -34t47 -73l-75 -7q-4 23 -25 41t-55 18q-50 0 -77 -37t-27 -105v-16q0 -68 27 -105t77 -37q34 0 55 18t25 41l75 -7q-8 -39 -47 -73t-108 -34q-50 0 -87 17.5t-56 47.5t-28 62.5t-9 69.5v16zM510 -9 q-191 0 -307 117t-116 297t116 297t307 117t307 -117t116 -297t-116 -297t-307 -117zM510 49q161 0 259 98t98 258t-98 258t-259 98t-259 -98t-98 -258t98 -258t259 -98z" />
<glyph unicode="&#xaa;" horiz-adv-x="313" d="M23 596q0 31 26 54t76 23q36 0 82 -4v49q0 53 -58 53q-48 0 -55 -51l-69 5q5 38 37 66.5t87 28.5q56 0 90 -29t34 -73v-134q0 -20 6 -28t24 -10l-17 -44q-49 5 -63 40q-33 -40 -88 -40q-52 0 -82 25.5t-30 68.5zM210 628q-66 6 -81 6q-16 0 -28 -9.5t-12 -28.5 q0 -26 15.5 -39t38.5 -13q56 0 67 68v16z" />
<glyph unicode="&#xab;" horiz-adv-x="780" d="M75 338v44l300 263l40 -57l-220 -228l220 -228l-40 -57zM365 338v44l300 263l40 -57l-220 -228l220 -228l-40 -57z" />
<glyph unicode="&#xac;" horiz-adv-x="600" d="M90 317v86h420v-213h-107v127h-313z" />
<glyph unicode="&#xad;" horiz-adv-x="450" d="M75 403h300v-86h-300v86z" />
<glyph unicode="&#xae;" horiz-adv-x="870" d="M435 266q-154 0 -248 95t-94 239t94 239t248 95t248 -95t94 -239t-94 -239t-248 -95zM435 312q130 0 209 79t79 209t-79 209t-209 79t-209 -79t-79 -209t79 -209t209 -79zM406 555q-6 0 -17 0.5t-16 0.5v-156h-72v160v230q1 0 9 0.5t21.5 1t29.5 1t36 1t38 0.5 q74 0 119 -32t45 -87q0 -45 -31 -75.5t-84 -40.5l129 -155v-4h-82zM373 608q28 -2 54 -2q100 0 100 69q0 68 -100 68q-26 0 -54 -2v-133z" />
<glyph unicode="&#xaf;" horiz-adv-x="510" d="M60 744v72h390v-72h-390z" />
<glyph unicode="&#xb0;" horiz-adv-x="330" d="M165 657q-59 0 -94.5 36.5t-35.5 86.5t35.5 86.5t94.5 36.5t94.5 -36.5t35.5 -86.5t-35.5 -86.5t-94.5 -36.5zM165 710q28 0 46 18.5t18 51.5t-18 51.5t-46 18.5t-46 -18.5t-18 -51.5t18 -51.5t46 -18.5z" />
<glyph unicode="&#xb1;" horiz-adv-x="600" d="M90 183v80h420v-80h-420zM90 457v80h160v115h100v-115h160v-80h-160v-115h-100v115h-160z" />
<glyph unicode="&#xb2;" horiz-adv-x="330" d="M31 536q0 41 23 78t46 56t59 42q34 22 50.5 41t16.5 44q0 61 -60 61q-22 0 -38.5 -15.5t-20.5 -36.5l-73 8q7 35 40 65.5t91 30.5q40 0 68 -12.5t40.5 -32.5t17.5 -36.5t5 -31.5q0 -69 -93 -129q-41 -27 -63.5 -50t-29.5 -52h188v-56h-263q-4 11 -4 26z" />
<glyph unicode="&#xb3;" horiz-adv-x="330" d="M16 577l70 13q16 -38 66 -38q72 0 72 66q0 60 -68 60h-56v52h48q29 0 47.5 18t18.5 48q0 26 -14.5 44t-46.5 18q-22 0 -38.5 -15.5t-20.5 -36.5l-72 7q7 35 39.5 66t90.5 31q40 0 68 -13t40.5 -33t17.5 -36.5t5 -31.5q0 -53 -49 -85q33 -12 47.5 -37t14.5 -51 q0 -18 -5.5 -36.5t-19.5 -39.5t-44.5 -34t-74.5 -13q-60 0 -93.5 25.5t-42.5 51.5z" />
<glyph unicode="&#xb4;" horiz-adv-x="390" d="M390 824l-302 -275l-58 40l274 299z" />
<glyph unicode="&#xb5;" horiz-adv-x="665" d="M85 600h113v-298q14 -87 69.5 -156.5t124.5 -69.5q40 0 65 26.5t25 85.5v412h113v-416q0 -84 -44.5 -141t-128.5 -57q-146 0 -227 166v-362h-110v810z" />
<glyph unicode="&#xb6;" horiz-adv-x="725" d="M315 410v289q-151 -22 -151 -145t151 -144zM525 698q-8 0 -27.5 1.5t-41 2.5t-41.5 1v-913h-100v532q-123 11 -196.5 72t-73.5 160q0 110 88.5 172.5t231.5 62.5q98 0 260 -9v-990h-100v908z" />
<glyph unicode="&#xb7;" horiz-adv-x="330" d="M165 434q35 0 57.5 -20t22.5 -54t-22.5 -54t-57.5 -20t-57.5 20t-22.5 54t22.5 54t57.5 20z" />
<glyph unicode="&#xb8;" horiz-adv-x="330" d="M50 -278q147 36 147 103q0 38 -69 38q-17 0 -45 -5l-33 34l68 123h64l-56 -100h14q61 0 95.5 -23t34.5 -67q0 -25 -9 -46.5t-30 -38t-35 -26.5t-46 -20.5t-38.5 -12.5t-36.5 -9q-5 -1 -7 -2z" />
<glyph unicode="&#xb9;" horiz-adv-x="330" d="M44 825l132 78l50 -5v-332h73v-56h-235v56h92v259l-82 -51z" />
<glyph unicode="&#xba;" horiz-adv-x="330" d="M24 654v12q0 62 32.5 108t108.5 46t108.5 -46t32.5 -108v-12q0 -62 -32.5 -108t-108.5 -46t-108.5 46t-32.5 108zM165 549q34 0 53.5 27.5t19.5 77.5v12q0 50 -19.5 77.5t-53.5 27.5t-53.5 -27.5t-19.5 -77.5v-12q0 -50 19.5 -77.5t53.5 -27.5z" />
<glyph unicode="&#xbb;" horiz-adv-x="780" d="M705 382v-44l-300 -263l-40 57l220 228l-220 228l40 57zM415 382v-44l-300 -263l-40 57l220 228l-220 228l40 57z" />
<glyph unicode="&#xbc;" horiz-adv-x="780" d="M638 94h-172l-4 34l185 265l59 -5v-242h63v-52h-63v-94h-68v94zM640 146v150l-103 -150h103zM44 705l132 78l50 -5v-332h73v-56h-235v56h92v259l-82 -51zM75 0v6l556 774h74v-6l-556 -774h-74z" />
<glyph unicode="&#xbd;" horiz-adv-x="780" d="M481 26q0 41 23 78t46 56t59 42q34 22 50.5 41t16.5 44q0 61 -60 61q-22 0 -38.5 -15.5t-20.5 -36.5l-73 8q7 35 40 65.5t91 30.5q40 0 68 -12.5t40.5 -32.5t17.5 -36.5t5 -31.5q0 -69 -93 -129q-41 -27 -63.5 -50t-29.5 -52h188v-56h-263q-4 11 -4 26zM75 0v6l556 774 h74v-6l-556 -774h-74zM44 705l132 78l50 -5v-332h73v-56h-235v56h92v259l-82 -51z" />
<glyph unicode="&#xbe;" horiz-adv-x="780" d="M16 457l70 13q16 -38 66 -38q72 0 72 66q0 60 -68 60h-56v52h48q29 0 47.5 18t18.5 48q0 26 -14.5 44t-46.5 18q-22 0 -38.5 -15.5t-20.5 -36.5l-72 7q7 35 39.5 66t90.5 31q40 0 68 -13t40.5 -33t17.5 -36.5t5 -31.5q0 -53 -49 -85q33 -12 47.5 -37t14.5 -51 q0 -18 -5.5 -36.5t-19.5 -39.5t-44.5 -34t-74.5 -13q-60 0 -93.5 25.5t-42.5 51.5zM75 0v6l556 774h74v-6l-556 -774h-74zM638 94h-172l-4 34l185 265l59 -5v-242h63v-52h-63v-94h-68v94zM640 146v150l-103 -150h103z" />
<glyph unicode="&#xbf;" horiz-adv-x="570" d="M515 -47q0 -79 -63 -130.5t-167 -51.5q-101 0 -160.5 52.5t-59.5 142.5q0 45 20.5 84t50 66.5t59 52.5t50 54.5t20.5 60.5q0 28 -12 54l93 11q19 -35 19 -72q0 -43 -18.5 -78.5t-44.5 -61t-52.5 -49t-45 -54t-18.5 -65.5q0 -59 29.5 -84.5t73.5 -25.5q48 0 77 24t29 70 q0 36 -12 60l113 29q19 -41 19 -89zM285 456q-35 0 -57.5 20t-22.5 54t22.5 54t57.5 20t57.5 -20t22.5 -54t-22.5 -54t-57.5 -20z" />
<glyph unicode="&#xc0;" horiz-adv-x="750" d="M220 978l49 77l216 -165l-31 -45zM735 0h-136l-59 167h-330l-59 -167h-136v8l310 772h100l310 -772v-8zM510 253l-135 385l-135 -385h270z" />
<glyph unicode="&#xc1;" horiz-adv-x="750" d="M530 978l-234 -133l-31 45l216 165zM735 0h-136l-59 167h-330l-59 -167h-136v8l310 772h100l310 -772v-8zM510 253l-135 385l-135 -385h270z" />
<glyph unicode="&#xc2;" horiz-adv-x="750" d="M180 867l180 148h30l180 -148l-34 -37l-161 97l-161 -97zM735 0h-136l-59 167h-330l-59 -167h-136v8l310 772h100l310 -772v-8zM510 253l-135 385l-135 -385h270z" />
<glyph unicode="&#xc3;" horiz-adv-x="750" d="M180 888q10 26 19 43.5t23 37.5t33.5 30.5t43.5 10.5t47 -10.5t31 -17t27 -23.5l11 -11t11 -10.5t9 -7.5t9.5 -6t9.5 -2q28 0 58 81l58 -21q-9 -25 -18.5 -43.5t-23.5 -38t-33.5 -30t-43.5 -10.5t-47 10.5t-31 17t-27 23.5l-11 11t-11 10.5t-9 7.5t-9.5 6t-9.5 2 q-7 0 -14 -4.5t-12 -10.5t-10.5 -17l-8.5 -17t-7.5 -18t-5.5 -14zM735 0h-136l-59 167h-330l-59 -167h-136v8l310 772h100l310 -772v-8zM510 253l-135 385l-135 -385h270z" />
<glyph unicode="&#xc4;" horiz-adv-x="750" d="M180 930q0 31 21 49.5t53 18.5t53 -18.5t21 -49.5t-21 -49.5t-53 -18.5t-53 18.5t-21 49.5zM423 930q0 31 21 49.5t53 18.5t52.5 -18.5t20.5 -49.5t-20.5 -49.5t-52.5 -18.5t-53 18.5t-21 49.5zM735 0h-136l-59 167h-330l-59 -167h-136v8l310 772h100l310 -772v-8z M510 253l-135 385l-135 -385h270z" />
<glyph unicode="&#xc5;" horiz-adv-x="750" d="M375 803q-52 0 -86 31t-34 81t34 81t86 31t86 -31t34 -81t-34 -81t-86 -31zM375 855q27 0 44 16.5t17 43.5t-17 43.5t-44 16.5t-44 -16.5t-17 -43.5t17 -43.5t44 -16.5zM735 0h-136l-59 167h-330l-59 -167h-136v8l310 772h100l310 -772v-8zM510 253l-135 385l-135 -385 h270z" />
<glyph unicode="&#xc6;" horiz-adv-x="980" d="M20 0v8l386 772h49h52h403v-93h-335v-259h299v-86h-299v-249h350v-93h-470v167h-225l-75 -167h-135zM455 665l-186 -412h186v412z" />
<glyph unicode="&#xc7;" horiz-adv-x="755" d="M317 -278q147 36 147 103q0 38 -69 38q-17 0 -45 -5l-33 34l50 91q-68 6 -122 32.5t-88 64.5t-56.5 88t-31.5 100.5t-9 105.5v32q0 58 10 111.5t35.5 106t64.5 90.5t101 61.5t141 23.5q71 0 129 -21t93 -54t55 -67.5t26 -67.5l-123 -12q-10 50 -57 90.5t-123 40.5 q-111 0 -168.5 -80.5t-57.5 -221.5v-32q0 -141 57.5 -221.5t168.5 -80.5q76 0 123 40.5t57 90.5l123 -12q-6 -32 -25 -65.5t-52 -66t-87.5 -54t-120.5 -24.5l-37 -66h14q61 0 95.5 -23t34.5 -67q0 -25 -9 -46.5t-30 -38t-35 -26.5t-46 -20.5t-38.5 -12.5t-36.5 -9 q-2 -1 -3.5 -1.5t-3.5 -0.5z" />
<glyph unicode="&#xc8;" horiz-adv-x="675" d="M195 978l49 77l216 -165l-31 -45zM90 0v780h515v-93h-395v-259h359v-86h-359v-249h410v-93h-530z" />
<glyph unicode="&#xc9;" horiz-adv-x="675" d="M505 978l-234 -133l-31 45l216 165zM90 0v780h515v-93h-395v-259h359v-86h-359v-249h410v-93h-530z" />
<glyph unicode="&#xca;" horiz-adv-x="675" d="M155 867l180 148h30l180 -148l-34 -37l-161 97l-161 -97zM90 0v780h515v-93h-395v-259h359v-86h-359v-249h410v-93h-530z" />
<glyph unicode="&#xcb;" horiz-adv-x="675" d="M155 930q0 31 21 49.5t53 18.5t53 -18.5t21 -49.5t-21 -49.5t-53 -18.5t-53 18.5t-21 49.5zM398 930q0 31 21 49.5t53 18.5t52.5 -18.5t20.5 -49.5t-20.5 -49.5t-52.5 -18.5t-53 18.5t-21 49.5zM90 0v780h515v-93h-395v-259h359v-86h-359v-249h410v-93h-530z" />
<glyph unicode="&#xcc;" horiz-adv-x="320" d="M5 978l49 77l216 -165l-31 -45zM100 0v780h120v-780h-120z" />
<glyph unicode="&#xcd;" horiz-adv-x="320" d="M315 978l-234 -133l-31 45l216 165zM100 0v780h120v-780h-120z" />
<glyph unicode="&#xce;" horiz-adv-x="320" d="M-35 867l180 148h30l180 -148l-34 -37l-161 97l-161 -97zM100 0v780h120v-780h-120z" />
<glyph unicode="&#xcf;" horiz-adv-x="320" d="M-35 930q0 31 21 49.5t53 18.5t53 -18.5t21 -49.5t-21 -49.5t-53 -18.5t-53 18.5t-21 49.5zM208 930q0 31 21 49.5t53 18.5t52.5 -18.5t20.5 -49.5t-20.5 -49.5t-52.5 -18.5t-53 18.5t-21 49.5zM100 0v780h120v-780h-120z" />
<glyph unicode="&#xd0;" horiz-adv-x="770" d="M10 357v66h80v357q110 9 203 9q113 0 196.5 -33t130 -89.5t68.5 -122t22 -140.5v-28q0 -75 -22 -140.5t-68.5 -122t-130 -89.5t-196.5 -33q-41 0 -92 2t-81 5l-30 2v357h-80zM210 80q54 -2 83 -2q297 0 297 298v28q0 298 -297 298q-29 0 -83 -2v-277h200v-66h-200v-277z " />
<glyph unicode="&#xd1;" horiz-adv-x="790" d="M200 888q10 26 19 43.5t23 37.5t33.5 30.5t43.5 10.5t47 -10.5t31 -17t27 -23.5l11 -11t11 -10.5t9 -7.5t9.5 -6t9.5 -2q28 0 58 81l58 -21q-9 -25 -18.5 -43.5t-23.5 -38t-33.5 -30t-43.5 -10.5t-47 10.5t-31 17t-27 23.5l-11 11t-11 10.5t-9 7.5t-9.5 6t-9.5 2 q-7 0 -14 -4.5t-12 -10.5t-10.5 -17l-8.5 -17t-7.5 -18t-5.5 -14zM90 0v769l103 11l390 -587v587h117v-780h-103l-390 587v-587h-117z" />
<glyph unicode="&#xd2;" horiz-adv-x="820" d="M255 978l49 77l216 -165l-31 -45zM60 372v36q0 58 10 111t35 105t64 90t100.5 61.5t140.5 23.5t140.5 -23.5t100.5 -61.5t64 -90t35 -105t10 -111v-36q0 -58 -10 -111t-35 -105t-64 -90t-100.5 -61.5t-140.5 -23.5t-140.5 23.5t-100.5 61.5t-64 90t-35 105t-10 111z M410 71q112 0 169.5 80t57.5 221v36q0 141 -57.5 221t-169.5 80t-169.5 -80t-57.5 -221v-36q0 -141 57.5 -221t169.5 -80z" />
<glyph unicode="&#xd3;" horiz-adv-x="820" d="M565 978l-234 -133l-31 45l216 165zM60 372v36q0 58 10 111t35 105t64 90t100.5 61.5t140.5 23.5t140.5 -23.5t100.5 -61.5t64 -90t35 -105t10 -111v-36q0 -58 -10 -111t-35 -105t-64 -90t-100.5 -61.5t-140.5 -23.5t-140.5 23.5t-100.5 61.5t-64 90t-35 105t-10 111z M410 71q112 0 169.5 80t57.5 221v36q0 141 -57.5 221t-169.5 80t-169.5 -80t-57.5 -221v-36q0 -141 57.5 -221t169.5 -80z" />
<glyph unicode="&#xd4;" horiz-adv-x="820" d="M215 867l180 148h30l180 -148l-34 -37l-161 97l-161 -97zM60 372v36q0 58 10 111t35 105t64 90t100.5 61.5t140.5 23.5t140.5 -23.5t100.5 -61.5t64 -90t35 -105t10 -111v-36q0 -58 -10 -111t-35 -105t-64 -90t-100.5 -61.5t-140.5 -23.5t-140.5 23.5t-100.5 61.5t-64 90 t-35 105t-10 111zM410 71q112 0 169.5 80t57.5 221v36q0 141 -57.5 221t-169.5 80t-169.5 -80t-57.5 -221v-36q0 -141 57.5 -221t169.5 -80z" />
<glyph unicode="&#xd5;" horiz-adv-x="820" d="M215 888q10 26 19 43.5t23 37.5t33.5 30.5t43.5 10.5t47 -10.5t31 -17t27 -23.5l11 -11t11 -10.5t9 -7.5t9.5 -6t9.5 -2q28 0 58 81l58 -21q-9 -25 -18.5 -43.5t-23.5 -38t-33.5 -30t-43.5 -10.5t-47 10.5t-31 17t-27 23.5l-11 11t-11 10.5t-9 7.5t-9.5 6t-9.5 2 q-7 0 -14 -4.5t-12 -10.5t-10.5 -17l-8.5 -17t-7.5 -18t-5.5 -14zM60 372v36q0 58 10 111t35 105t64 90t100.5 61.5t140.5 23.5t140.5 -23.5t100.5 -61.5t64 -90t35 -105t10 -111v-36q0 -58 -10 -111t-35 -105t-64 -90t-100.5 -61.5t-140.5 -23.5t-140.5 23.5t-100.5 61.5 t-64 90t-35 105t-10 111zM410 71q112 0 169.5 80t57.5 221v36q0 141 -57.5 221t-169.5 80t-169.5 -80t-57.5 -221v-36q0 -141 57.5 -221t169.5 -80z" />
<glyph unicode="&#xd6;" horiz-adv-x="820" d="M215 930q0 31 21 49.5t53 18.5t53 -18.5t21 -49.5t-21 -49.5t-53 -18.5t-53 18.5t-21 49.5zM458 930q0 31 21 49.5t53 18.5t52.5 -18.5t20.5 -49.5t-20.5 -49.5t-52.5 -18.5t-53 18.5t-21 49.5zM60 372v36q0 58 10 111t35 105t64 90t100.5 61.5t140.5 23.5t140.5 -23.5 t100.5 -61.5t64 -90t35 -105t10 -111v-36q0 -58 -10 -111t-35 -105t-64 -90t-100.5 -61.5t-140.5 -23.5t-140.5 23.5t-100.5 61.5t-64 90t-35 105t-10 111zM410 71q112 0 169.5 80t57.5 221v36q0 141 -57.5 221t-169.5 80t-169.5 -80t-57.5 -221v-36q0 -141 57.5 -221 t169.5 -80z" />
<glyph unicode="&#xd7;" horiz-adv-x="600" d="M98 501l60 61l142 -142l142 142l60 -61l-141 -141l141 -141l-61 -61l-141 141l-141 -141l-61 61l141 141z" />
<glyph unicode="&#xd8;" horiz-adv-x="820" d="M60 372v36q0 58 10 111t35 105t64 90t100.5 61.5t140.5 23.5q138 0 226 -73l62 77l52 -37l-69 -86q79 -104 79 -272v-36q0 -58 -10 -111t-35 -105t-64 -90t-100.5 -61.5t-140.5 -23.5q-141 0 -230 76l-58 -72l-52 37l66 82q-76 103 -76 268zM569 642q-58 67 -159 67 q-112 0 -169.5 -80t-57.5 -221v-36q0 -102 30 -172zM605 585l-357 -443q58 -71 162 -71q112 0 169.5 80t57.5 221v36q0 107 -32 177z" />
<glyph unicode="&#xd9;" horiz-adv-x="770" d="M230 978l49 77l216 -165l-31 -45zM80 240v540h122v-540q0 -82 50 -125.5t133 -43.5t133 43.5t50 125.5v540h122v-540q0 -112 -84 -185t-221 -73t-221 73t-84 185z" />
<glyph unicode="&#xda;" horiz-adv-x="770" d="M540 978l-234 -133l-31 45l216 165zM80 240v540h122v-540q0 -82 50 -125.5t133 -43.5t133 43.5t50 125.5v540h122v-540q0 -112 -84 -185t-221 -73t-221 73t-84 185z" />
<glyph unicode="&#xdb;" horiz-adv-x="770" d="M190 867l180 148h30l180 -148l-34 -37l-161 97l-161 -97zM80 240v540h122v-540q0 -82 50 -125.5t133 -43.5t133 43.5t50 125.5v540h122v-540q0 -112 -84 -185t-221 -73t-221 73t-84 185z" />
<glyph unicode="&#xdc;" horiz-adv-x="770" d="M190 930q0 31 21 49.5t53 18.5t53 -18.5t21 -49.5t-21 -49.5t-53 -18.5t-53 18.5t-21 49.5zM433 930q0 31 21 49.5t53 18.5t52.5 -18.5t20.5 -49.5t-20.5 -49.5t-52.5 -18.5t-53 18.5t-21 49.5zM80 240v540h122v-540q0 -82 50 -125.5t133 -43.5t133 43.5t50 125.5v540 h122v-540q0 -112 -84 -185t-221 -73t-221 73t-84 185z" />
<glyph unicode="&#xdd;" horiz-adv-x="670" d="M490 978l-234 -133l-31 45l216 165zM10 761v8l135 11l190 -368l190 368l135 -11v-8l-265 -466v-295h-120v295z" />
<glyph unicode="&#xde;" horiz-adv-x="725" d="M209 270q64 -4 127 -4q215 0 215 148q0 78 -59 113.5t-156 35.5q-63 0 -127 -4v-289zM209 646q63 3 141 3q143 0 231.5 -62.5t88.5 -172.5t-88.5 -172t-231.5 -62q-78 0 -141 3v-183h-119v189v451v140h119v-134z" />
<glyph unicode="&#xdf;" horiz-adv-x="780" d="M327 140l107 8q5 -37 32 -61.5t68 -24.5q46 0 72.5 23t26.5 69q0 35 -20.5 56t-44.5 30q-32 13 -115 48q-113 47 -113 154q0 72 49 117t134 45q11 0 17 -1q-16 74 -66 109.5t-116 35.5q-67 0 -111 -39.5t-44 -132.5v-576h-113v576q0 118 74.5 185.5t193.5 67.5 q123 0 199.5 -75t84.5 -188l-54 -47q-23 13 -61 13q-36 0 -58.5 -20t-22.5 -60q0 -59 65 -87q67 -29 112 -47q48 -19 82.5 -59.5t34.5 -104.5q0 -73 -54.5 -123t-151.5 -50q-51 0 -91 16t-63.5 41.5t-36.5 51t-16 50.5z" />
<glyph unicode="&#xe0;" horiz-adv-x="625" d="M155 828l49 77l216 -165l-31 -45zM55 173q0 62 51 106t146 44q80 0 178 -10v106q0 60 -35.5 89t-94.5 29q-52 0 -86 -29.5t-41 -83.5l-113 9q11 77 72.5 131.5t167.5 54.5q109 0 174.5 -56t65.5 -144v-276q0 -43 13.5 -61t51.5 -22l-28 -74q-101 12 -124 89 q-64 -89 -180 -89q-101 0 -159.5 50.5t-58.5 136.5zM436 245q-88 12 -178 12q-39 0 -66 -22.5t-27 -63.5q0 -58 35 -87t87 -29q67 0 102.5 44.5t46.5 110.5v35z" />
<glyph unicode="&#xe1;" horiz-adv-x="625" d="M465 828l-234 -133l-31 45l216 165zM55 173q0 62 51 106t146 44q80 0 178 -10v106q0 60 -35.5 89t-94.5 29q-52 0 -86 -29.5t-41 -83.5l-113 9q11 77 72.5 131.5t167.5 54.5q109 0 174.5 -56t65.5 -144v-276q0 -43 13.5 -61t51.5 -22l-28 -74q-101 12 -124 89 q-64 -89 -180 -89q-101 0 -159.5 50.5t-58.5 136.5zM436 245q-88 12 -178 12q-39 0 -66 -22.5t-27 -63.5q0 -58 35 -87t87 -29q67 0 102.5 44.5t46.5 110.5v35z" />
<glyph unicode="&#xe2;" horiz-adv-x="625" d="M115 717l180 148h30l180 -148l-34 -37l-161 97l-161 -97zM55 173q0 62 51 106t146 44q80 0 178 -10v106q0 60 -35.5 89t-94.5 29q-52 0 -86 -29.5t-41 -83.5l-113 9q11 77 72.5 131.5t167.5 54.5q109 0 174.5 -56t65.5 -144v-276q0 -43 13.5 -61t51.5 -22l-28 -74 q-101 12 -124 89q-64 -89 -180 -89q-101 0 -159.5 50.5t-58.5 136.5zM436 245q-88 12 -178 12q-39 0 -66 -22.5t-27 -63.5q0 -58 35 -87t87 -29q67 0 102.5 44.5t46.5 110.5v35z" />
<glyph unicode="&#xe3;" horiz-adv-x="625" d="M115 738q10 26 19 43.5t23 37.5t33.5 30.5t43.5 10.5t47 -10.5t31 -17t27 -23.5l11 -11t11 -10.5t9 -7.5t9.5 -6t9.5 -2q28 0 58 81l58 -21q-9 -25 -18.5 -43.5t-23.5 -38t-33.5 -30t-43.5 -10.5t-47 10.5t-31 17t-27 23.5l-11 11t-11 10.5t-9 7.5t-9.5 6t-9.5 2 q-7 0 -14 -4.5t-12 -10.5t-10.5 -17l-8.5 -17t-7.5 -18t-5.5 -14zM55 173q0 62 51 106t146 44q80 0 178 -10v106q0 60 -35.5 89t-94.5 29q-52 0 -86 -29.5t-41 -83.5l-113 9q11 77 72.5 131.5t167.5 54.5q109 0 174.5 -56t65.5 -144v-276q0 -43 13.5 -61t51.5 -22l-28 -74 q-101 12 -124 89q-64 -89 -180 -89q-101 0 -159.5 50.5t-58.5 136.5zM436 245q-88 12 -178 12q-39 0 -66 -22.5t-27 -63.5q0 -58 35 -87t87 -29q67 0 102.5 44.5t46.5 110.5v35z" />
<glyph unicode="&#xe4;" horiz-adv-x="625" d="M115 780q0 31 21 49.5t53 18.5t53 -18.5t21 -49.5t-21 -49.5t-53 -18.5t-53 18.5t-21 49.5zM358 780q0 31 21 49.5t53 18.5t52.5 -18.5t20.5 -49.5t-20.5 -49.5t-52.5 -18.5t-53 18.5t-21 49.5zM55 173q0 62 51 106t146 44q80 0 178 -10v106q0 60 -35.5 89t-94.5 29 q-52 0 -86 -29.5t-41 -83.5l-113 9q11 77 72.5 131.5t167.5 54.5q109 0 174.5 -56t65.5 -144v-276q0 -43 13.5 -61t51.5 -22l-28 -74q-101 12 -124 89q-64 -89 -180 -89q-101 0 -159.5 50.5t-58.5 136.5zM436 245q-88 12 -178 12q-39 0 -66 -22.5t-27 -63.5q0 -58 35 -87 t87 -29q67 0 102.5 44.5t46.5 110.5v35z" />
<glyph unicode="&#xe5;" horiz-adv-x="625" d="M310 653q-52 0 -86 31t-34 81t34 81t86 31t86 -31t34 -81t-34 -81t-86 -31zM310 705q28 0 44.5 16.5t16.5 43.5t-16.5 43.5t-44.5 16.5t-44.5 -16.5t-16.5 -43.5t16.5 -43.5t44.5 -16.5zM55 173q0 62 51 106t146 44q80 0 178 -10v106q0 60 -35.5 89t-94.5 29 q-52 0 -86 -29.5t-41 -83.5l-113 9q11 77 72.5 131.5t167.5 54.5q109 0 174.5 -56t65.5 -144v-276q0 -43 13.5 -61t51.5 -22l-28 -74q-101 12 -124 89q-64 -89 -180 -89q-101 0 -159.5 50.5t-58.5 136.5zM436 245q-88 12 -178 12q-39 0 -66 -22.5t-27 -63.5q0 -58 35 -87 t87 -29q67 0 102.5 44.5t46.5 110.5v35z" />
<glyph unicode="&#xe6;" horiz-adv-x="960" d="M55 173q0 63 48.5 106.5t141.5 43.5q75 0 167 -10v106q0 60 -33 89t-87 29q-49 0 -80.5 -29.5t-38.5 -83.5l-113 9q11 77 70.5 131.5t161.5 54.5q130 0 190 -89q62 89 182 89q116 0 178.5 -75.5t62.5 -183.5q0 -39 -8 -81h-375q2 -104 37.5 -161t104.5 -57 q52 0 82.5 29.5t36.5 67.5l109 -10q-4 -26 -20 -53.5t-43 -53.5t-70 -43t-95 -17q-134 0 -196 108q-63 -108 -201 -108q-98 0 -155 52t-57 140zM523 351h276v10q0 87 -36 132.5t-99 45.5q-60 0 -97 -49.5t-44 -138.5zM417 245q-82 12 -163 12q-38 0 -63.5 -22t-25.5 -64 q0 -58 33 -86t82 -28q61 0 94.5 40.5t42.5 103.5v44z" />
<glyph unicode="&#xe7;" horiz-adv-x="605" d="M235 -278q147 36 147 103q0 38 -69 38q-17 0 -45 -5l-33 34l51 92q-65 8 -112 38t-72 74.5t-36 91.5t-11 99v26q0 44 7.5 85t27 82t50 71t79.5 49t112 19q57 0 103 -17t73 -43.5t42.5 -53.5t20.5 -53l-114 -10q-7 36 -40.5 65t-84.5 29q-76 0 -118 -59t-42 -164v-26 q0 -105 42 -164t118 -59q51 0 84.5 29t40.5 65l114 -10q-10 -58 -66 -110t-156 -57l-37 -66h14q61 0 95.5 -23t34.5 -67q0 -25 -9 -46.5t-30 -38t-35 -26.5t-46 -20.5t-38.5 -12.5t-36.5 -9q-2 -1 -3.5 -1.5t-3.5 -0.5z" />
<glyph unicode="&#xe8;" horiz-adv-x="640" d="M175 828l49 77l216 -165l-31 -45zM55 286v28q0 56 13.5 106.5t43 97t85 74t130.5 27.5q123 0 190.5 -76t67.5 -183q0 -38 -8 -81h-411q2 -103 43.5 -160.5t117.5 -57.5q55 0 90.5 30t41.5 67l109 -10q-10 -60 -72 -113.5t-169 -53.5q-77 0 -132.5 27.5t-84.5 74t-42 96.5 t-13 107zM167 351h312v10q0 87 -41.5 132.5t-110.5 45.5q-70 0 -111.5 -49.5t-48.5 -138.5z" />
<glyph unicode="&#xe9;" horiz-adv-x="640" d="M485 828l-234 -133l-31 45l216 165zM55 286v28q0 56 13.5 106.5t43 97t85 74t130.5 27.5q123 0 190.5 -76t67.5 -183q0 -38 -8 -81h-411q2 -103 43.5 -160.5t117.5 -57.5q55 0 90.5 30t41.5 67l109 -10q-10 -60 -72 -113.5t-169 -53.5q-77 0 -132.5 27.5t-84.5 74 t-42 96.5t-13 107zM167 351h312v10q0 87 -41.5 132.5t-110.5 45.5q-70 0 -111.5 -49.5t-48.5 -138.5z" />
<glyph unicode="&#xea;" horiz-adv-x="640" d="M135 717l180 148h30l180 -148l-34 -37l-161 97l-161 -97zM55 286v28q0 56 13.5 106.5t43 97t85 74t130.5 27.5q123 0 190.5 -76t67.5 -183q0 -38 -8 -81h-411q2 -103 43.5 -160.5t117.5 -57.5q55 0 90.5 30t41.5 67l109 -10q-10 -60 -72 -113.5t-169 -53.5 q-77 0 -132.5 27.5t-84.5 74t-42 96.5t-13 107zM167 351h312v10q0 87 -41.5 132.5t-110.5 45.5q-70 0 -111.5 -49.5t-48.5 -138.5z" />
<glyph unicode="&#xeb;" horiz-adv-x="640" d="M135 780q0 31 21 49.5t53 18.5t53 -18.5t21 -49.5t-21 -49.5t-53 -18.5t-53 18.5t-21 49.5zM378 780q0 31 21 49.5t53 18.5t52.5 -18.5t20.5 -49.5t-20.5 -49.5t-52.5 -18.5t-53 18.5t-21 49.5zM55 286v28q0 56 13.5 106.5t43 97t85 74t130.5 27.5q123 0 190.5 -76 t67.5 -183q0 -38 -8 -81h-411q2 -103 43.5 -160.5t117.5 -57.5q55 0 90.5 30t41.5 67l109 -10q-10 -60 -72 -113.5t-169 -53.5q-77 0 -132.5 27.5t-84.5 74t-42 96.5t-13 107zM167 351h312v10q0 87 -41.5 132.5t-110.5 45.5q-70 0 -111.5 -49.5t-48.5 -138.5z" />
<glyph unicode="&#xec;" horiz-adv-x="300" d="M-5 828l49 77l216 -165l-31 -45zM93 0v600h114v-600h-114z" />
<glyph unicode="&#xed;" horiz-adv-x="300" d="M305 828l-234 -133l-31 45l216 165zM93 0v600h114v-600h-114z" />
<glyph unicode="&#xee;" horiz-adv-x="300" d="M-45 717l180 148h30l180 -148l-34 -37l-161 97l-161 -97zM93 0v600h114v-600h-114z" />
<glyph unicode="&#xef;" horiz-adv-x="300" d="M-45 780q0 31 21 49.5t53 18.5t53 -18.5t21 -49.5t-21 -49.5t-53 -18.5t-53 18.5t-21 49.5zM198 780q0 31 21 49.5t53 18.5t52.5 -18.5t20.5 -49.5t-20.5 -49.5t-52.5 -18.5t-53 18.5t-21 49.5zM93 0v600h114v-600h-114z" />
<glyph unicode="&#xf0;" horiz-adv-x="660" d="M386 787l139 35l15 -57l-103 -26q168 -175 168 -432v-27q0 -43 -7.5 -83t-27 -80.5t-49.5 -69.5t-79 -47.5t-112 -18.5t-112 18.5t-79 47.5t-49.5 69.5t-27 80.5t-7.5 83v31q0 55 13.5 105.5t42 95t79 71t117.5 26.5q80 0 140 -55q-40 93 -110 160l-202 -51l-15 57 l162 41q-42 31 -74 50l64 58q61 -37 114 -82zM489 376q-17 64 -61.5 107t-107.5 43q-73 0 -112.5 -55t-39.5 -160v-31q0 -103 42 -161t120 -58t120 58t42 161v27q0 36 -3 69z" />
<glyph unicode="&#xf1;" horiz-adv-x="655" d="M135 738q10 26 19 43.5t23 37.5t33.5 30.5t43.5 10.5t47 -10.5t31 -17t27 -23.5l11 -11t11 -10.5t9 -7.5t9.5 -6t9.5 -2q28 0 58 81l58 -21q-9 -25 -18.5 -43.5t-23.5 -38t-33.5 -30t-43.5 -10.5t-47 10.5t-31 17t-27 23.5l-11 11t-11 10.5t-9 7.5t-9.5 6t-9.5 2 q-7 0 -14 -4.5t-12 -10.5t-10.5 -17l-8.5 -17t-7.5 -18t-5.5 -14zM85 0v420l-10 174l103 9l16 -150q77 161 219 161q83 0 127.5 -57t44.5 -141v-416h-113v412q0 59 -25 85.5t-64 26.5q-67 0 -119.5 -69t-65.5 -156v-299h-113z" />
<glyph unicode="&#xf2;" horiz-adv-x="660" d="M175 828l49 77l216 -165l-31 -45zM55 286v28q0 56 13 106.5t42.5 97t86 74t133.5 27.5t133.5 -27.5t86 -74t42.5 -97t13 -106.5v-28q0 -56 -13 -106.5t-42.5 -97t-86 -74t-133.5 -27.5t-133.5 27.5t-86 74t-42.5 97t-13 106.5zM330 63q78 0 120 58.5t42 164.5v28 q0 106 -42 164.5t-120 58.5t-120 -58.5t-42 -164.5v-28q0 -106 42 -164.5t120 -58.5z" />
<glyph unicode="&#xf3;" horiz-adv-x="660" d="M485 828l-234 -133l-31 45l216 165zM55 286v28q0 56 13 106.5t42.5 97t86 74t133.5 27.5t133.5 -27.5t86 -74t42.5 -97t13 -106.5v-28q0 -56 -13 -106.5t-42.5 -97t-86 -74t-133.5 -27.5t-133.5 27.5t-86 74t-42.5 97t-13 106.5zM330 63q78 0 120 58.5t42 164.5v28 q0 106 -42 164.5t-120 58.5t-120 -58.5t-42 -164.5v-28q0 -106 42 -164.5t120 -58.5z" />
<glyph unicode="&#xf4;" horiz-adv-x="660" d="M135 717l180 148h30l180 -148l-34 -37l-161 97l-161 -97zM55 286v28q0 56 13 106.5t42.5 97t86 74t133.5 27.5t133.5 -27.5t86 -74t42.5 -97t13 -106.5v-28q0 -56 -13 -106.5t-42.5 -97t-86 -74t-133.5 -27.5t-133.5 27.5t-86 74t-42.5 97t-13 106.5zM330 63 q78 0 120 58.5t42 164.5v28q0 106 -42 164.5t-120 58.5t-120 -58.5t-42 -164.5v-28q0 -106 42 -164.5t120 -58.5z" />
<glyph unicode="&#xf5;" horiz-adv-x="660" d="M135 738q10 26 19 43.5t23 37.5t33.5 30.5t43.5 10.5t47 -10.5t31 -17t27 -23.5l11 -11t11 -10.5t9 -7.5t9.5 -6t9.5 -2q28 0 58 81l58 -21q-9 -25 -18.5 -43.5t-23.5 -38t-33.5 -30t-43.5 -10.5t-47 10.5t-31 17t-27 23.5l-11 11t-11 10.5t-9 7.5t-9.5 6t-9.5 2 q-7 0 -14 -4.5t-12 -10.5t-10.5 -17l-8.5 -17t-7.5 -18t-5.5 -14zM55 286v28q0 56 13 106.5t42.5 97t86 74t133.5 27.5t133.5 -27.5t86 -74t42.5 -97t13 -106.5v-28q0 -56 -13 -106.5t-42.5 -97t-86 -74t-133.5 -27.5t-133.5 27.5t-86 74t-42.5 97t-13 106.5zM330 63 q78 0 120 58.5t42 164.5v28q0 106 -42 164.5t-120 58.5t-120 -58.5t-42 -164.5v-28q0 -106 42 -164.5t120 -58.5z" />
<glyph unicode="&#xf6;" horiz-adv-x="660" d="M135 780q0 31 21 49.5t53 18.5t53 -18.5t21 -49.5t-21 -49.5t-53 -18.5t-53 18.5t-21 49.5zM378 780q0 31 21 49.5t53 18.5t52.5 -18.5t20.5 -49.5t-20.5 -49.5t-52.5 -18.5t-53 18.5t-21 49.5zM55 286v28q0 56 13 106.5t42.5 97t86 74t133.5 27.5t133.5 -27.5t86 -74 t42.5 -97t13 -106.5v-28q0 -56 -13 -106.5t-42.5 -97t-86 -74t-133.5 -27.5t-133.5 27.5t-86 74t-42.5 97t-13 106.5zM330 63q78 0 120 58.5t42 164.5v28q0 106 -42 164.5t-120 58.5t-120 -58.5t-42 -164.5v-28q0 -106 42 -164.5t120 -58.5z" />
<glyph unicode="&#xf7;" horiz-adv-x="600" d="M90 320v80h420v-80h-420zM230 215q0 29 20 47t50 18t50 -18t20 -47t-20 -47t-50 -18t-50 18t-20 47zM230 505q0 29 20 47t50 18t50 -18t20 -47t-20 -47t-50 -18t-50 18t-20 47z" />
<glyph unicode="&#xf8;" horiz-adv-x="660" d="M55 286v28q0 56 13 106.5t42.5 97t86 74t133.5 27.5q108 0 174 -53l43 53l48 -34l-50 -62q60 -82 60 -209v-28q0 -56 -13 -106.5t-42.5 -97t-86 -74t-133.5 -27.5q-108 0 -174 53l-43 -53l-48 34l50 62q-60 82 -60 209zM443 488q-41 49 -113 49q-78 0 -120 -58.5 t-42 -164.5v-28q0 -70 18 -119zM474 433l-257 -321q41 -49 113 -49q78 0 120 58.5t42 164.5v28q0 70 -18 119z" />
<glyph unicode="&#xf9;" horiz-adv-x="620" d="M155 828l49 77l216 -165l-31 -45zM65 187v413h113v-413q0 -62 36.5 -93t95.5 -31t95.5 31t36.5 93v413h113v-413q0 -88 -67 -147t-178 -59t-178 59t-67 147z" />
<glyph unicode="&#xfa;" horiz-adv-x="620" d="M465 828l-234 -133l-31 45l216 165zM65 187v413h113v-413q0 -62 36.5 -93t95.5 -31t95.5 31t36.5 93v413h113v-413q0 -88 -67 -147t-178 -59t-178 59t-67 147z" />
<glyph unicode="&#xfb;" horiz-adv-x="620" d="M115 717l180 148h30l180 -148l-34 -37l-161 97l-161 -97zM65 187v413h113v-413q0 -62 36.5 -93t95.5 -31t95.5 31t36.5 93v413h113v-413q0 -88 -67 -147t-178 -59t-178 59t-67 147z" />
<glyph unicode="&#xfc;" horiz-adv-x="620" d="M115 780q0 31 21 49.5t53 18.5t53 -18.5t21 -49.5t-21 -49.5t-53 -18.5t-53 18.5t-21 49.5zM358 780q0 31 21 49.5t53 18.5t52.5 -18.5t20.5 -49.5t-20.5 -49.5t-52.5 -18.5t-53 18.5t-21 49.5zM65 187v413h113v-413q0 -62 36.5 -93t95.5 -31t95.5 31t36.5 93v413h113 v-413q0 -88 -67 -147t-178 -59t-178 59t-67 147z" />
<glyph unicode="&#xfd;" horiz-adv-x="600" d="M455 828l-234 -133l-31 45l216 165zM15 585v6l123 9l162 -468l162 468l123 -9v-6l-245 -609q-1 -2 -12.5 -27.5t-13.5 -30t-13.5 -27t-16 -28.5t-16.5 -24t-20 -23.5t-21.5 -17t-25.5 -15.5t-28.5 -8t-33.5 -4q-61 0 -114 42l55 68q35 -31 55 -31q31 0 55.5 35t57.5 112 l4 9z" />
<glyph unicode="&#xfe;" horiz-adv-x="675" d="M620 311v-22q0 -55 -13.5 -106t-41.5 -96.5t-79 -73t-118 -27.5q-104 0 -170 94v-290h-113v1020h110v-292q68 96 173 96q67 0 118 -27.5t79 -73t41.5 -96.5t13.5 -106zM198 215q17 -64 57 -105t100 -41q73 0 112.5 57t39.5 163v22q0 106 -39.5 163t-112.5 57 q-60 0 -100 -41t-57 -105v-170z" />
<glyph unicode="&#xff;" horiz-adv-x="600" d="M105 780q0 31 21 49.5t53 18.5t53 -18.5t21 -49.5t-21 -49.5t-53 -18.5t-53 18.5t-21 49.5zM348 780q0 31 21 49.5t53 18.5t52.5 -18.5t20.5 -49.5t-20.5 -49.5t-52.5 -18.5t-53 18.5t-21 49.5zM15 585v6l123 9l162 -468l162 468l123 -9v-6l-245 -609q-1 -2 -12.5 -27.5 t-13.5 -30t-13.5 -27t-16 -28.5t-16.5 -24t-20 -23.5t-21.5 -17t-25.5 -15.5t-28.5 -8t-33.5 -4q-61 0 -114 42l55 68q35 -31 55 -31q31 0 55.5 35t57.5 112l4 9z" />
<glyph unicode="&#x100;" horiz-adv-x="750" d="M180 894v72h390v-72h-390zM735 0h-136l-59 167h-330l-59 -167h-136v8l310 772h100l310 -772v-8zM510 253l-135 385l-135 -385h270z" />
<glyph unicode="&#x101;" horiz-adv-x="625" d="M115 744v72h390v-72h-390zM55 173q0 62 51 106t146 44q80 0 178 -10v106q0 60 -35.5 89t-94.5 29q-52 0 -86 -29.5t-41 -83.5l-113 9q11 77 72.5 131.5t167.5 54.5q109 0 174.5 -56t65.5 -144v-276q0 -43 13.5 -61t51.5 -22l-28 -74q-101 12 -124 89q-64 -89 -180 -89 q-101 0 -159.5 50.5t-58.5 136.5zM436 245q-88 12 -178 12q-39 0 -66 -22.5t-27 -63.5q0 -58 35 -87t87 -29q67 0 102.5 44.5t46.5 110.5v35z" />
<glyph unicode="&#x102;" horiz-adv-x="750" d="M180 987l70 23q27 -95 125 -95t125 95l70 -23q-17 -60 -64.5 -101t-130.5 -41t-130.5 41t-64.5 101zM735 0h-136l-59 167h-330l-59 -167h-136v8l310 772h100l310 -772v-8zM510 253l-135 385l-135 -385h270z" />
<glyph unicode="&#x103;" horiz-adv-x="625" d="M115 837l70 23q27 -95 125 -95t125 95l70 -23q-17 -60 -64.5 -101t-130.5 -41t-130.5 41t-64.5 101zM55 173q0 62 51 106t146 44q80 0 178 -10v106q0 60 -35.5 89t-94.5 29q-52 0 -86 -29.5t-41 -83.5l-113 9q11 77 72.5 131.5t167.5 54.5q109 0 174.5 -56t65.5 -144 v-276q0 -43 13.5 -61t51.5 -22l-28 -74q-101 12 -124 89q-64 -89 -180 -89q-101 0 -159.5 50.5t-58.5 136.5zM436 245q-88 12 -178 12q-39 0 -66 -22.5t-27 -63.5q0 -58 35 -87t87 -29q67 0 102.5 44.5t46.5 110.5v35z" />
<glyph unicode="&#x104;" horiz-adv-x="750" d="M510 253l-135 385l-135 -385h270zM642 0h-43l-59 167h-330l-59 -167h-136v8l310 772h100l310 -772v-8h-27q-47 -56 -47 -132q0 -64 55 -64q36 0 63 16l19 -54q-42 -21 -95 -21q-56 0 -85.5 30.5t-29.5 82.5q0 75 54 142z" />
<glyph unicode="&#x105;" horiz-adv-x="625" d="M436 245q-88 12 -178 12q-39 0 -66 -22.5t-27 -63.5q0 -58 35 -87t87 -29q67 0 102.5 44.5t46.5 110.5v35zM55 173q0 62 51 106t146 44q80 0 178 -10v106q0 60 -35.5 89t-94.5 29q-52 0 -86 -29.5t-41 -83.5l-113 9q11 77 72.5 131.5t167.5 54.5q109 0 174.5 -56 t65.5 -144v-276q0 -43 13.5 -61t51.5 -22l-28 -74q-13 2 -30 6q-41 -53 -41 -124q0 -64 55 -64q36 0 63 16l19 -54q-42 -21 -95 -21q-56 0 -85.5 30.5t-29.5 82.5q0 84 65 155q-32 21 -45 62q-64 -89 -180 -89q-101 0 -159.5 50.5t-58.5 136.5z" />
<glyph unicode="&#x106;" horiz-adv-x="755" d="M565 978l-234 -133l-31 45l216 165zM60 406q0 58 10 111.5t35.5 106t64.5 90.5t101 61.5t141 23.5q71 0 129 -21t93 -54t55 -67.5t26 -67.5l-123 -12q-10 50 -57 90.5t-123 40.5q-111 0 -168.5 -80.5t-57.5 -221.5v-32q0 -141 57.5 -221.5t168.5 -80.5q76 0 123 40.5 t57 90.5l123 -12q-6 -33 -26 -67.5t-55 -67.5t-93 -54t-129 -21q-79 0 -141 23.5t-101 61.5t-64.5 90.5t-35.5 106t-10 111.5v32z" />
<glyph unicode="&#x107;" horiz-adv-x="605" d="M485 828l-234 -133l-31 45l216 165zM55 287v26q0 44 7.5 85t27 82t50 71t79.5 49t112 19q57 0 103 -17t73 -43.5t42.5 -53.5t20.5 -53l-114 -10q-7 36 -40.5 65t-84.5 29q-76 0 -118 -59t-42 -164v-26q0 -105 42 -164t118 -59q51 0 84.5 29t40.5 65l114 -10 q-5 -26 -20.5 -53t-42.5 -53.5t-73 -43.5t-103 -17q-63 0 -112 19t-79.5 49t-50 71t-27 82t-7.5 85z" />
<glyph unicode="&#x108;" horiz-adv-x="755" d="M215 867l180 148h30l180 -148l-34 -37l-161 97l-161 -97zM60 406q0 58 10 111.5t35.5 106t64.5 90.5t101 61.5t141 23.5q71 0 129 -21t93 -54t55 -67.5t26 -67.5l-123 -12q-10 50 -57 90.5t-123 40.5q-111 0 -168.5 -80.5t-57.5 -221.5v-32q0 -141 57.5 -221.5 t168.5 -80.5q76 0 123 40.5t57 90.5l123 -12q-6 -33 -26 -67.5t-55 -67.5t-93 -54t-129 -21q-79 0 -141 23.5t-101 61.5t-64.5 90.5t-35.5 106t-10 111.5v32z" />
<glyph unicode="&#x109;" horiz-adv-x="605" d="M135 717l180 148h30l180 -148l-34 -37l-161 97l-161 -97zM55 287v26q0 44 7.5 85t27 82t50 71t79.5 49t112 19q57 0 103 -17t73 -43.5t42.5 -53.5t20.5 -53l-114 -10q-7 36 -40.5 65t-84.5 29q-76 0 -118 -59t-42 -164v-26q0 -105 42 -164t118 -59q51 0 84.5 29t40.5 65 l114 -10q-5 -26 -20.5 -53t-42.5 -53.5t-73 -43.5t-103 -17q-63 0 -112 19t-79.5 49t-50 71t-27 82t-7.5 85z" />
<glyph unicode="&#x10a;" horiz-adv-x="755" d="M410 1004q35 0 57.5 -20t22.5 -54t-22.5 -54t-57.5 -20t-57.5 20t-22.5 54t22.5 54t57.5 20zM60 406q0 58 10 111.5t35.5 106t64.5 90.5t101 61.5t141 23.5q71 0 129 -21t93 -54t55 -67.5t26 -67.5l-123 -12q-10 50 -57 90.5t-123 40.5q-111 0 -168.5 -80.5t-57.5 -221.5 v-32q0 -141 57.5 -221.5t168.5 -80.5q76 0 123 40.5t57 90.5l123 -12q-6 -33 -26 -67.5t-55 -67.5t-93 -54t-129 -21q-79 0 -141 23.5t-101 61.5t-64.5 90.5t-35.5 106t-10 111.5v32z" />
<glyph unicode="&#x10b;" horiz-adv-x="605" d="M330 854q35 0 57.5 -20t22.5 -54t-22.5 -54t-57.5 -20t-57.5 20t-22.5 54t22.5 54t57.5 20zM55 287v26q0 44 7.5 85t27 82t50 71t79.5 49t112 19q57 0 103 -17t73 -43.5t42.5 -53.5t20.5 -53l-114 -10q-7 36 -40.5 65t-84.5 29q-76 0 -118 -59t-42 -164v-26 q0 -105 42 -164t118 -59q51 0 84.5 29t40.5 65l114 -10q-5 -26 -20.5 -53t-42.5 -53.5t-73 -43.5t-103 -17q-63 0 -112 19t-79.5 49t-50 71t-27 82t-7.5 85z" />
<glyph unicode="&#x10c;" horiz-adv-x="755" d="M605 988l-180 -148h-30l-180 148l34 37l161 -97l161 97zM60 406q0 58 10 111.5t35.5 106t64.5 90.5t101 61.5t141 23.5q71 0 129 -21t93 -54t55 -67.5t26 -67.5l-123 -12q-10 50 -57 90.5t-123 40.5q-111 0 -168.5 -80.5t-57.5 -221.5v-32q0 -141 57.5 -221.5 t168.5 -80.5q76 0 123 40.5t57 90.5l123 -12q-6 -33 -26 -67.5t-55 -67.5t-93 -54t-129 -21q-79 0 -141 23.5t-101 61.5t-64.5 90.5t-35.5 106t-10 111.5v32z" />
<glyph unicode="&#x10d;" horiz-adv-x="605" d="M525 838l-180 -148h-30l-180 148l34 37l161 -97l161 97zM55 287v26q0 44 7.5 85t27 82t50 71t79.5 49t112 19q57 0 103 -17t73 -43.5t42.5 -53.5t20.5 -53l-114 -10q-7 36 -40.5 65t-84.5 29q-76 0 -118 -59t-42 -164v-26q0 -105 42 -164t118 -59q51 0 84.5 29t40.5 65 l114 -10q-5 -26 -20.5 -53t-42.5 -53.5t-73 -43.5t-103 -17q-63 0 -112 19t-79.5 49t-50 71t-27 82t-7.5 85z" />
<glyph unicode="&#x10e;" horiz-adv-x="770" d="M515 988l-180 -148h-30l-180 148l34 37l161 -97l161 97zM210 80q54 -2 83 -2q297 0 297 298v28q0 298 -297 298q-29 0 -83 -2v-620zM90 780q110 9 203 9q113 0 196.5 -33t130 -89.5t68.5 -122t22 -140.5v-28q0 -75 -22 -140.5t-68.5 -122t-130 -89.5t-196.5 -33 q-41 0 -92 2t-81 5l-30 2v780z" />
<glyph unicode="&#x10f;" horiz-adv-x="890" d="M801 698q-11 -3 -24 -3q-29 0 -48 16.5t-19 44.5q0 32 20 53t55 21q44 0 64.5 -28t20.5 -66q0 -68 -37.5 -114t-87.5 -67l-28 37q29 12 52.5 39.5t31.5 66.5zM55 289v22q0 55 13.5 106t41.5 96.5t79 73t118 27.5q106 0 173 -99v295h110v-667q0 -43 13.5 -61t51.5 -22 l-28 -74q-123 15 -130 124q-71 -124 -190 -124q-67 0 -118 27.5t-79 73t-41.5 96.5t-13.5 106zM480 374q-17 68 -57 112.5t-103 44.5q-73 0 -112.5 -57t-39.5 -163v-22q0 -106 39.5 -163t112.5 -57q63 0 103 44.5t57 112.5v148z" />
<glyph unicode="&#x110;" horiz-adv-x="770" d="M10 357v66h80v357q110 9 203 9q113 0 196.5 -33t130 -89.5t68.5 -122t22 -140.5v-28q0 -75 -22 -140.5t-68.5 -122t-130 -89.5t-196.5 -33q-41 0 -92 2t-81 5l-30 2v357h-80zM210 80q54 -2 83 -2q297 0 297 298v28q0 298 -297 298q-29 0 -83 -2v-277h200v-66h-200v-277z " />
<glyph unicode="&#x111;" horiz-adv-x="680" d="M320 687v66h160v57h110v-57h70v-66h-70v-544q0 -43 13.5 -61t51.5 -22l-28 -74q-123 15 -130 124q-71 -124 -190 -124q-67 0 -118 27.5t-79 73t-41.5 96.5t-13.5 106v22q0 55 13.5 106t41.5 96.5t79 73t118 27.5q106 0 173 -99v172h-160zM480 374q-17 68 -57 112.5 t-103 44.5q-73 0 -112.5 -57t-39.5 -163v-22q0 -106 39.5 -163t112.5 -57q63 0 103 44.5t57 112.5v148z" />
<glyph unicode="&#x112;" horiz-adv-x="675" d="M155 894v72h390v-72h-390zM90 0v780h515v-93h-395v-259h359v-86h-359v-249h410v-93h-530z" />
<glyph unicode="&#x113;" horiz-adv-x="640" d="M135 744v72h390v-72h-390zM55 286v28q0 56 13.5 106.5t43 97t85 74t130.5 27.5q123 0 190.5 -76t67.5 -183q0 -38 -8 -81h-411q2 -103 43.5 -160.5t117.5 -57.5q55 0 90.5 30t41.5 67l109 -10q-10 -60 -72 -113.5t-169 -53.5q-77 0 -132.5 27.5t-84.5 74t-42 96.5 t-13 107zM167 351h312v10q0 87 -41.5 132.5t-110.5 45.5q-70 0 -111.5 -49.5t-48.5 -138.5z" />
<glyph unicode="&#x114;" horiz-adv-x="675" d="M155 987l70 23q27 -95 125 -95t125 95l70 -23q-17 -60 -64.5 -101t-130.5 -41t-130.5 41t-64.5 101zM90 0v780h515v-93h-395v-259h359v-86h-359v-249h410v-93h-530z" />
<glyph unicode="&#x115;" horiz-adv-x="640" d="M135 837l70 23q27 -95 125 -95t125 95l70 -23q-17 -60 -64.5 -101t-130.5 -41t-130.5 41t-64.5 101zM55 286v28q0 56 13.5 106.5t43 97t85 74t130.5 27.5q123 0 190.5 -76t67.5 -183q0 -38 -8 -81h-411q2 -103 43.5 -160.5t117.5 -57.5q55 0 90.5 30t41.5 67l109 -10 q-10 -60 -72 -113.5t-169 -53.5q-77 0 -132.5 27.5t-84.5 74t-42 96.5t-13 107zM167 351h312v10q0 87 -41.5 132.5t-110.5 45.5q-70 0 -111.5 -49.5t-48.5 -138.5z" />
<glyph unicode="&#x116;" horiz-adv-x="675" d="M350 1004q35 0 57.5 -20t22.5 -54t-22.5 -54t-57.5 -20t-57.5 20t-22.5 54t22.5 54t57.5 20zM90 0v780h515v-93h-395v-259h359v-86h-359v-249h410v-93h-530z" />
<glyph unicode="&#x117;" horiz-adv-x="640" d="M330 854q35 0 57.5 -20t22.5 -54t-22.5 -54t-57.5 -20t-57.5 20t-22.5 54t22.5 54t57.5 20zM55 286v28q0 56 13.5 106.5t43 97t85 74t130.5 27.5q123 0 190.5 -76t67.5 -183q0 -38 -8 -81h-411q2 -103 43.5 -160.5t117.5 -57.5q55 0 90.5 30t41.5 67l109 -10 q-10 -60 -72 -113.5t-169 -53.5q-77 0 -132.5 27.5t-84.5 74t-42 96.5t-13 107zM167 351h312v10q0 87 -41.5 132.5t-110.5 45.5q-70 0 -111.5 -49.5t-48.5 -138.5z" />
<glyph unicode="&#x118;" horiz-adv-x="675" d="M90 0v780h515v-93h-395v-259h359v-86h-359v-249h410v-93h-37q-47 -56 -47 -132q0 -64 55 -64q36 0 63 16l19 -54q-42 -21 -95 -21q-56 0 -85.5 30.5t-29.5 82.5q0 75 54 142h-427z" />
<glyph unicode="&#x119;" horiz-adv-x="640" d="M167 351h312v10q0 87 -41.5 132.5t-110.5 45.5q-70 0 -111.5 -49.5t-48.5 -138.5zM55 286v28q0 56 13.5 106.5t43 97t85 74t130.5 27.5q123 0 190.5 -76t67.5 -183q0 -38 -8 -81h-411q2 -103 43.5 -160.5t117.5 -57.5q55 0 90.5 30t41.5 67l109 -10q-6 -36 -34.5 -75 t-76.5 -63q-56 -60 -56 -142q0 -64 55 -64q36 0 63 16l19 -54q-42 -21 -95 -21q-56 0 -85.5 30.5t-29.5 82.5q0 68 42 126q-19 -3 -43 -3q-77 0 -132.5 27.5t-84.5 74t-42 96.5t-13 107z" />
<glyph unicode="&#x11a;" horiz-adv-x="675" d="M545 988l-180 -148h-30l-180 148l34 37l161 -97l161 97zM90 0v780h515v-93h-395v-259h359v-86h-359v-249h410v-93h-530z" />
<glyph unicode="&#x11b;" horiz-adv-x="640" d="M525 838l-180 -148h-30l-180 148l34 37l161 -97l161 97zM55 286v28q0 56 13.5 106.5t43 97t85 74t130.5 27.5q123 0 190.5 -76t67.5 -183q0 -38 -8 -81h-411q2 -103 43.5 -160.5t117.5 -57.5q55 0 90.5 30t41.5 67l109 -10q-10 -60 -72 -113.5t-169 -53.5 q-77 0 -132.5 27.5t-84.5 74t-42 96.5t-13 107zM167 351h312v10q0 87 -41.5 132.5t-110.5 45.5q-70 0 -111.5 -49.5t-48.5 -138.5z" />
<glyph unicode="&#x11c;" horiz-adv-x="770" d="M215 867l180 148h30l180 -148l-34 -37l-161 97l-161 -97zM419 302v86h291v-251q-31 -61 -106 -108.5t-192 -47.5q-79 0 -141 23.5t-101 61.5t-64.5 90.5t-35.5 106t-10 111.5v32q0 58 10 111.5t35.5 106t64.5 90.5t101 61.5t141 23.5q71 0 129 -21t93 -54t55 -67.5 t26 -67.5l-122 -12q-10 50 -57 91t-124 41q-113 0 -171 -80t-58 -223v-32q0 -143 58 -223t171 -80q131 0 188 80v151h-181z" />
<glyph unicode="&#x11d;" horiz-adv-x="670" d="M165 717l180 148h30l180 -148l-34 -37l-161 97l-161 -97zM55 315q0 42 8 82.5t27 80t47 69.5t72 48.5t98 18.5q110 0 178 -108l9 94h96v-626q0 -89 -66.5 -146t-175.5 -57q-98 0 -160.5 37t-77.5 78l105 29q8 -23 42.5 -44.5t90.5 -21.5q63 0 99.5 31.5t36.5 93.5v148 q-68 -106 -177 -106q-54 0 -98 18.5t-72 48.5t-47 69.5t-27 80t-8 82.5zM480 372q-17 68 -57 113.5t-103 45.5q-73 0 -112.5 -57t-39.5 -159t39.5 -159t112.5 -57q63 0 103 45.5t57 113.5v114z" />
<glyph unicode="&#x11e;" horiz-adv-x="770" d="M215 987l70 23q27 -95 125 -95t125 95l70 -23q-17 -60 -64.5 -101t-130.5 -41t-130.5 41t-64.5 101zM419 302v86h291v-251q-31 -61 -106 -108.5t-192 -47.5q-79 0 -141 23.5t-101 61.5t-64.5 90.5t-35.5 106t-10 111.5v32q0 58 10 111.5t35.5 106t64.5 90.5t101 61.5 t141 23.5q71 0 129 -21t93 -54t55 -67.5t26 -67.5l-122 -12q-10 50 -57 91t-124 41q-113 0 -171 -80t-58 -223v-32q0 -143 58 -223t171 -80q131 0 188 80v151h-181z" />
<glyph unicode="&#x11f;" horiz-adv-x="670" d="M165 837l70 23q27 -95 125 -95t125 95l70 -23q-17 -60 -64.5 -101t-130.5 -41t-130.5 41t-64.5 101zM55 315q0 42 8 82.5t27 80t47 69.5t72 48.5t98 18.5q110 0 178 -108l9 94h96v-626q0 -89 -66.5 -146t-175.5 -57q-98 0 -160.5 37t-77.5 78l105 29q8 -23 42.5 -44.5 t90.5 -21.5q63 0 99.5 31.5t36.5 93.5v148q-68 -106 -177 -106q-54 0 -98 18.5t-72 48.5t-47 69.5t-27 80t-8 82.5zM480 372q-17 68 -57 113.5t-103 45.5q-73 0 -112.5 -57t-39.5 -159t39.5 -159t112.5 -57q63 0 103 45.5t57 113.5v114z" />
<glyph unicode="&#x120;" horiz-adv-x="770" d="M410 1004q35 0 57.5 -20t22.5 -54t-22.5 -54t-57.5 -20t-57.5 20t-22.5 54t22.5 54t57.5 20zM419 302v86h291v-251q-31 -61 -106 -108.5t-192 -47.5q-79 0 -141 23.5t-101 61.5t-64.5 90.5t-35.5 106t-10 111.5v32q0 58 10 111.5t35.5 106t64.5 90.5t101 61.5t141 23.5 q71 0 129 -21t93 -54t55 -67.5t26 -67.5l-122 -12q-10 50 -57 91t-124 41q-113 0 -171 -80t-58 -223v-32q0 -143 58 -223t171 -80q131 0 188 80v151h-181z" />
<glyph unicode="&#x121;" horiz-adv-x="670" d="M360 854q35 0 57.5 -20t22.5 -54t-22.5 -54t-57.5 -20t-57.5 20t-22.5 54t22.5 54t57.5 20zM55 315q0 42 8 82.5t27 80t47 69.5t72 48.5t98 18.5q110 0 178 -108l9 94h96v-626q0 -89 -66.5 -146t-175.5 -57q-98 0 -160.5 37t-77.5 78l105 29q8 -23 42.5 -44.5t90.5 -21.5 q63 0 99.5 31.5t36.5 93.5v148q-68 -106 -177 -106q-54 0 -98 18.5t-72 48.5t-47 69.5t-27 80t-8 82.5zM480 372q-17 68 -57 113.5t-103 45.5q-73 0 -112.5 -57t-39.5 -159t39.5 -159t112.5 -57q63 0 103 45.5t57 113.5v114z" />
<glyph unicode="&#x122;" horiz-adv-x="770" d="M416 -202q-11 -3 -24 -3q-29 0 -48 16.5t-19 44.5q0 32 20 53t55 21q44 0 64.5 -28t20.5 -66q0 -68 -37.5 -114t-87.5 -67l-28 37q29 12 52.5 39.5t31.5 66.5zM419 302v86h291v-251q-31 -61 -106 -108.5t-192 -47.5q-79 0 -141 23.5t-101 61.5t-64.5 90.5t-35.5 106 t-10 111.5v32q0 58 10 111.5t35.5 106t64.5 90.5t101 61.5t141 23.5q71 0 129 -21t93 -54t55 -67.5t26 -67.5l-122 -12q-10 50 -57 91t-124 41q-113 0 -171 -80t-58 -223v-32q0 -143 58 -223t171 -80q131 0 188 80v151h-181z" />
<glyph unicode="&#x123;" horiz-adv-x="670" d="M354 832q10 3 24 3q29 0 48 -16.5t19 -44.5q0 -32 -20 -53t-55 -21q-44 0 -64.5 28t-20.5 66q0 68 37.5 114t87.5 67l28 -37q-29 -12 -52.5 -39.5t-31.5 -66.5zM55 315q0 42 8 82.5t27 80t47 69.5t72 48.5t98 18.5q110 0 178 -108l9 94h96v-626q0 -89 -66.5 -146 t-175.5 -57q-98 0 -160.5 37t-77.5 78l105 29q8 -23 42.5 -44.5t90.5 -21.5q63 0 99.5 31.5t36.5 93.5v148q-68 -106 -177 -106q-54 0 -98 18.5t-72 48.5t-47 69.5t-27 80t-8 82.5zM480 372q-17 68 -57 113.5t-103 45.5q-73 0 -112.5 -57t-39.5 -159t39.5 -159t112.5 -57 q63 0 103 45.5t57 113.5v114z" />
<glyph unicode="&#x124;" horiz-adv-x="790" d="M200 867l180 148h30l180 -148l-34 -37l-161 97l-161 -97zM90 0v780h120v-344h370v344h120v-780h-120v344h-370v-344h-120z" />
<glyph unicode="&#x125;" horiz-adv-x="665" d="M-60 897l180 148h30l180 -148l-34 -37l-161 97l-161 -97zM85 0v810h110v-362q81 166 227 166q84 0 128.5 -57t44.5 -141v-416h-113v412q0 59 -25 85.5t-65 26.5q-69 0 -124.5 -69.5t-69.5 -156.5v-298h-113z" />
<glyph unicode="&#x126;" horiz-adv-x="790" d="M20 627v66h70v87h120v-87h370v87h120v-87h70v-66h-70v-627h-120v344h-370v-344h-120v627h-70zM580 627h-370v-191h370v191z" />
<glyph unicode="&#x127;" horiz-adv-x="665" d="M15 687v66h70v57h110v-57h160v-66h-160v-239q81 166 227 166q84 0 128.5 -57t44.5 -141v-416h-113v412q0 59 -25 85.5t-65 26.5q-69 0 -124.5 -69.5t-69.5 -156.5v-298h-113v687h-70z" />
<glyph unicode="&#x128;" horiz-adv-x="320" d="M-35 888q10 26 19 43.5t23 37.5t33.5 30.5t43.5 10.5t47 -10.5t31 -17t27 -23.5l11 -11t11 -10.5t9 -7.5t9.5 -6t9.5 -2q28 0 58 81l58 -21q-9 -25 -18.5 -43.5t-23.5 -38t-33.5 -30t-43.5 -10.5t-47 10.5t-31 17t-27 23.5l-11 11t-11 10.5t-9 7.5t-9.5 6t-9.5 2 q-7 0 -14 -4.5t-12 -10.5t-10.5 -17l-8.5 -17t-7.5 -18t-5.5 -14zM100 0v780h120v-780h-120z" />
<glyph unicode="&#x129;" horiz-adv-x="300" d="M-45 738q10 26 19 43.5t23 37.5t33.5 30.5t43.5 10.5t47 -10.5t31 -17t27 -23.5l11 -11t11 -10.5t9 -7.5t9.5 -6t9.5 -2q28 0 58 81l58 -21q-9 -25 -18.5 -43.5t-23.5 -38t-33.5 -30t-43.5 -10.5t-47 10.5t-31 17t-27 23.5l-11 11t-11 10.5t-9 7.5t-9.5 6t-9.5 2 q-7 0 -14 -4.5t-12 -10.5t-10.5 -17l-8.5 -17t-7.5 -18t-5.5 -14zM93 0v600h114v-600h-114z" />
<glyph unicode="&#x12a;" horiz-adv-x="320" d="M-35 894v72h390v-72h-390zM100 0v780h120v-780h-120z" />
<glyph unicode="&#x12b;" horiz-adv-x="300" d="M-45 744v72h390v-72h-390zM93 0v600h114v-600h-114z" />
<glyph unicode="&#x12c;" horiz-adv-x="320" d="M-35 987l70 23q27 -95 125 -95t125 95l70 -23q-17 -60 -64.5 -101t-130.5 -41t-130.5 41t-64.5 101zM100 0v780h120v-780h-120z" />
<glyph unicode="&#x12d;" horiz-adv-x="300" d="M-45 837l70 23q27 -95 125 -95t125 95l70 -23q-17 -60 -64.5 -101t-130.5 -41t-130.5 41t-64.5 101zM93 0v600h114v-600h-114z" />
<glyph unicode="&#x12e;" horiz-adv-x="320" d="M100 0v780h120v-780h-17q-47 -56 -47 -132q0 -64 55 -64q36 0 63 16l19 -54q-42 -21 -95 -21q-56 0 -85.5 30.5t-29.5 82.5q0 75 54 142h-37z" />
<glyph unicode="&#x12f;" horiz-adv-x="300" d="M150 854q35 0 57.5 -20t22.5 -54t-22.5 -54t-57.5 -20t-57.5 20t-22.5 54t22.5 54t57.5 20zM93 0v600h114v-600h-14q-47 -56 -47 -132q0 -64 55 -64q36 0 63 16l19 -54q-42 -21 -95 -21q-56 0 -85.5 30.5t-29.5 82.5q0 75 54 142h-34z" />
<glyph unicode="&#x130;" horiz-adv-x="320" d="M160 1004q35 0 57.5 -20t22.5 -54t-22.5 -54t-57.5 -20t-57.5 20t-22.5 54t22.5 54t57.5 20zM100 0v780h120v-780h-120z" />
<glyph unicode="&#x131;" horiz-adv-x="300" d="M93 0v600h114v-600h-114z" />
<glyph unicode="&#x134;" horiz-adv-x="520" d="M165 867l180 148h30l180 -148l-34 -37l-161 97l-161 -97zM20 138l121 9q12 -80 84 -80q37 0 60.5 23t23.5 74v616h121v-616q0 -77 -55 -130t-150 -53q-91 0 -143.5 47t-61.5 110z" />
<glyph unicode="&#x135;" horiz-adv-x="310" d="M-35 717l180 148h30l180 -148l-34 -37l-161 97l-161 -97zM-5 -151q55 18 81.5 48.5t26.5 88.5v614h114v-621q0 -79 -52.5 -130t-133.5 -73z" />
<glyph unicode="&#x136;" horiz-adv-x="715" d="M366 -202q-11 -3 -24 -3q-29 0 -48 16.5t-19 44.5q0 32 20 53t55 21q44 0 64.5 -28t20.5 -66q0 -68 -37.5 -114t-87.5 -67l-28 37q29 12 52.5 39.5t31.5 66.5zM90 0v780h116v-372l328 372l134 -9v-6l-301 -315l343 -444v-6h-141l-278 369l-85 -88v-281h-116z" />
<glyph unicode="&#x137;" horiz-adv-x="605" d="M366 -202q-11 -3 -24 -3q-29 0 -48 16.5t-19 44.5q0 32 20 53t55 21q44 0 64.5 -28t20.5 -66q0 -68 -37.5 -114t-87.5 -67l-28 37q29 12 52.5 39.5t31.5 66.5zM95 0v810h108v-481l243 271l124 -7v-5l-237 -244l267 -339v-5h-130l-208 271l-59 -60v-211h-108z" />
<glyph unicode="&#x138;" horiz-adv-x="610" d="M95 0v600h108v-271l243 271l124 -7v-5l-237 -244l267 -339v-5h-130l-208 271l-59 -60v-211h-108z" />
<glyph unicode="&#x139;" horiz-adv-x="570" d="M315 978l-234 -133l-31 45l216 165zM90 0v780h122v-687h333v-93h-455z" />
<glyph unicode="&#x13a;" horiz-adv-x="315" d="M295 1008l-234 -133l-31 45l216 165zM90 128v682h113v-672q0 -39 24.5 -56t77.5 -22l-22 -74q-193 14 -193 142z" />
<glyph unicode="&#x13b;" horiz-adv-x="570" d="M326 -202q-11 -3 -24 -3q-29 0 -48 16.5t-19 44.5q0 32 20 53t55 21q44 0 64.5 -28t20.5 -66q0 -68 -37.5 -114t-87.5 -67l-28 37q29 12 52.5 39.5t31.5 66.5zM90 0v780h122v-687h333v-93h-455z" />
<glyph unicode="&#x13c;" horiz-adv-x="315" d="M196 -202q-10 -3 -24 -3q-29 0 -48 16.5t-19 44.5q0 32 20 53t55 21q44 0 64.5 -28t20.5 -66q0 -68 -37.5 -114t-87.5 -67l-28 37q29 12 52.5 39.5t31.5 66.5zM90 128v682h113v-672q0 -39 24.5 -56t77.5 -22l-22 -74q-193 14 -193 142z" />
<glyph unicode="&#x13d;" horiz-adv-x="570" d="M451 698q-10 -3 -24 -3q-29 0 -48 16.5t-19 44.5q0 32 20 53t55 21q44 0 64.5 -28t20.5 -66q0 -68 -37.5 -114t-87.5 -67l-28 37q29 12 52.5 39.5t31.5 66.5zM90 0v780h122v-687h333v-93h-455z" />
<glyph unicode="&#x13e;" horiz-adv-x="525" d="M436 698q-11 -3 -24 -3q-29 0 -48 16.5t-19 44.5q0 32 20 53t55 21q44 0 64.5 -28t20.5 -66q0 -68 -37.5 -114t-87.5 -67l-28 37q29 12 52.5 39.5t31.5 66.5zM90 128v682h113v-672q0 -39 24.5 -56t77.5 -22l-22 -74q-193 14 -193 142z" />
<glyph unicode="&#x13f;" horiz-adv-x="570" d="M435 434q35 0 57.5 -20t22.5 -54t-22.5 -54t-57.5 -20t-57.5 20t-22.5 54t22.5 54t57.5 20zM90 0v780h122v-687h333v-93h-455z" />
<glyph unicode="&#x140;" horiz-adv-x="510" d="M385 434q35 0 57.5 -20t22.5 -54t-22.5 -54t-57.5 -20t-57.5 20t-22.5 54t22.5 54t57.5 20zM90 128v682h113v-672q0 -39 24.5 -56t77.5 -22l-22 -74q-193 14 -193 142z" />
<glyph unicode="&#x141;" horiz-adv-x="580" d="M222 453l129 84l9 -72l-138 -90v-282h333v-93h-455v296l-81 -53l-9 72l90 59v406h122v-327z" />
<glyph unicode="&#x142;" horiz-adv-x="360" d="M213 447l138 90l9 -72l-147 -96v-231q0 -39 24.5 -56t77.5 -22l-22 -74q-193 14 -193 142v168l-81 -53l-9 72l90 59v436h113v-363z" />
<glyph unicode="&#x143;" horiz-adv-x="790" d="M550 978l-234 -133l-31 45l216 165zM90 0v769l103 11l390 -587v587h117v-780h-103l-390 587v-587h-117z" />
<glyph unicode="&#x144;" horiz-adv-x="655" d="M485 828l-234 -133l-31 45l216 165zM85 0v420l-10 174l103 9l16 -150q77 161 219 161q83 0 127.5 -57t44.5 -141v-416h-113v412q0 59 -25 85.5t-64 26.5q-67 0 -119.5 -69t-65.5 -156v-299h-113z" />
<glyph unicode="&#x145;" horiz-adv-x="790" d="M401 -202q-11 -3 -24 -3q-29 0 -48 16.5t-19 44.5q0 32 20 53t55 21q44 0 64.5 -28t20.5 -66q0 -68 -37.5 -114t-87.5 -67l-28 37q29 12 52.5 39.5t31.5 66.5zM90 0v769l103 11l390 -587v587h117v-780h-103l-390 587v-587h-117z" />
<glyph unicode="&#x146;" horiz-adv-x="655" d="M366 -202q-11 -3 -24 -3q-29 0 -48 16.5t-19 44.5q0 32 20 53t55 21q44 0 64.5 -28t20.5 -66q0 -68 -37.5 -114t-87.5 -67l-28 37q29 12 52.5 39.5t31.5 66.5zM85 0v420l-10 174l103 9l16 -150q77 161 219 161q83 0 127.5 -57t44.5 -141v-416h-113v412q0 59 -25 85.5 t-64 26.5q-67 0 -119.5 -69t-65.5 -156v-299h-113z" />
<glyph unicode="&#x147;" horiz-adv-x="790" d="M590 988l-180 -148h-30l-180 148l34 37l161 -97l161 97zM90 0v769l103 11l390 -587v587h117v-780h-103l-390 587v-587h-117z" />
<glyph unicode="&#x148;" horiz-adv-x="655" d="M525 838l-180 -148h-30l-180 148l34 37l161 -97l161 97zM85 0v420l-10 174l103 9l16 -150q77 161 219 161q83 0 127.5 -57t44.5 -141v-416h-113v412q0 59 -25 85.5t-64 26.5q-67 0 -119.5 -69t-65.5 -156v-299h-113z" />
<glyph unicode="&#x149;" horiz-adv-x="865" d="M295 0v420l-10 174l103 9l16 -150q77 161 219 161q83 0 127.5 -57t44.5 -141v-416h-113v412q0 59 -25 85.5t-64 26.5q-67 0 -119.5 -69t-65.5 -156v-299h-113zM25 808q0 34 22 56t58 22q48 0 71.5 -33t23.5 -81q0 -76 -40.5 -135t-99.5 -97l-35 47q83 53 97 151 q-12 -2 -20 -2q-33 0 -55 20t-22 52z" />
<glyph unicode="&#x14c;" horiz-adv-x="820" d="M215 894v72h390v-72h-390zM60 372v36q0 58 10 111t35 105t64 90t100.5 61.5t140.5 23.5t140.5 -23.5t100.5 -61.5t64 -90t35 -105t10 -111v-36q0 -58 -10 -111t-35 -105t-64 -90t-100.5 -61.5t-140.5 -23.5t-140.5 23.5t-100.5 61.5t-64 90t-35 105t-10 111zM410 71 q112 0 169.5 80t57.5 221v36q0 141 -57.5 221t-169.5 80t-169.5 -80t-57.5 -221v-36q0 -141 57.5 -221t169.5 -80z" />
<glyph unicode="&#x14d;" horiz-adv-x="660" d="M135 744v72h390v-72h-390zM55 286v28q0 56 13 106.5t42.5 97t86 74t133.5 27.5t133.5 -27.5t86 -74t42.5 -97t13 -106.5v-28q0 -56 -13 -106.5t-42.5 -97t-86 -74t-133.5 -27.5t-133.5 27.5t-86 74t-42.5 97t-13 106.5zM330 63q78 0 120 58.5t42 164.5v28 q0 106 -42 164.5t-120 58.5t-120 -58.5t-42 -164.5v-28q0 -106 42 -164.5t120 -58.5z" />
<glyph unicode="&#x14e;" horiz-adv-x="820" d="M215 987l70 23q27 -95 125 -95t125 95l70 -23q-17 -60 -64.5 -101t-130.5 -41t-130.5 41t-64.5 101zM60 372v36q0 58 10 111t35 105t64 90t100.5 61.5t140.5 23.5t140.5 -23.5t100.5 -61.5t64 -90t35 -105t10 -111v-36q0 -58 -10 -111t-35 -105t-64 -90t-100.5 -61.5 t-140.5 -23.5t-140.5 23.5t-100.5 61.5t-64 90t-35 105t-10 111zM410 71q112 0 169.5 80t57.5 221v36q0 141 -57.5 221t-169.5 80t-169.5 -80t-57.5 -221v-36q0 -141 57.5 -221t169.5 -80z" />
<glyph unicode="&#x14f;" horiz-adv-x="660" d="M135 837l70 23q27 -95 125 -95t125 95l70 -23q-17 -60 -64.5 -101t-130.5 -41t-130.5 41t-64.5 101zM55 286v28q0 56 13 106.5t42.5 97t86 74t133.5 27.5t133.5 -27.5t86 -74t42.5 -97t13 -106.5v-28q0 -56 -13 -106.5t-42.5 -97t-86 -74t-133.5 -27.5t-133.5 27.5 t-86 74t-42.5 97t-13 106.5zM330 63q78 0 120 58.5t42 164.5v28q0 106 -42 164.5t-120 58.5t-120 -58.5t-42 -164.5v-28q0 -106 42 -164.5t120 -58.5z" />
<glyph unicode="&#x150;" horiz-adv-x="820" d="M245 875l113 190l67 -48l-139 -172zM455 875l113 190l67 -48l-139 -172zM60 372v36q0 58 10 111t35 105t64 90t100.5 61.5t140.5 23.5t140.5 -23.5t100.5 -61.5t64 -90t35 -105t10 -111v-36q0 -58 -10 -111t-35 -105t-64 -90t-100.5 -61.5t-140.5 -23.5t-140.5 23.5 t-100.5 61.5t-64 90t-35 105t-10 111zM410 71q112 0 169.5 80t57.5 221v36q0 141 -57.5 221t-169.5 80t-169.5 -80t-57.5 -221v-36q0 -141 57.5 -221t169.5 -80z" />
<glyph unicode="&#x151;" horiz-adv-x="660" d="M165 725l113 190l67 -48l-139 -172zM375 725l113 190l67 -48l-139 -172zM55 286v28q0 56 13 106.5t42.5 97t86 74t133.5 27.5t133.5 -27.5t86 -74t42.5 -97t13 -106.5v-28q0 -56 -13 -106.5t-42.5 -97t-86 -74t-133.5 -27.5t-133.5 27.5t-86 74t-42.5 97t-13 106.5z M330 63q78 0 120 58.5t42 164.5v28q0 106 -42 164.5t-120 58.5t-120 -58.5t-42 -164.5v-28q0 -106 42 -164.5t120 -58.5z" />
<glyph unicode="&#x152;" horiz-adv-x="980" d="M60 372v36q0 58 10 111t35 105t64 90t100.5 61.5t140.5 23.5q76 0 130 -19h370v-93h-335v-259h299v-86h-299v-249h350v-93h-385q-54 -19 -130 -19q-79 0 -140.5 23.5t-100.5 61.5t-64 90t-35 105t-10 111zM455 705q-19 4 -45 4q-112 0 -169.5 -80t-57.5 -221v-36 q0 -141 57.5 -221t169.5 -80q26 0 45 4v630z" />
<glyph unicode="&#x153;" horiz-adv-x="960" d="M55 286v28q0 56 10.5 105t35.5 96.5t75 75.5t119 28q125 0 182 -96q63 96 187 96q116 0 178.5 -75.5t62.5 -183.5q0 -39 -8 -81h-375q2 -104 37.5 -161t104.5 -57q52 0 82.5 29.5t36.5 67.5l109 -10q-4 -26 -20 -53.5t-43 -53.5t-70 -43t-95 -17q-125 0 -188 95 q-56 -95 -181 -95q-69 0 -119 28t-75 75.5t-35.5 96.5t-10.5 105zM295 537q-60 0 -93.5 -58t-33.5 -165v-28q0 -107 33.5 -165t93.5 -58q58 0 90.5 58t32.5 165v28q0 107 -32.5 165t-90.5 58zM523 351h276v10q0 87 -36 132.5t-99 45.5q-60 0 -97 -49.5t-44 -138.5z" />
<glyph unicode="&#x154;" horiz-adv-x="730" d="M515 978l-234 -133l-31 45l216 165zM304 320q-66 2 -95 3v-323h-119v329v451q162 9 260 9q143 0 231.5 -62.5t88.5 -172.5q0 -93 -63.5 -152t-172.5 -76l266 -320v-6h-136zM209 410q64 -4 127 -4q215 0 215 148q0 78 -59 113.5t-156 35.5q-63 0 -127 -4v-289z" />
<glyph unicode="&#x155;" horiz-adv-x="435" d="M395 828l-234 -133l-31 45l216 165zM70 592l95 11l34 -138q48 149 165 149q38 0 71 -15l-43 -94q-22 12 -46 12q-52 0 -85 -58t-43 -141v-318h-113v435z" />
<glyph unicode="&#x156;" horiz-adv-x="730" d="M366 -202q-11 -3 -24 -3q-29 0 -48 16.5t-19 44.5q0 32 20 53t55 21q44 0 64.5 -28t20.5 -66q0 -68 -37.5 -114t-87.5 -67l-28 37q29 12 52.5 39.5t31.5 66.5zM304 320q-66 2 -95 3v-323h-119v329v451q162 9 260 9q143 0 231.5 -62.5t88.5 -172.5q0 -93 -63.5 -152 t-172.5 -76l266 -320v-6h-136zM209 410q64 -4 127 -4q215 0 215 148q0 78 -59 113.5t-156 35.5q-63 0 -127 -4v-289z" />
<glyph unicode="&#x157;" horiz-adv-x="435" d="M176 -202q-11 -3 -24 -3q-29 0 -48 16.5t-19 44.5q0 32 20 53t55 21q44 0 64.5 -28t20.5 -66q0 -68 -37.5 -114t-87.5 -67l-28 37q29 12 52.5 39.5t31.5 66.5zM70 592l95 11l34 -138q48 149 165 149q38 0 71 -15l-43 -94q-22 12 -46 12q-52 0 -85 -58t-43 -141v-318h-113 v435z" />
<glyph unicode="&#x158;" horiz-adv-x="730" d="M555 988l-180 -148h-30l-180 148l34 37l161 -97l161 97zM304 320q-66 2 -95 3v-323h-119v329v451q162 9 260 9q143 0 231.5 -62.5t88.5 -172.5q0 -93 -63.5 -152t-172.5 -76l266 -320v-6h-136zM209 410q64 -4 127 -4q215 0 215 148q0 78 -59 113.5t-156 35.5 q-63 0 -127 -4v-289z" />
<glyph unicode="&#x159;" horiz-adv-x="435" d="M435 838l-180 -148h-30l-180 148l34 37l161 -97l161 97zM70 592l95 11l34 -138q48 149 165 149q38 0 71 -15l-43 -94q-22 12 -46 12q-52 0 -85 -58t-43 -141v-318h-113v435z" />
<glyph unicode="&#x15a;" horiz-adv-x="710" d="M510 978l-234 -133l-31 45l216 165zM55 179l119 17q9 -50 56 -89t125 -39q89 0 136 35t47 97q0 89 -97 117q-112 32 -202 64q-67 25 -116.5 73.5t-49.5 124.5q0 96 78.5 158t203.5 62q121 0 193.5 -61.5t86.5 -132.5l-119 -17q-9 49 -52 86.5t-109 37.5q-75 0 -120 -35 t-45 -93q0 -42 26.5 -65t74.5 -41q52 -19 192 -62q72 -22 122 -73.5t50 -136.5q0 -98 -81.5 -161.5t-218.5 -63.5q-69 0 -126 19.5t-92 50t-55.5 63.5t-26.5 65z" />
<glyph unicode="&#x15b;" horiz-adv-x="570" d="M440 828l-234 -133l-31 45l216 165zM45 139l110 14q6 -37 41 -64.5t93 -27.5q61 0 94.5 26t33.5 69q0 63 -72 85q-111 32 -152 47q-132 49 -132 156q0 76 61.5 125.5t162.5 49.5q99 0 156.5 -48.5t67.5 -105.5l-110 -15q-6 37 -35 63t-79 26q-53 0 -84.5 -24.5 t-31.5 -66.5q0 -53 73 -78q32 -10 145 -44q138 -42 138 -166q0 -78 -65.5 -128.5t-174.5 -50.5q-107 0 -168 49.5t-72 108.5z" />
<glyph unicode="&#x15c;" horiz-adv-x="710" d="M160 867l180 148h30l180 -148l-34 -37l-161 97l-161 -97zM55 179l119 17q9 -50 56 -89t125 -39q89 0 136 35t47 97q0 89 -97 117q-112 32 -202 64q-67 25 -116.5 73.5t-49.5 124.5q0 96 78.5 158t203.5 62q121 0 193.5 -61.5t86.5 -132.5l-119 -17q-9 49 -52 86.5 t-109 37.5q-75 0 -120 -35t-45 -93q0 -42 26.5 -65t74.5 -41q52 -19 192 -62q72 -22 122 -73.5t50 -136.5q0 -98 -81.5 -161.5t-218.5 -63.5q-69 0 -126 19.5t-92 50t-55.5 63.5t-26.5 65z" />
<glyph unicode="&#x15d;" horiz-adv-x="570" d="M90 717l180 148h30l180 -148l-34 -37l-161 97l-161 -97zM45 139l110 14q6 -37 41 -64.5t93 -27.5q61 0 94.5 26t33.5 69q0 63 -72 85q-111 32 -152 47q-132 49 -132 156q0 76 61.5 125.5t162.5 49.5q99 0 156.5 -48.5t67.5 -105.5l-110 -15q-6 37 -35 63t-79 26 q-53 0 -84.5 -24.5t-31.5 -66.5q0 -53 73 -78q32 -10 145 -44q138 -42 138 -166q0 -78 -65.5 -128.5t-174.5 -50.5q-107 0 -168 49.5t-72 108.5z" />
<glyph unicode="&#x15e;" horiz-adv-x="710" d="M285 -278q147 36 147 103q0 38 -69 38q-17 0 -45 -5l-33 34l49 89q-64 3 -117 23t-85.5 50.5t-51.5 62t-25 62.5l119 17q9 -50 56 -89t125 -39q89 0 136 35t47 97q0 89 -97 117q-112 32 -202 64q-67 25 -116.5 73.5t-49.5 124.5q0 96 78.5 158t203.5 62 q121 0 193.5 -61.5t86.5 -132.5l-119 -17q-9 49 -52 86.5t-109 37.5q-75 0 -120 -35t-45 -93q0 -42 26.5 -65t74.5 -41q52 -19 192 -62q72 -22 122 -73.5t50 -136.5q0 -90 -68.5 -151.5t-187.5 -71.5l-38 -68h14q61 0 95.5 -23t34.5 -67q0 -25 -9 -46.5t-30 -38t-35 -26.5 t-46 -20.5t-38.5 -12.5t-36.5 -9q-2 -1 -3.5 -1.5t-3.5 -0.5z" />
<glyph unicode="&#x15f;" horiz-adv-x="570" d="M215 -278q147 36 147 103q0 38 -69 38q-17 0 -45 -5l-33 34l50 90q-51 3 -92.5 19t-67.5 39.5t-41 48.5t-19 50l110 14q6 -37 41 -64.5t93 -27.5q61 0 94.5 26t33.5 69q0 63 -72 85q-111 32 -152 47q-132 49 -132 156q0 76 61.5 125.5t162.5 49.5q99 0 156.5 -48.5 t67.5 -105.5l-110 -15q-6 37 -35 63t-79 26q-53 0 -84.5 -24.5t-31.5 -66.5q0 -53 73 -78q32 -10 145 -44q138 -42 138 -166q0 -69 -52.5 -118t-143.5 -59l-38 -68h14q61 0 95.5 -23t34.5 -67q0 -25 -9 -46.5t-30 -38t-35 -26.5t-46 -20.5t-38.5 -12.5t-36.5 -9q-5 -1 -7 -2 z" />
<glyph unicode="&#x160;" horiz-adv-x="710" d="M550 988l-180 -148h-30l-180 148l34 37l161 -97l161 97zM55 179l119 17q9 -50 56 -89t125 -39q89 0 136 35t47 97q0 89 -97 117q-112 32 -202 64q-67 25 -116.5 73.5t-49.5 124.5q0 96 78.5 158t203.5 62q121 0 193.5 -61.5t86.5 -132.5l-119 -17q-9 49 -52 86.5 t-109 37.5q-75 0 -120 -35t-45 -93q0 -42 26.5 -65t74.5 -41q52 -19 192 -62q72 -22 122 -73.5t50 -136.5q0 -98 -81.5 -161.5t-218.5 -63.5q-69 0 -126 19.5t-92 50t-55.5 63.5t-26.5 65z" />
<glyph unicode="&#x161;" horiz-adv-x="570" d="M480 838l-180 -148h-30l-180 148l34 37l161 -97l161 97zM45 139l110 14q6 -37 41 -64.5t93 -27.5q61 0 94.5 26t33.5 69q0 63 -72 85q-111 32 -152 47q-132 49 -132 156q0 76 61.5 125.5t162.5 49.5q99 0 156.5 -48.5t67.5 -105.5l-110 -15q-6 37 -35 63t-79 26 q-53 0 -84.5 -24.5t-31.5 -66.5q0 -53 73 -78q32 -10 145 -44q138 -42 138 -166q0 -78 -65.5 -128.5t-174.5 -50.5q-107 0 -168 49.5t-72 108.5z" />
<glyph unicode="&#x162;" horiz-adv-x="620" d="M225 -278q147 36 147 103q0 38 -69 38q-17 0 -45 -5l-33 34l60 108h-35v691h-220v89h560v-89h-220v-691h-21l-48 -85h14q61 0 95.5 -23t34.5 -67q0 -25 -9 -46.5t-30 -38t-35 -26.5t-46 -20.5t-38.5 -12.5t-36.5 -9q-5 -1 -7 -2z" />
<glyph unicode="&#x163;" horiz-adv-x="415" d="M175 -278q147 36 147 103q0 38 -69 38q-17 0 -45 -5l-33 34l54 98q-109 20 -109 138v400h-90v72h94v126l107 9v-135h149v-72h-147v-384q0 -44 13 -60.5t42 -16.5q58 0 95 25l27 -74q-52 -28 -119 -32l-40 -71h14q61 0 95.5 -23t34.5 -67q0 -25 -9 -46.5t-30 -38 t-35 -26.5t-46 -20.5t-38.5 -12.5t-36.5 -9q-5 -1 -7 -2z" />
<glyph unicode="&#x164;" horiz-adv-x="620" d="M505 988l-180 -148h-30l-180 148l34 37l161 -97l161 97zM30 691v89h560v-89h-220v-691h-120v691h-220z" />
<glyph unicode="&#x165;" horiz-adv-x="625" d="M536 698q-11 -3 -24 -3q-29 0 -48 16.5t-19 44.5q0 32 20 53t55 21q44 0 64.5 -28t20.5 -66q0 -68 -37.5 -114t-87.5 -67l-28 37q29 12 52.5 39.5t31.5 66.5zM30 528v72h94v126l107 9v-135h149v-72h-147v-384q0 -44 13 -60.5t42 -16.5q58 0 95 25l27 -74 q-58 -32 -136 -32q-154 0 -154 142v400h-90z" />
<glyph unicode="&#x168;" horiz-adv-x="770" d="M190 888q10 26 19 43.5t23 37.5t33.5 30.5t43.5 10.5t47 -10.5t31 -17t27 -23.5l11 -11t11 -10.5t9 -7.5t9.5 -6t9.5 -2q28 0 58 81l58 -21q-9 -25 -18.5 -43.5t-23.5 -38t-33.5 -30t-43.5 -10.5t-47 10.5t-31 17t-27 23.5l-11 11t-11 10.5t-9 7.5t-9.5 6t-9.5 2 q-7 0 -14 -4.5t-12 -10.5t-10.5 -17l-8.5 -17t-7.5 -18t-5.5 -14zM80 240v540h122v-540q0 -82 50 -125.5t133 -43.5t133 43.5t50 125.5v540h122v-540q0 -112 -84 -185t-221 -73t-221 73t-84 185z" />
<glyph unicode="&#x169;" horiz-adv-x="620" d="M115 738q10 26 19 43.5t23 37.5t33.5 30.5t43.5 10.5t47 -10.5t31 -17t27 -23.5l11 -11t11 -10.5t9 -7.5t9.5 -6t9.5 -2q28 0 58 81l58 -21q-9 -25 -18.5 -43.5t-23.5 -38t-33.5 -30t-43.5 -10.5t-47 10.5t-31 17t-27 23.5l-11 11t-11 10.5t-9 7.5t-9.5 6t-9.5 2 q-7 0 -14 -4.5t-12 -10.5t-10.5 -17l-8.5 -17t-7.5 -18t-5.5 -14zM65 187v413h113v-413q0 -62 36.5 -93t95.5 -31t95.5 31t36.5 93v413h113v-413q0 -88 -67 -147t-178 -59t-178 59t-67 147z" />
<glyph unicode="&#x16a;" horiz-adv-x="770" d="M190 894v72h390v-72h-390zM80 240v540h122v-540q0 -82 50 -125.5t133 -43.5t133 43.5t50 125.5v540h122v-540q0 -112 -84 -185t-221 -73t-221 73t-84 185z" />
<glyph unicode="&#x16b;" horiz-adv-x="620" d="M115 744v72h390v-72h-390zM65 187v413h113v-413q0 -62 36.5 -93t95.5 -31t95.5 31t36.5 93v413h113v-413q0 -88 -67 -147t-178 -59t-178 59t-67 147z" />
<glyph unicode="&#x16c;" horiz-adv-x="770" d="M190 987l70 23q27 -95 125 -95t125 95l70 -23q-17 -60 -64.5 -101t-130.5 -41t-130.5 41t-64.5 101zM80 240v540h122v-540q0 -82 50 -125.5t133 -43.5t133 43.5t50 125.5v540h122v-540q0 -112 -84 -185t-221 -73t-221 73t-84 185z" />
<glyph unicode="&#x16d;" horiz-adv-x="620" d="M115 837l70 23q27 -95 125 -95t125 95l70 -23q-17 -60 -64.5 -101t-130.5 -41t-130.5 41t-64.5 101zM65 187v413h113v-413q0 -62 36.5 -93t95.5 -31t95.5 31t36.5 93v413h113v-413q0 -88 -67 -147t-178 -59t-178 59t-67 147z" />
<glyph unicode="&#x16e;" horiz-adv-x="770" d="M385 803q-52 0 -86 31t-34 81t34 81t86 31t86 -31t34 -81t-34 -81t-86 -31zM385 855q27 0 44 16.5t17 43.5t-17 43.5t-44 16.5t-44 -16.5t-17 -43.5t17 -43.5t44 -16.5zM80 240v540h122v-540q0 -82 50 -125.5t133 -43.5t133 43.5t50 125.5v540h122v-540q0 -112 -84 -185 t-221 -73t-221 73t-84 185z" />
<glyph unicode="&#x16f;" horiz-adv-x="620" d="M310 653q-52 0 -86 31t-34 81t34 81t86 31t86 -31t34 -81t-34 -81t-86 -31zM310 705q28 0 44.5 16.5t16.5 43.5t-16.5 43.5t-44.5 16.5t-44.5 -16.5t-16.5 -43.5t16.5 -43.5t44.5 -16.5zM65 187v413h113v-413q0 -62 36.5 -93t95.5 -31t95.5 31t36.5 93v413h113v-413 q0 -88 -67 -147t-178 -59t-178 59t-67 147z" />
<glyph unicode="&#x170;" horiz-adv-x="770" d="M220 875l113 190l67 -48l-139 -172zM430 875l113 190l67 -48l-139 -172zM80 240v540h122v-540q0 -82 50 -125.5t133 -43.5t133 43.5t50 125.5v540h122v-540q0 -112 -84 -185t-221 -73t-221 73t-84 185z" />
<glyph unicode="&#x171;" horiz-adv-x="620" d="M145 725l113 190l67 -48l-139 -172zM355 725l113 190l67 -48l-139 -172zM65 187v413h113v-413q0 -62 36.5 -93t95.5 -31t95.5 31t36.5 93v413h113v-413q0 -88 -67 -147t-178 -59t-178 59t-67 147z" />
<glyph unicode="&#x172;" horiz-adv-x="770" d="M80 240v540h122v-540q0 -82 50 -125.5t133 -43.5t133 43.5t50 125.5v540h122v-540q0 -80 -44 -142t-122 -92q-53 -61 -53 -138q0 -64 55 -64q36 0 63 16l19 -54q-42 -21 -95 -21q-56 0 -85.5 30.5t-29.5 82.5q0 67 43 128q-36 -4 -56 -4q-137 0 -221 73t-84 185z" />
<glyph unicode="&#x173;" horiz-adv-x="620" d="M65 187v413h113v-413q0 -62 36.5 -93t95.5 -31t95.5 31t36.5 93v413h113v-413q0 -64 -36.5 -114t-101.5 -74q-46 -55 -46 -131q0 -64 55 -64q36 0 63 16l19 -54q-42 -21 -95 -21q-56 0 -85.5 30.5t-29.5 82.5q0 65 41 124q-9 -1 -29 -1q-111 0 -178 59t-67 147z" />
<glyph unicode="&#x174;" horiz-adv-x="1060" d="M335 867l180 148h30l180 -148l-34 -37l-161 97l-161 -97zM1035 761l-228 -761h-104l-173 590l-173 -590h-104l-228 761v8l131 11l158 -612l166 592h100l166 -592l158 612l131 -11v-8z" />
<glyph unicode="&#x175;" horiz-adv-x="830" d="M220 717l180 148h30l180 -148l-34 -37l-161 97l-161 -97zM810 585l-175 -585h-97l-123 428l-123 -428h-97l-175 585v6l121 9l111 -441l118 426h90l118 -426l111 441l121 -9v-6z" />
<glyph unicode="&#x176;" horiz-adv-x="670" d="M140 867l180 148h30l180 -148l-34 -37l-161 97l-161 -97zM10 761v8l135 11l190 -368l190 368l135 -11v-8l-265 -466v-295h-120v295z" />
<glyph unicode="&#x177;" horiz-adv-x="600" d="M105 717l180 148h30l180 -148l-34 -37l-161 97l-161 -97zM15 585v6l123 9l162 -468l162 468l123 -9v-6l-245 -609q-1 -2 -12.5 -27.5t-13.5 -30t-13.5 -27t-16 -28.5t-16.5 -24t-20 -23.5t-21.5 -17t-25.5 -15.5t-28.5 -8t-33.5 -4q-61 0 -114 42l55 68q35 -31 55 -31 q31 0 55.5 35t57.5 112l4 9z" />
<glyph unicode="&#x178;" horiz-adv-x="670" d="M140 930q0 31 21 49.5t53 18.5t53 -18.5t21 -49.5t-21 -49.5t-53 -18.5t-53 18.5t-21 49.5zM383 930q0 31 21 49.5t53 18.5t52.5 -18.5t20.5 -49.5t-20.5 -49.5t-52.5 -18.5t-53 18.5t-21 49.5zM10 761v8l135 11l190 -368l190 368l135 -11v-8l-265 -466v-295h-120v295z " />
<glyph unicode="&#x179;" horiz-adv-x="670" d="M490 978l-234 -133l-31 45l216 165zM35 69l429 618h-403v93h555l9 -69l-428 -618h438v-93h-591z" />
<glyph unicode="&#x17a;" horiz-adv-x="530" d="M420 828l-234 -133l-31 45l216 165zM30 57l315 464h-293v79h435l7 -57l-315 -464h321v-79h-463z" />
<glyph unicode="&#x17b;" horiz-adv-x="670" d="M335 1004q35 0 57.5 -20t22.5 -54t-22.5 -54t-57.5 -20t-57.5 20t-22.5 54t22.5 54t57.5 20zM35 69l429 618h-403v93h555l9 -69l-428 -618h438v-93h-591z" />
<glyph unicode="&#x17c;" horiz-adv-x="530" d="M265 854q35 0 57.5 -20t22.5 -54t-22.5 -54t-57.5 -20t-57.5 20t-22.5 54t22.5 54t57.5 20zM30 57l315 464h-293v79h435l7 -57l-315 -464h321v-79h-463z" />
<glyph unicode="&#x17d;" horiz-adv-x="670" d="M530 988l-180 -148h-30l-180 148l34 37l161 -97l161 97zM35 69l429 618h-403v93h555l9 -69l-428 -618h438v-93h-591z" />
<glyph unicode="&#x17e;" horiz-adv-x="530" d="M460 838l-180 -148h-30l-180 148l34 37l161 -97l161 97zM30 57l315 464h-293v79h435l7 -57l-315 -464h321v-79h-463z" />
<glyph unicode="&#x18f;" horiz-adv-x="780" d="M720 408v-36q0 -58 -10 -110.5t-34.5 -105t-62.5 -90.5t-99.5 -61.5t-138.5 -23.5q-107 0 -182 47t-109 119.5t-34 162.5q0 44 12 104h541q-2 139 -59.5 218.5t-168.5 79.5q-77 0 -125.5 -42t-57.5 -93l-119 12q6 33 26.5 67.5t55.5 67.5t92.5 54t127.5 21 q77 0 138.5 -23.5t99.5 -61.5t62.5 -90.5t34.5 -105t10 -110.5zM602 336h-434q-1 -9 -1 -26q0 -117 55.5 -180t152.5 -63q105 0 162.5 71.5t64.5 197.5z" />
<glyph unicode="&#x192;" horiz-adv-x="400" d="M30 528v72h90v77q0 24 8 49t25.5 49t51 39t78.5 15q83 0 142 -46l-48 -61q-40 28 -86 28q-29 0 -45 -20t-16 -53v-77h150v-72h-147v-549q0 -79 -52.5 -130t-133.5 -73l-36 73q55 18 82 48.5t27 88.5v542h-90z" />
<glyph unicode="&#x1a0;" horiz-adv-x="820" d="M60 372v36q0 58 10 111t35 105t64 90t100.5 61.5t140.5 23.5q138 0 225 -72q45 28 45 83q0 36 -25 63l69 40q36 -38 36 -99q0 -82 -86 -125q86 -105 86 -281v-36q0 -58 -10 -111t-35 -105t-64 -90t-100.5 -61.5t-140.5 -23.5t-140.5 23.5t-100.5 61.5t-64 90t-35 105 t-10 111zM410 71q112 0 169.5 80t57.5 221v36q0 141 -57.5 221t-169.5 80t-169.5 -80t-57.5 -221v-36q0 -141 57.5 -221t169.5 -80z" />
<glyph unicode="&#x1a1;" horiz-adv-x="660" d="M55 286v28q0 56 13 106.5t42.5 97t86 74t133.5 27.5q120 0 189 -66q36 27 36 77q0 36 -25 63l69 40q36 -38 36 -99q0 -81 -81 -123q51 -78 51 -197v-28q0 -56 -13 -106.5t-42.5 -97t-86 -74t-133.5 -27.5t-133.5 27.5t-86 74t-42.5 97t-13 106.5zM330 63q78 0 120 58.5 t42 164.5v28q0 106 -42 164.5t-120 58.5t-120 -58.5t-42 -164.5v-28q0 -106 42 -164.5t120 -58.5z" />
<glyph unicode="&#x1af;" horiz-adv-x="780" d="M80 239v541h122v-541q0 -82 50 -125.5t133 -43.5t133 43.5t50 125.5v501h22l49 -11q41 27 41 81q0 36 -25 63l69 40q36 -38 36 -99q0 -75 -70 -117v-458q0 -112 -84 -185t-221 -73t-221 73t-84 185z" />
<glyph unicode="&#x1b0;" horiz-adv-x="635" d="M65 187v413h113v-413q0 -62 36.5 -93t95.5 -31t95.5 31t36.5 93v373h21l42 -10q40 26 40 80q0 36 -25 63l69 40q36 -38 36 -99q0 -75 -70 -117v-330q0 -88 -67 -147t-178 -59t-178 59t-67 147z" />
<glyph unicode="&#x1cd;" horiz-adv-x="750" d="M570 988l-180 -148h-30l-180 148l34 37l161 -97l161 97zM735 0h-136l-59 167h-330l-59 -167h-136v8l310 772h100l310 -772v-8zM510 253l-135 385l-135 -385h270z" />
<glyph unicode="&#x1ce;" horiz-adv-x="625" d="M505 838l-180 -148h-30l-180 148l34 37l161 -97l161 97zM55 173q0 62 51 106t146 44q80 0 178 -10v106q0 60 -35.5 89t-94.5 29q-52 0 -86 -29.5t-41 -83.5l-113 9q11 77 72.5 131.5t167.5 54.5q109 0 174.5 -56t65.5 -144v-276q0 -43 13.5 -61t51.5 -22l-28 -74 q-101 12 -124 89q-64 -89 -180 -89q-101 0 -159.5 50.5t-58.5 136.5zM436 245q-88 12 -178 12q-39 0 -66 -22.5t-27 -63.5q0 -58 35 -87t87 -29q67 0 102.5 44.5t46.5 110.5v35z" />
<glyph unicode="&#x1cf;" horiz-adv-x="320" d="M355 988l-180 -148h-30l-180 148l34 37l161 -97l161 97zM100 0v780h120v-780h-120z" />
<glyph unicode="&#x1d0;" horiz-adv-x="300" d="M345 838l-180 -148h-30l-180 148l34 37l161 -97l161 97zM93 0v600h114v-600h-114z" />
<glyph unicode="&#x1d1;" horiz-adv-x="820" d="M605 988l-180 -148h-30l-180 148l34 37l161 -97l161 97zM60 372v36q0 58 10 111t35 105t64 90t100.5 61.5t140.5 23.5t140.5 -23.5t100.5 -61.5t64 -90t35 -105t10 -111v-36q0 -58 -10 -111t-35 -105t-64 -90t-100.5 -61.5t-140.5 -23.5t-140.5 23.5t-100.5 61.5t-64 90 t-35 105t-10 111zM410 71q112 0 169.5 80t57.5 221v36q0 141 -57.5 221t-169.5 80t-169.5 -80t-57.5 -221v-36q0 -141 57.5 -221t169.5 -80z" />
<glyph unicode="&#x1d2;" horiz-adv-x="660" d="M525 838l-180 -148h-30l-180 148l34 37l161 -97l161 97zM55 286v28q0 56 13 106.5t42.5 97t86 74t133.5 27.5t133.5 -27.5t86 -74t42.5 -97t13 -106.5v-28q0 -56 -13 -106.5t-42.5 -97t-86 -74t-133.5 -27.5t-133.5 27.5t-86 74t-42.5 97t-13 106.5zM330 63 q78 0 120 58.5t42 164.5v28q0 106 -42 164.5t-120 58.5t-120 -58.5t-42 -164.5v-28q0 -106 42 -164.5t120 -58.5z" />
<glyph unicode="&#x1d3;" horiz-adv-x="770" d="M580 988l-180 -148h-30l-180 148l34 37l161 -97l161 97zM80 240v540h122v-540q0 -82 50 -125.5t133 -43.5t133 43.5t50 125.5v540h122v-540q0 -112 -84 -185t-221 -73t-221 73t-84 185z" />
<glyph unicode="&#x1d4;" horiz-adv-x="620" d="M505 838l-180 -148h-30l-180 148l34 37l161 -97l161 97zM65 187v413h113v-413q0 -62 36.5 -93t95.5 -31t95.5 31t36.5 93v413h113v-413q0 -88 -67 -147t-178 -59t-178 59t-67 147z" />
<glyph unicode="&#x1d5;" horiz-adv-x="770" d="M190 1074v72h390v-72h-390zM190 930q0 31 21 49.5t53 18.5t53 -18.5t21 -49.5t-21 -49.5t-53 -18.5t-53 18.5t-21 49.5zM433 930q0 31 21 49.5t53 18.5t52.5 -18.5t20.5 -49.5t-20.5 -49.5t-52.5 -18.5t-53 18.5t-21 49.5zM80 240v540h122v-540q0 -82 50 -125.5 t133 -43.5t133 43.5t50 125.5v540h122v-540q0 -112 -84 -185t-221 -73t-221 73t-84 185z" />
<glyph unicode="&#x1d6;" horiz-adv-x="620" d="M115 924v72h390v-72h-390zM115 780q0 31 21 49.5t53 18.5t53 -18.5t21 -49.5t-21 -49.5t-53 -18.5t-53 18.5t-21 49.5zM358 780q0 31 21 49.5t53 18.5t52.5 -18.5t20.5 -49.5t-20.5 -49.5t-52.5 -18.5t-53 18.5t-21 49.5zM65 187v413h113v-413q0 -62 36.5 -93t95.5 -31 t95.5 31t36.5 93v413h113v-413q0 -88 -67 -147t-178 -59t-178 59t-67 147z" />
<glyph unicode="&#x1d7;" horiz-adv-x="770" d="M540 1158l-234 -133l-31 45l216 165zM190 930q0 31 21 49.5t53 18.5t53 -18.5t21 -49.5t-21 -49.5t-53 -18.5t-53 18.5t-21 49.5zM433 930q0 31 21 49.5t53 18.5t52.5 -18.5t20.5 -49.5t-20.5 -49.5t-52.5 -18.5t-53 18.5t-21 49.5zM80 240v540h122v-540q0 -82 50 -125.5 t133 -43.5t133 43.5t50 125.5v540h122v-540q0 -112 -84 -185t-221 -73t-221 73t-84 185z" />
<glyph unicode="&#x1d8;" horiz-adv-x="620" d="M465 1008l-234 -133l-31 45l216 165zM115 780q0 31 21 49.5t53 18.5t53 -18.5t21 -49.5t-21 -49.5t-53 -18.5t-53 18.5t-21 49.5zM358 780q0 31 21 49.5t53 18.5t52.5 -18.5t20.5 -49.5t-20.5 -49.5t-52.5 -18.5t-53 18.5t-21 49.5zM65 187v413h113v-413q0 -62 36.5 -93 t95.5 -31t95.5 31t36.5 93v413h113v-413q0 -88 -67 -147t-178 -59t-178 59t-67 147z" />
<glyph unicode="&#x1d9;" horiz-adv-x="770" d="M580 1168l-180 -148h-30l-180 148l34 37l161 -97l161 97zM190 930q0 31 21 49.5t53 18.5t53 -18.5t21 -49.5t-21 -49.5t-53 -18.5t-53 18.5t-21 49.5zM433 930q0 31 21 49.5t53 18.5t52.5 -18.5t20.5 -49.5t-20.5 -49.5t-52.5 -18.5t-53 18.5t-21 49.5zM80 240v540h122 v-540q0 -82 50 -125.5t133 -43.5t133 43.5t50 125.5v540h122v-540q0 -112 -84 -185t-221 -73t-221 73t-84 185z" />
<glyph unicode="&#x1da;" horiz-adv-x="620" d="M505 1018l-180 -148h-30l-180 148l34 37l161 -97l161 97zM115 780q0 31 21 49.5t53 18.5t53 -18.5t21 -49.5t-21 -49.5t-53 -18.5t-53 18.5t-21 49.5zM358 780q0 31 21 49.5t53 18.5t52.5 -18.5t20.5 -49.5t-20.5 -49.5t-52.5 -18.5t-53 18.5t-21 49.5zM65 187v413h113 v-413q0 -62 36.5 -93t95.5 -31t95.5 31t36.5 93v413h113v-413q0 -88 -67 -147t-178 -59t-178 59t-67 147z" />
<glyph unicode="&#x1db;" horiz-adv-x="770" d="M230 1158l49 77l216 -165l-31 -45zM190 930q0 31 21 49.5t53 18.5t53 -18.5t21 -49.5t-21 -49.5t-53 -18.5t-53 18.5t-21 49.5zM433 930q0 31 21 49.5t53 18.5t52.5 -18.5t20.5 -49.5t-20.5 -49.5t-52.5 -18.5t-53 18.5t-21 49.5zM80 240v540h122v-540q0 -82 50 -125.5 t133 -43.5t133 43.5t50 125.5v540h122v-540q0 -112 -84 -185t-221 -73t-221 73t-84 185z" />
<glyph unicode="&#x1dc;" horiz-adv-x="620" d="M155 1008l49 77l216 -165l-31 -45zM115 780q0 31 21 49.5t53 18.5t53 -18.5t21 -49.5t-21 -49.5t-53 -18.5t-53 18.5t-21 49.5zM358 780q0 31 21 49.5t53 18.5t52.5 -18.5t20.5 -49.5t-20.5 -49.5t-52.5 -18.5t-53 18.5t-21 49.5zM65 187v413h113v-413q0 -62 36.5 -93 t95.5 -31t95.5 31t36.5 93v413h113v-413q0 -88 -67 -147t-178 -59t-178 59t-67 147z" />
<glyph unicode="&#x1e6;" horiz-adv-x="770" d="M605 988l-180 -148h-30l-180 148l34 37l161 -97l161 97zM419 302v86h291v-251q-31 -61 -106 -108.5t-192 -47.5q-79 0 -141 23.5t-101 61.5t-64.5 90.5t-35.5 106t-10 111.5v32q0 58 10 111.5t35.5 106t64.5 90.5t101 61.5t141 23.5q71 0 129 -21t93 -54t55 -67.5 t26 -67.5l-122 -12q-10 50 -57 91t-124 41q-113 0 -171 -80t-58 -223v-32q0 -143 58 -223t171 -80q131 0 188 80v151h-181z" />
<glyph unicode="&#x1e7;" horiz-adv-x="670" d="M555 838l-180 -148h-30l-180 148l34 37l161 -97l161 97zM55 315q0 42 8 82.5t27 80t47 69.5t72 48.5t98 18.5q110 0 178 -108l9 94h96v-626q0 -89 -66.5 -146t-175.5 -57q-98 0 -160.5 37t-77.5 78l105 29q8 -23 42.5 -44.5t90.5 -21.5q63 0 99.5 31.5t36.5 93.5v148 q-68 -106 -177 -106q-54 0 -98 18.5t-72 48.5t-47 69.5t-27 80t-8 82.5zM480 372q-17 68 -57 113.5t-103 45.5q-73 0 -112.5 -57t-39.5 -159t39.5 -159t112.5 -57q63 0 103 45.5t57 113.5v114z" />
<glyph unicode="&#x1ea;" horiz-adv-x="820" d="M410 71q112 0 169.5 80t57.5 221v36q0 141 -57.5 221t-169.5 80t-169.5 -80t-57.5 -221v-36q0 -141 57.5 -221t169.5 -80zM60 372v36q0 58 10 111t35 105t64 90t100.5 61.5t140.5 23.5t140.5 -23.5t100.5 -61.5t64 -90t35 -105t10 -111v-36q0 -63 -12.5 -120t-39.5 -111 t-77.5 -93t-118.5 -56q-41 -53 -41 -124q0 -64 55 -64q36 0 63 16l19 -54q-42 -21 -95 -21q-56 0 -85.5 30.5t-29.5 82.5q0 67 40 124q-9 -1 -28 -1q-79 0 -140.5 23.5t-100.5 61.5t-64 90t-35 105t-10 111z" />
<glyph unicode="&#x1eb;" horiz-adv-x="660" d="M330 63q78 0 120 58.5t42 164.5v28q0 106 -42 164.5t-120 58.5t-120 -58.5t-42 -164.5v-28q0 -106 42 -164.5t120 -58.5zM55 286v28q0 56 13 106.5t42.5 97t86 74t133.5 27.5t133.5 -27.5t86 -74t42.5 -97t13 -106.5v-28q0 -62 -14 -115.5t-53.5 -103t-101.5 -70.5 q-45 -56 -45 -129q0 -64 55 -64q36 0 63 16l19 -54q-42 -21 -95 -21q-56 0 -85.5 30.5t-29.5 82.5q0 67 40 124q-9 -1 -28 -1q-77 0 -133.5 27.5t-86 74t-42.5 97t-13 106.5z" />
<glyph unicode="&#x218;" horiz-adv-x="710" d="M361 -202q-11 -3 -24 -3q-29 0 -48 16.5t-19 44.5q0 32 20 53t55 21q44 0 64.5 -28t20.5 -66q0 -68 -37.5 -114t-87.5 -67l-28 37q29 12 52.5 39.5t31.5 66.5zM55 179l119 17q9 -50 56 -89t125 -39q89 0 136 35t47 97q0 89 -97 117q-112 32 -202 64q-67 25 -116.5 73.5 t-49.5 124.5q0 96 78.5 158t203.5 62q121 0 193.5 -61.5t86.5 -132.5l-119 -17q-9 49 -52 86.5t-109 37.5q-75 0 -120 -35t-45 -93q0 -42 26.5 -65t74.5 -41q52 -19 192 -62q72 -22 122 -73.5t50 -136.5q0 -98 -81.5 -161.5t-218.5 -63.5q-69 0 -126 19.5t-92 50t-55.5 63.5 t-26.5 65z" />
<glyph unicode="&#x219;" horiz-adv-x="570" d="M291 -202q-11 -3 -24 -3q-29 0 -48 16.5t-19 44.5q0 32 20 53t55 21q44 0 64.5 -28t20.5 -66q0 -68 -37.5 -114t-87.5 -67l-28 37q29 12 52.5 39.5t31.5 66.5zM45 139l110 14q6 -37 41 -64.5t93 -27.5q61 0 94.5 26t33.5 69q0 63 -72 85q-111 32 -152 47 q-132 49 -132 156q0 76 61.5 125.5t162.5 49.5q99 0 156.5 -48.5t67.5 -105.5l-110 -15q-6 37 -35 63t-79 26q-53 0 -84.5 -24.5t-31.5 -66.5q0 -53 73 -78q32 -10 145 -44q138 -42 138 -166q0 -78 -65.5 -128.5t-174.5 -50.5q-107 0 -168 49.5t-72 108.5z" />
<glyph unicode="&#x21a;" horiz-adv-x="620" d="M316 -202q-10 -3 -24 -3q-29 0 -48 16.5t-19 44.5q0 32 20 53t55 21q44 0 64.5 -28t20.5 -66q0 -68 -37.5 -114t-87.5 -67l-28 37q29 12 52.5 39.5t31.5 66.5zM30 691v89h560v-89h-220v-691h-120v691h-220z" />
<glyph unicode="&#x21b;" horiz-adv-x="415" d="M286 -202q-10 -3 -24 -3q-29 0 -48 16.5t-19 44.5q0 32 20 53t55 21q44 0 64.5 -28t20.5 -66q0 -68 -37.5 -114t-87.5 -67l-28 37q29 12 52.5 39.5t31.5 66.5zM30 528v72h94v126l107 9v-135h149v-72h-147v-384q0 -44 13 -60.5t42 -16.5q58 0 95 25l27 -74 q-58 -32 -136 -32q-154 0 -154 142v400h-90z" />
<glyph unicode="&#x237;" horiz-adv-x="310" d="M-5 -151q55 18 81.5 48.5t26.5 88.5v614h114v-621q0 -79 -52.5 -130t-133.5 -73z" />
<glyph unicode="&#x251;" horiz-adv-x="675" d="M55 289v22q0 55 13.5 106t41.5 96.5t79 73t118 27.5q112 0 178 -106l9 92h96v-457q0 -43 13.5 -61t51.5 -22l-28 -74q-123 15 -130 124q-71 -124 -190 -124q-67 0 -118 27.5t-79 73t-41.5 96.5t-13.5 106zM480 374q-17 68 -57 112.5t-103 44.5q-73 0 -112.5 -57 t-39.5 -163v-22q0 -106 39.5 -163t112.5 -57q63 0 103 44.5t57 112.5v148z" />
<glyph unicode="&#x259;" horiz-adv-x="640" d="M585 314v-28q0 -56 -13.5 -106.5t-43 -97t-85 -74t-130.5 -27.5q-123 0 -190.5 76t-67.5 183q0 38 8 81h411q-2 103 -43.5 160.5t-117.5 57.5q-55 0 -90.5 -30t-41.5 -67l-109 10q10 60 72 113.5t169 53.5q77 0 132.5 -27.5t84.5 -74t42 -96.5t13 -107zM473 249h-312v-10 q0 -87 41.5 -132.5t110.5 -45.5q70 0 111.5 49.5t48.5 138.5z" />
<glyph unicode="&#x261;" horiz-adv-x="670" d="M55 315q0 42 8 82.5t27 80t47 69.5t72 48.5t98 18.5q110 0 178 -108l9 94h96v-626q0 -89 -66.5 -146t-175.5 -57q-98 0 -160.5 37t-77.5 78l105 29q8 -23 42.5 -44.5t90.5 -21.5q63 0 99.5 31.5t36.5 93.5v148q-68 -106 -177 -106q-54 0 -98 18.5t-72 48.5t-47 69.5 t-27 80t-8 82.5zM480 372q-17 68 -57 113.5t-103 45.5q-73 0 -112.5 -57t-39.5 -159t39.5 -159t112.5 -57q63 0 103 45.5t57 113.5v114z" />
<glyph unicode="&#x2bb;" horiz-adv-x="240" d="M200 642q0 -34 -22 -56t-58 -22q-48 0 -71.5 33t-23.5 81q0 76 40.5 135t99.5 97l35 -47q-83 -53 -97 -151q12 2 20 2q33 0 55 -20t22 -52z" />
<glyph unicode="&#x2bc;" horiz-adv-x="240" d="M25 808q0 34 22 56t58 22q48 0 71.5 -33t23.5 -81q0 -76 -40.5 -135t-99.5 -97l-35 47q83 53 97 151q-12 -2 -20 -2q-33 0 -55 20t-22 52z" />
<glyph unicode="&#x2bd;" horiz-adv-x="240" d="M200 808q0 -32 -22 -52t-55 -20q-8 0 -20 2q14 -98 97 -151l-35 -47q-59 38 -99.5 97t-40.5 135q0 48 23.5 81t71.5 33q36 0 58 -22t22 -56z" />
<glyph unicode="&#x2be;" horiz-adv-x="180" d="M145 765q0 -50 -34 -81t-86 -31v52q27 0 44 16.5t17 43.5t-17 43.5t-44 16.5v52q52 0 86 -31t34 -81z" />
<glyph unicode="&#x2bf;" horiz-adv-x="180" d="M35 765q0 50 34 81t86 31v-52q-27 0 -44 -16.5t-17 -43.5t17 -43.5t44 -16.5v-52q-52 0 -86 31t-34 81z" />
<glyph unicode="&#x2c6;" horiz-adv-x="510" d="M60 717l180 148h30l180 -148l-34 -37l-161 97l-161 -97z" />
<glyph unicode="&#x2c7;" horiz-adv-x="510" d="M450 838l-180 -148h-30l-180 148l34 37l161 -97l161 97z" />
<glyph unicode="&#x2c8;" horiz-adv-x="210" d="M65 680v215h80v-215h-80z" />
<glyph unicode="&#x2c9;" horiz-adv-x="510" d="M60 744v72h390v-72h-390z" />
<glyph unicode="&#x2ca;" horiz-adv-x="330" d="M305 828l-234 -133l-31 45l216 165z" />
<glyph unicode="&#x2cb;" horiz-adv-x="330" d="M25 828l49 77l216 -165l-31 -45z" />
<glyph unicode="&#x2cc;" horiz-adv-x="210" d="M65 -295v215h80v-215h-80z" />
<glyph unicode="&#x2d7;" horiz-adv-x="330" d="M15 403h300v-86h-300v86z" />
<glyph unicode="&#x2d8;" horiz-adv-x="510" d="M60 837l70 23q27 -95 125 -95t125 95l70 -23q-17 -60 -64.5 -101t-130.5 -41t-130.5 41t-64.5 101z" />
<glyph unicode="&#x2d9;" horiz-adv-x="330" d="M165 854q35 0 57.5 -20t22.5 -54t-22.5 -54t-57.5 -20t-57.5 20t-22.5 54t22.5 54t57.5 20z" />
<glyph unicode="&#x2da;" horiz-adv-x="330" d="M165 653q-52 0 -86 31t-34 81t34 81t86 31t86 -31t34 -81t-34 -81t-86 -31zM165 705q27 0 44 16.5t17 43.5t-17 43.5t-44 16.5t-44 -16.5t-17 -43.5t17 -43.5t44 -16.5z" />
<glyph unicode="&#x2db;" horiz-adv-x="330" d="M83 -142q0 100 95 184l37 -29q-59 -61 -59 -145q0 -64 55 -64q36 0 63 16l19 -54q-42 -21 -95 -21q-56 0 -85.5 30.5t-29.5 82.5z" />
<glyph unicode="&#x2dc;" horiz-adv-x="510" d="M60 738q10 26 19 43.5t23 37.5t33.5 30.5t43.5 10.5t47 -10.5t31 -17t27 -23.5l11 -11t11 -10.5t9 -7.5t9.5 -6t9.5 -2q28 0 58 81l58 -21q-9 -25 -18.5 -43.5t-23.5 -38t-33.5 -30t-43.5 -10.5t-47 10.5t-31 17t-27 23.5l-11 11t-11 10.5t-9 7.5t-9.5 6t-9.5 2 q-7 0 -14 -4.5t-12 -10.5t-10.5 -17l-8.5 -17t-7.5 -18t-5.5 -14z" />
<glyph unicode="&#x2dd;" horiz-adv-x="510" d="M60 725l113 190l67 -48l-139 -172zM270 725l113 190l67 -48l-139 -172z" />
<glyph unicode="&#x300;" d="M-155 828l49 77l216 -165l-31 -45z" />
<glyph unicode="&#x301;" d="M155 828l-234 -133l-31 45l216 165z" />
<glyph unicode="&#x302;" d="M-195 717l180 148h30l180 -148l-34 -37l-161 97l-161 -97z" />
<glyph unicode="&#x303;" d="M-195 738q10 26 19 43.5t23 37.5t33.5 30.5t43.5 10.5t47 -10.5t31 -17t27 -23.5l11 -11t11 -10.5t9 -7.5t9.5 -6t9.5 -2q28 0 58 81l58 -21q-9 -25 -18.5 -43.5t-23.5 -38t-33.5 -30t-43.5 -10.5t-47 10.5t-31 17t-27 23.5l-11 11t-11 10.5t-9 7.5t-9.5 6t-9.5 2 q-7 0 -14 -4.5t-12 -10.5t-10.5 -17l-8.5 -17t-7.5 -18t-5.5 -14z" />
<glyph unicode="&#x304;" d="M-195 744v72h390v-72h-390z" />
<glyph unicode="&#x305;" d="M-285 744v72h570v-72h-570z" />
<glyph unicode="&#x306;" d="M-195 837l70 23q27 -95 125 -95t125 95l70 -23q-17 -60 -64.5 -101t-130.5 -41t-130.5 41t-64.5 101z" />
<glyph unicode="&#x307;" d="M0 854q35 0 57.5 -20t22.5 -54t-22.5 -54t-57.5 -20t-57.5 20t-22.5 54t22.5 54t57.5 20z" />
<glyph unicode="&#x308;" d="M-195 780q0 31 21 49.5t53 18.5t53 -18.5t21 -49.5t-21 -49.5t-53 -18.5t-53 18.5t-21 49.5zM48 780q0 31 21 49.5t53 18.5t52.5 -18.5t20.5 -49.5t-20.5 -49.5t-52.5 -18.5t-53 18.5t-21 49.5z" />
<glyph unicode="&#x309;" d="M-110 871q47 27 113 27q47 0 77 -23t30 -65q0 -31 -11.5 -55t-34.5 -39.5t-42.5 -24t-50.5 -18.5l-19 38q45 19 66.5 37.5t21.5 48.5q0 39 -50 39q-45 0 -93 -24z" />
<glyph unicode="&#x30a;" d="M0 653q-52 0 -86 31t-34 81t34 81t86 31t86 -31t34 -81t-34 -81t-86 -31zM0 705q28 0 44.5 16.5t16.5 43.5t-16.5 43.5t-44.5 16.5t-44.5 -16.5t-16.5 -43.5t16.5 -43.5t44.5 -16.5z" />
<glyph unicode="&#x30b;" d="M-165 725l113 190l67 -48l-139 -172zM45 725l113 190l67 -48l-139 -172z" />
<glyph unicode="&#x30c;" d="M195 838l-180 -148h-30l-180 148l34 37l161 -97l161 97z" />
<glyph unicode="&#x30d;" d="M-40 680v215h80v-215h-80z" />
<glyph unicode="&#x30e;" d="M-135 680v215h76v-215h-76zM59 680v215h76v-215h-76z" />
<glyph unicode="&#x30f;" d="M165 725l-41 -30l-139 172l67 48zM-45 725l-41 -30l-139 172l67 48z" />
<glyph unicode="&#x311;" d="M195 703l-70 -23q-27 95 -125 95t-125 -95l-70 23q17 60 64.5 101t130.5 41t130.5 -41t64.5 -101z" />
<glyph unicode="&#x312;" d="M-6 832q11 3 24 3q29 0 48 -16.5t19 -44.5q0 -32 -20 -53t-55 -21q-44 0 -64.5 28t-20.5 66q0 68 37.5 114t87.5 67l28 -37q-29 -12 -52.5 -39.5t-31.5 -66.5z" />
<glyph unicode="&#x313;" d="M6 838q-11 -3 -24 -3q-29 0 -48 16.5t-19 44.5q0 32 20 53t55 21q44 0 64.5 -28t20.5 -66q0 -68 -37.5 -114t-87.5 -67l-28 37q29 12 52.5 39.5t31.5 66.5z" />
<glyph unicode="&#x314;" d="M-6 838q8 -39 31.5 -66.5t52.5 -39.5l-28 -37q-50 21 -87.5 67t-37.5 114q0 38 20.5 66t64.5 28q35 0 55 -21t20 -53q0 -28 -19 -44.5t-48 -16.5q-13 0 -24 3z" />
<glyph unicode="&#x315;" horiz-adv-x="240" d="M121 698q-11 -3 -24 -3q-29 0 -48 16.5t-19 44.5q0 32 20 53t55 21q44 0 64.5 -28t20.5 -66q0 -68 -37.5 -114t-87.5 -67l-28 37q29 12 52.5 39.5t31.5 66.5z" />
<glyph unicode="&#x31b;" horiz-adv-x="60" d="M-100 538q23 4 45.5 27t22.5 65q0 36 -25 63l69 40q36 -38 36 -99q0 -58 -40.5 -94t-89.5 -47z" />
<glyph unicode="&#x323;" d="M0 -106q35 0 57.5 -20t22.5 -54t-22.5 -54t-57.5 -20t-57.5 20t-22.5 54t22.5 54t57.5 20z" />
<glyph unicode="&#x324;" d="M-195 -180q0 31 21 49.5t53 18.5t53 -18.5t21 -49.5t-21 -49.5t-53 -18.5t-53 18.5t-21 49.5zM48 -180q0 31 21 49.5t53 18.5t52.5 -18.5t20.5 -49.5t-20.5 -49.5t-52.5 -18.5t-53 18.5t-21 49.5z" />
<glyph unicode="&#x326;" d="M6 -202q-10 -3 -24 -3q-29 0 -48 16.5t-19 44.5q0 32 20 53t55 21q44 0 64.5 -28t20.5 -66q0 -68 -37.5 -114t-87.5 -67l-28 37q29 12 52.5 39.5t31.5 66.5z" />
<glyph unicode="&#x327;" d="M-95 -278q147 36 147 103q0 38 -69 38q-17 0 -45 -5l-33 34l68 123h64l-56 -100h14q61 0 95.5 -23t34.5 -67q0 -25 -9 -46.5t-30 -38t-35 -26.5t-46 -20.5t-38.5 -12.5t-36.5 -9q-5 -1 -7 -2z" />
<glyph unicode="&#x328;" d="M-82 -142q0 100 95 184l37 -29q-59 -61 -59 -145q0 -64 55 -64q36 0 63 16l19 -54q-42 -21 -95 -21q-56 0 -85.5 30.5t-29.5 82.5z" />
<glyph unicode="&#x329;" d="M-40 -295v215h80v-215h-80z" />
<glyph unicode="&#x32e;" d="M-195 -98l70 23q27 -95 125 -95t125 95l70 -23q-17 -60 -64.5 -101t-130.5 -41t-130.5 41t-64.5 101z" />
<glyph unicode="&#x331;" d="M-195 -216v72h390v-72h-390z" />
<glyph unicode="&#x332;" d="M-285 -216v72h570v-72h-570z" />
<glyph unicode="&#x34f;" />
<glyph unicode="&#x351;" d="M-75 765q0 50 34 81t86 31v-52q-27 0 -44 -16.5t-17 -43.5t17 -43.5t44 -16.5v-52q-52 0 -86 31t-34 81z" />
<glyph unicode="&#x357;" d="M75 765q0 -50 -34 -81t-86 -31v52q27 0 44 16.5t17 43.5t-17 43.5t-44 16.5v52q52 0 86 -31t34 -81z" />
<glyph unicode="&#x358;" horiz-adv-x="180" d="M65 674q35 0 57.5 -20t22.5 -54t-22.5 -54t-57.5 -20t-57.5 20t-22.5 54t22.5 54t57.5 20z" />
<glyph unicode="&#x3c0;" horiz-adv-x="660" d="M35 521v79h590v-79h-80v-383q0 -39 24.5 -56t77.5 -22l-22 -74q-193 14 -193 142v393h-204v-521h-113v521h-80z" />
<glyph unicode="&#xe01;" horiz-adv-x="655" d="M101 0v294q0 76 69 98l-120 24q12 85 81 144t184 59q119 0 192 -61.5t73 -158.5v-399h-107v399q0 69 -42.5 105t-115.5 36q-116 0 -150 -100l143 -30l-11 -44q-1 0 -6.5 1t-13 1.5t-12.5 0.5q-57 0 -57 -65v-304h-107z" />
<glyph unicode="&#xe02;" horiz-adv-x="635" d="M122 520q-20 0 -32.5 -13t-12.5 -33t12.5 -33t32.5 -13t32.5 13t12.5 33t-12.5 33t-32.5 13zM15 474q0 58 48 98.5t131 40.5q84 0 132.5 -41t48.5 -108q0 -39 -16 -73.5t-38.5 -60t-45 -50.5t-38.5 -56t-16 -66q0 -46 32 -72t82 -26q51 0 82 29t31 88v423h107v-423 q0 -84 -60 -140t-160 -56t-160 47.5t-60 121.5q0 47 18.5 86t45 65.5t53 50.5t45 54t18.5 64q0 42 -29 64.5t-82 22.5h-1q46 -28 46 -83q0 -44 -30.5 -71.5t-76.5 -27.5t-76.5 27.5t-30.5 71.5z" />
<glyph unicode="&#xe03;" horiz-adv-x="635" d="M122 556q-20 0 -32.5 -13t-12.5 -33t12.5 -33t32.5 -13t32.5 13t12.5 33t-12.5 33t-32.5 13zM122 609q46 0 76.5 -27.5t30.5 -71.5q0 -21 -8 -40q53 43 72 129l38 5q44 -55 44 -127q0 -48 -24 -92t-53 -73t-53 -70t-24 -83q0 -46 32 -72t82 -26q51 0 82 28.5t31 87.5v423 h107v-423q0 -84 -60 -140t-160 -56t-160 48t-60 122q0 47 19 86.5t46 67.5t54 54t46 59t19 71q-49 -89 -157 -89q-60 0 -93.5 30.5t-33.5 79.5q0 44 30.5 71.5t76.5 27.5z" />
<glyph unicode="&#xe04;" horiz-adv-x="665" d="M330 365q-20 0 -32.5 -13t-12.5 -33t12.5 -33t32.5 -13t32.5 13t12.5 33t-12.5 33t-32.5 13zM330 418q46 0 76.5 -27.5t30.5 -71.5t-30.5 -71.5t-76.5 -27.5q-59 0 -89 41q-33 -63 -38 -161l-3 -100h-115q10 71 10 118q0 44 -12.5 121t-12.5 160q0 96 71.5 158t188.5 62 t188.5 -62t71.5 -158v-399h-107v100q0 17 2 121.5t2 177.5q0 70 -42 105.5t-115 35.5t-115 -35.5t-42 -105.5q0 -86 6 -158q24 104 76 149q31 28 75 28z" />
<glyph unicode="&#xe05;" horiz-adv-x="665" d="M330 365q-20 0 -32.5 -13t-12.5 -33t12.5 -33t32.5 -13t32.5 13t12.5 33t-12.5 33t-32.5 13zM330 418q46 0 76.5 -27.5t30.5 -71.5t-30.5 -71.5t-76.5 -27.5q-59 0 -89 41q-33 -63 -38 -161l-3 -100h-115q10 71 10 118q0 44 -12.5 121t-12.5 160q0 36 6.5 68.5t23.5 68 t52.5 56.5t86.5 21l91 -80l91 80q51 0 86.5 -21t52.5 -56.5t23.5 -68t6.5 -68.5v-399h-107v100q0 17 2 121.5t2 177.5q0 129 -60 138l-85 -69h-12h-12l-85 69q-64 -8 -64 -138q0 -80 9 -163q24 108 77 154q31 28 75 28z" />
<glyph unicode="&#xe06;" horiz-adv-x="650" d="M162 136q-20 0 -32.5 -13t-12.5 -33t12.5 -33t32.5 -13t32.5 13t12.5 33t-12.5 33t-32.5 13zM132 556q-20 0 -32.5 -13t-12.5 -33t12.5 -33t32.5 -13t32.5 13t12.5 33t-12.5 33t-32.5 13zM132 609q46 0 76.5 -27.5t30.5 -71.5q0 -21 -8 -40q53 43 72 129l39 5 q43 -54 43 -127q0 -44 -20.5 -85.5t-46.5 -68.5t-51 -63.5t-32 -70.5q132 -13 226 -96q-3 47 -3 97v410h107v-600h-98q-81 102 -203 124q5 -12 5 -34q0 -44 -30.5 -71.5t-76.5 -27.5t-76.5 27.5t-30.5 71.5q0 35 19.5 60t52.5 34q6 39 27 73t46.5 59t50 50t41.5 56.5 t17 66.5q-49 -89 -157 -89q-60 0 -93.5 30.5t-33.5 79.5q0 44 30.5 71.5t76.5 27.5z" />
<glyph unicode="&#xe07;" horiz-adv-x="525" d="M306 556q-20 0 -32.5 -13t-12.5 -33t12.5 -33t32.5 -13t32.5 13t12.5 33t-12.5 33t-32.5 13zM10 328l65 60l278 -302q-15 43 -15 84v130q0 26 3.5 46.5t8.5 41t7 33.5q-21 -10 -51 -10q-46 0 -76.5 27.5t-30.5 71.5t30.5 71.5t76.5 27.5q70 0 107 -38.5t37 -105.5 q0 -26 -4 -81.5t-4 -93.5v-290h-114z" />
<glyph unicode="&#xe08;" horiz-adv-x="590" d="M30 431q11 78 74.5 133t170.5 55q110 0 177.5 -56.5t67.5 -145.5q0 -80 -30 -179.5t-30 -147.5v-90h-114q-6 125 -57 208q-29 -46 -92 -46q-46 0 -76.5 27.5t-30.5 71.5t30.5 71.5t76.5 27.5q73 0 117 -61t64 -153q1 44 18.5 124t17.5 147q0 62 -37.5 92.5t-101.5 30.5 q-59 0 -94.5 -30t-43.5 -86zM197 215q20 0 32.5 13t12.5 33t-12.5 33t-32.5 13t-32.5 -13t-12.5 -33t12.5 -33t32.5 -13z" />
<glyph unicode="&#xe09;" horiz-adv-x="645" d="M137 0v112q0 27 14 50q-44 2 -73 29t-29 70q0 44 30.5 71.5t76.5 27.5t76.5 -27.5t30.5 -71.5q0 -26 -12 -63t-12 -62v-47q93 95 209 103q5 12 5 23v194q0 65 -39.5 98t-108.5 33q-63 0 -101.5 -33t-46.5 -92l-107 8q11 82 77.5 139t177.5 57q115 0 185 -58.5t70 -151.5 v-174q0 -28 -29 -52q32 -10 50.5 -34.5t18.5 -58.5q0 -44 -30.5 -71.5t-76.5 -27.5t-76.5 27.5t-30.5 71.5q0 17 4 29q-84 -28 -155 -119h-98zM493 136q-20 0 -32.5 -13t-12.5 -33t12.5 -33t32.5 -13t32.5 13t12.5 33t-12.5 33t-32.5 13zM156 307q-20 0 -32.5 -13t-12.5 -33 t12.5 -33t32.5 -13t32.5 13t12.5 33t-12.5 33t-32.5 13z" />
<glyph unicode="&#xe0a;" horiz-adv-x="640" d="M122 520q-20 0 -32.5 -13t-12.5 -33t12.5 -33t32.5 -13t32.5 13t12.5 33t-12.5 33t-32.5 13zM374 484q119 16 124 139l107 -9q-1 -56 -38 -98t-99 -61q87 -27 87 -95v-183q0 -84 -60 -140t-160 -56t-160 47.5t-60 121.5q0 47 18.5 86t45 65.5t53 50.5t45 54t18.5 64 q0 42 -29 64.5t-82 22.5h-1q46 -28 46 -83q0 -44 -30.5 -71.5t-76.5 -27.5t-76.5 27.5t-30.5 71.5q0 58 48 98.5t131 40.5q78 0 125.5 -35t54.5 -94zM371 427q-8 -38 -33 -74t-50.5 -60t-46 -60t-20.5 -75q0 -46 32 -72t82 -26q51 0 82 29t31 88v183q0 59 -77 67z" />
<glyph unicode="&#xe0b;" horiz-adv-x="640" d="M122 556q-20 0 -32.5 -13t-12.5 -33t12.5 -33t32.5 -13t32.5 13t12.5 33t-12.5 33t-32.5 13zM122 609q46 0 76.5 -27.5t30.5 -71.5q0 -21 -8 -40q53 43 72 129l38 5q42 -53 44 -120q118 18 123 139l107 -9q-1 -56 -38 -98t-99 -61q87 -27 87 -95v-183q0 -84 -60 -140 t-160 -56t-160 48t-60 122q0 47 19 86.5t46 67.5t54 54t46 59t19 71q-49 -89 -157 -89q-60 0 -93.5 30.5t-33.5 79.5q0 44 30.5 71.5t76.5 27.5zM448 360q0 60 -80 68q-8 -29 -26.5 -58t-38 -52t-38.5 -46.5t-31.5 -52.5t-12.5 -60q0 -46 32 -72t82 -26q51 0 82 28.5 t31 87.5v183z" />
<glyph unicode="&#xe0c;" horiz-adv-x="950" d="M491 136q-20 0 -32.5 -13t-12.5 -33t12.5 -33t32.5 -13t32.5 13t12.5 33t-12.5 33t-32.5 13zM315 619q119 0 192 -61.5t73 -158.5v-184q0 -10 2 -28q105 -13 179 -92q-3 46 -3 95v410h107v-600h-98q-78 107 -172 123q3 -15 3 -33q0 -44 -30.5 -71.5t-76.5 -27.5 t-76.5 27.5t-30.5 71.5q0 43 28.5 70t73.5 29q-13 21 -13 51v159q0 69 -42.5 105t-115.5 36q-116 0 -150 -100l143 -30l-11 -44q-1 0 -6.5 1t-13 1.5t-12.5 0.5q-57 0 -57 -65v-64q0 -29 -11 -51q46 0 76 -27.5t30 -71.5t-30.5 -71.5t-76.5 -27.5t-76.5 27.5t-30.5 71.5 q0 23 6 60.5t6 59.5v84q0 76 69 98l-120 24q12 85 81 144t184 59zM196 136q-20 0 -32.5 -13t-12.5 -33t12.5 -33t32.5 -13t32.5 13t12.5 33t-12.5 33t-32.5 13z" />
<glyph unicode="&#xe0d;" horiz-adv-x="950" d="M572 -113q-16 0 -26 -10t-10 -27t10 -27t26 -10t26 10t10 27t-10 27t-26 10zM572 -66q39 0 64.5 -23t25.5 -61q0 -33 -21 -56h13h20q108 0 108 125l80 -9q0 -78 -48.5 -123t-126.5 -45h-60q-67 0 -106 28.5t-39 79.5q0 38 25.5 61t64.5 23zM196 136q-20 0 -32.5 -13 t-12.5 -33t12.5 -33t32.5 -13t32.5 13t12.5 33t-12.5 33t-32.5 13zM315 619q119 0 192 -61.5t73 -158.5v-242q0 -50 25.5 -73.5t66.5 -23.5t66 23.5t25 73.5v443h107v-443q0 -75 -54 -125.5t-144 -50.5t-144.5 51t-54.5 125v242q0 69 -42.5 105t-115.5 36q-116 0 -150 -100 l143 -30l-11 -44q-1 0 -6.5 1t-13 1.5t-12.5 0.5q-57 0 -57 -65v-64q0 -29 -11 -51q46 0 76 -27.5t30 -71.5t-30.5 -71.5t-76.5 -27.5t-76.5 27.5t-30.5 71.5q0 23 6 60.5t6 59.5v84q0 76 69 98l-120 24q12 85 81 144t184 59z" />
<glyph unicode="&#xe0e;" horiz-adv-x="665" d="M147 136q-20 0 -32.5 -13t-12.5 -33t12.5 -33t32.5 -13t32.5 13t12.5 33t-12.5 33t-32.5 13zM325 619q119 0 192 -61.5t73 -158.5v-474v-160h-96q-89 62 -181 100q3 -9 3 -20q0 -35 -27.5 -63.5t-74.5 -28.5q-46 0 -74 26t-28 66q0 41 29 67t76 26q100 0 269 -103 q-3 36 -3 90v474q0 69 -42.5 105t-115.5 36q-116 0 -150 -99l163 -31l-11 -44q-1 0 -6.5 1t-13 1.5t-12.5 0.5q-57 0 -57 -65v-94q0 -22 8 -59.5t8 -60.5q0 -44 -30.5 -71.5t-76.5 -27.5t-76.5 27.5t-30.5 71.5q0 43 29 70t74 29q-12 24 -12 51v54q0 75 67 98l-138 23v1 q12 85 81 144t184 59zM249 -114q-22 4 -29 4q-18 0 -31.5 -11.5t-13.5 -33.5q0 -21 12.5 -32.5t29.5 -11.5q21 0 34 12.5t13 31.5q0 22 -15 41z" />
<glyph unicode="&#xe0f;" horiz-adv-x="665" d="M147 136q-20 0 -32.5 -13t-12.5 -33t12.5 -33t32.5 -13t32.5 13t12.5 33t-12.5 33t-32.5 13zM325 619q119 0 192 -61.5t73 -158.5v-474v-160h-96l-124 97q-23 -37 -48 -59q-58 -50 -121 -50q-47 0 -76 26t-29 67q0 40 28 66t74 26t73 -27.5t29 -61.5q32 38 43 76h33 l110 -90q-3 36 -3 90v474q0 69 -42.5 105t-115.5 36q-116 0 -150 -99l163 -31l-11 -44q-1 0 -6.5 1t-13 1.5t-12.5 0.5q-57 0 -57 -65v-94q0 -22 8 -59.5t8 -60.5q0 -44 -30.5 -71.5t-76.5 -27.5t-76.5 27.5t-30.5 71.5q0 43 29 70t74 29q-12 24 -12 51v54q0 75 67 98 l-138 23v1q12 85 81 144t184 59zM159 -154q0 -22 13 -33t32 -11q17 0 30 4q14 16 14 40q0 19 -13 31.5t-34 12.5q-17 0 -29.5 -11.5t-12.5 -32.5z" />
<glyph unicode="&#xe10;" horiz-adv-x="555" d="M133 -154q0 -22 13 -33t32 -11q17 0 30 4q14 16 14 40q0 19 -13 31.5t-34 12.5q-17 0 -29.5 -11.5t-12.5 -32.5zM274 -151q32 38 43 76h33l79 -81q-2 46 -2 81h80v-160h-69l-96 94q-20 -32 -46 -56q-58 -50 -121 -50q-47 0 -76 26t-29 67q0 40 28 66t74 26t73 -27.5 t29 -61.5zM157 277q-20 0 -32.5 -13t-12.5 -33t12.5 -33t32.5 -13t32.5 13t12.5 33t-12.5 33t-32.5 13zM157 330q76 0 120.5 -62t64.5 -152q2 23 13.5 84t11.5 93q0 57 -74.5 81.5t-242.5 24.5v25q0 87 59.5 141t154.5 54q96 0 157 -59q3 8 6 12l24 41l79 -15v-5l-84 -108 h-33q-45 62 -133 62q-50 0 -85 -24t-43 -73q158 -6 238 -38.5t80 -105.5q0 -40 -25 -123.5t-25 -122.5v-60h-114q-5 111 -51 189q-12 -26 -38 -41.5t-60 -15.5q-46 0 -76.5 27.5t-30.5 71.5t30.5 71.5t76.5 27.5z" />
<glyph unicode="&#xe11;" horiz-adv-x="665" d="M122 556q-20 0 -32.5 -13t-12.5 -33t12.5 -33t32.5 -13t32.5 13t12.5 33t-12.5 33t-32.5 13zM122 609q46 0 76.5 -27.5t30.5 -71.5q0 -21 -8 -40q53 43 72 129l39 5q32 -40 40 -87q63 92 123 92q90 0 90 -122v-487h-107v468q0 48 -23 52q-34 -11 -87 -97 q-9 -34 -32 -69.5t-44 -60.5t-38 -61t-17 -73v-159h-107v151q0 47 17.5 86.5t42 67.5t49.5 54t42.5 59t17.5 71q-49 -89 -157 -89q-60 0 -93.5 30.5t-33.5 79.5q0 44 30.5 71.5t76.5 27.5z" />
<glyph unicode="&#xe12;" horiz-adv-x="960" d="M330 365q-20 0 -32.5 -13t-12.5 -33t12.5 -33t32.5 -13t32.5 13t12.5 33t-12.5 33t-32.5 13zM501 136q-20 0 -32.5 -13t-12.5 -33t12.5 -33t32.5 -13t32.5 13t12.5 33t-12.5 33t-32.5 13zM239 613l91 -80l91 80q51 0 86.5 -21t52.5 -56.5t23.5 -68t6.5 -68.5v-184 q0 -10 2 -28q105 -13 179 -92q-3 46 -3 95v410h107v-600h-98q-78 107 -172 123q3 -15 3 -33q0 -44 -30.5 -71.5t-76.5 -27.5t-76.5 27.5t-30.5 71.5t30 71t76 28q-13 24 -13 51v159q0 129 -60 138l-85 -69h-12h-12l-85 69q-64 -8 -64 -138q0 -81 10 -149.5t10 -92.5 q0 -33 -4 -65q26 31 82.5 72t71.5 56h-9q-46 0 -76.5 27.5t-30.5 71.5t30.5 71.5t76.5 27.5t76.5 -27.5t30.5 -71.5t-20.5 -81t-51.5 -65t-63 -53t-59.5 -56t-36.5 -64h-121q10 71 10 118q0 44 -12.5 121t-12.5 160q0 36 6.5 68.5t23.5 68t52.5 56.5t86.5 21z" />
<glyph unicode="&#xe13;" horiz-adv-x="960" d="M196 136q-20 0 -32.5 -13t-12.5 -33t12.5 -33t32.5 -13t32.5 13t12.5 33t-12.5 33t-32.5 13zM804 136q-20 0 -32.5 -13t-12.5 -33t12.5 -33t32.5 -13t32.5 13t12.5 33t-12.5 33t-32.5 13zM165 440l143 -30l-11 -44q-1 0 -6.5 1t-13 1.5t-12.5 0.5q-57 0 -57 -65v-64 q0 -29 -11 -51q46 0 76 -27.5t30 -71.5t-30.5 -71.5t-76.5 -27.5t-76.5 27.5t-30.5 71.5q0 23 6 60.5t6 59.5v84q0 76 69 98l-120 24q12 85 81 144t184 59q119 0 192 -61.5t73 -158.5v-209q0 -3 -3 -90q76 83 182 92q5 12 5 23v385h106v-365q0 -29 -28 -52 q32 -10 50.5 -34.5t18.5 -58.5q0 -44 -30.5 -71.5t-76.5 -27.5t-76.5 27.5t-30.5 71.5q0 10 4 28q-74 -29 -130 -118h-98v399q0 69 -42.5 105t-115.5 36q-116 0 -150 -100z" />
<glyph unicode="&#xe14;" horiz-adv-x="665" d="M483 0v100q0 17 2 121.5t2 177.5q0 70 -42 105.5t-115 35.5t-117 -35.5t-44 -105.5q0 -81 10 -149.5t10 -92.5q0 -33 -4 -65q26 31 82.5 72t71.5 56h-9q-46 0 -76.5 27.5t-30.5 71.5t30.5 71.5t76.5 27.5t76.5 -27.5t30.5 -71.5t-20.5 -81t-51.5 -65t-63 -53t-59.5 -56 t-36.5 -64h-121q10 71 10 118q0 44 -12.5 121t-12.5 160q0 96 71.5 158t188.5 62t188.5 -62t71.5 -158v-399h-107zM330 365q-20 0 -32.5 -13t-12.5 -33t12.5 -33t32.5 -13t32.5 13t12.5 33t-12.5 33t-32.5 13z" />
<glyph unicode="&#xe15;" horiz-adv-x="665" d="M483 0v100q0 17 2 121.5t2 177.5q0 129 -60 138l-85 -69h-12h-12l-85 69q-64 -8 -64 -138q0 -81 10 -149.5t10 -92.5q0 -33 -4 -65q26 31 82.5 72t71.5 56h-9q-46 0 -76.5 27.5t-30.5 71.5t30.5 71.5t76.5 27.5t76.5 -27.5t30.5 -71.5t-20.5 -81t-51.5 -65t-63 -53 t-59.5 -56t-36.5 -64h-121q10 71 10 118q0 44 -12.5 121t-12.5 160q0 36 6.5 68.5t23.5 68t52.5 56.5t86.5 21l91 -80l91 80q51 0 86.5 -21t52.5 -56.5t23.5 -68t6.5 -68.5v-399h-107zM330 365q-20 0 -32.5 -13t-12.5 -33t12.5 -33t32.5 -13t32.5 13t12.5 33t-12.5 33 t-32.5 13z" />
<glyph unicode="&#xe16;" horiz-adv-x="655" d="M315 619q119 0 192 -61.5t73 -158.5v-399h-107v399q0 69 -42.5 105t-115.5 36q-116 0 -150 -100l143 -30l-11 -44q-1 0 -6.5 1t-13 1.5t-12.5 0.5q-57 0 -57 -65v-64q0 -29 -11 -51q46 0 76 -27.5t30 -71.5t-30.5 -71.5t-76.5 -27.5t-76.5 27.5t-30.5 71.5q0 23 6 60.5 t6 59.5v84q0 76 69 98l-120 24q12 85 81 144t184 59zM196 136q-20 0 -32.5 -13t-12.5 -33t12.5 -33t32.5 -13t32.5 13t12.5 33t-12.5 33t-32.5 13z" />
<glyph unicode="&#xe17;" horiz-adv-x="660" d="M138 464q20 0 32.5 13t12.5 33t-12.5 33t-32.5 13t-32.5 -13t-12.5 -33t12.5 -33t32.5 -13zM227 282q99 327 237 327q61 0 88.5 -39t27.5 -85v-485h-106v467q0 48 -30 52q-43 -14 -91.5 -98.5t-79.5 -170.5t-46 -151v-99h-107v360q0 25 13 51q-44 2 -73 29t-29 70 q0 44 30.5 71.5t76.5 27.5t76.5 -27.5t30.5 -71.5q0 -23 -9 -60.5t-9 -59.5v-108z" />
<glyph unicode="&#xe18;" horiz-adv-x="585" d="M75 177v123h107v-123q0 -59 31 -87.5t82 -28.5t82 28.5t31 87.5v107q0 58 -83.5 83t-259.5 25v32q0 87 59.5 141t154.5 54q96 0 157 -59q3 8 6 12l24 41l79 -15v-5l-84 -108h-33q-45 62 -133 62q-51 0 -87 -25t-42 -76q349 -12 349 -149v-120q0 -84 -60 -140t-160 -56 t-160 56t-60 140z" />
<glyph unicode="&#xe19;" horiz-adv-x="650" d="M120 0v360q0 30 13 51q-45 2 -73.5 29t-28.5 70q0 44 30.5 71.5t76.5 27.5t76.5 -27.5t30.5 -71.5q0 -26 -9 -63t-9 -62v-195q0 -50 -3 -96q97 89 225 98q5 12 5 23v385h106v-365q0 -29 -28 -52q32 -10 50.5 -34.5t18.5 -58.5q0 -44 -30.5 -71.5t-76.5 -27.5t-76.5 27.5 t-30.5 71.5q0 15 5 32q-99 -27 -174 -122h-98zM494 136q-20 0 -32.5 -13t-12.5 -33t12.5 -33t32.5 -13t32.5 13t12.5 33t-12.5 33t-32.5 13zM138 464q20 0 32.5 13t12.5 33t-12.5 33t-32.5 13t-32.5 -13t-12.5 -33t12.5 -33t32.5 -13z" />
<glyph unicode="&#xe1a;" horiz-adv-x="700" d="M133 464q20 0 32.5 13t12.5 33t-12.5 33t-32.5 13t-32.5 -13t-12.5 -33t12.5 -33t32.5 -13zM240 510q0 -23 -9 -60.5t-9 -59.5v-202q0 -63 38.5 -95.5t104.5 -32.5t104.5 32.5t38.5 95.5v412h107v-412q0 -91 -69 -149t-181 -58t-181 58t-69 149v172q0 25 13 51 q-44 2 -73 29t-29 70q0 44 30.5 71.5t76.5 27.5t76.5 -27.5t30.5 -71.5z" />
<glyph unicode="&#xe1b;" horiz-adv-x="700" d="M133 464q20 0 32.5 13t12.5 33t-12.5 33t-32.5 13t-32.5 -13t-12.5 -33t12.5 -33t32.5 -13zM240 510q0 -23 -9 -60.5t-9 -59.5v-202q0 -63 38.5 -95.5t104.5 -32.5t104.5 32.5t38.5 95.5v622h107v-622q0 -91 -69 -149t-181 -58t-181 58t-69 149v172q0 25 13 51 q-44 2 -73 29t-29 70q0 44 30.5 71.5t76.5 27.5t76.5 -27.5t30.5 -71.5z" />
<glyph unicode="&#xe1c;" horiz-adv-x="715" d="M527 187v413h103v-600h-100l-172 283l-172 -283h-100v290q0 39 -8 94t-8 81q0 66 39.5 105t110.5 39q46 0 76.5 -27.5t30.5 -71.5t-30.5 -71.5t-76.5 -27.5q-32 0 -57 14q1 -3 13.5 -46t12.5 -79v-113q0 -26 -6 -64l143 237h32h32l143 -237q-6 38 -6 64zM220 464 q20 0 32.5 13t12.5 33t-12.5 33t-32.5 13t-32.5 -13t-12.5 -33t12.5 -33t32.5 -13z" />
<glyph unicode="&#xe1d;" horiz-adv-x="715" d="M527 187v623h103v-810h-100l-172 283l-172 -283h-100v290q0 39 -8 94t-8 81q0 66 39.5 105t110.5 39q46 0 76.5 -27.5t30.5 -71.5t-30.5 -71.5t-76.5 -27.5q-32 0 -57 14q1 -3 13.5 -46t12.5 -79v-113q0 -26 -6 -64l143 237h32h32l143 -237q-6 38 -6 64zM220 464 q20 0 32.5 13t12.5 33t-12.5 33t-32.5 13t-32.5 -13t-12.5 -33t12.5 -33t32.5 -13z" />
<glyph unicode="&#xe1e;" horiz-adv-x="735" d="M650 600v-600h-92l-173 388l-173 -388h-92v360q0 30 13 51q-45 2 -74 29t-29 70q0 44 30.5 71.5t76.5 27.5t76.5 -27.5t30.5 -71.5q0 -25 -10.5 -62t-10.5 -61v-157q0 -19 -4 -55l140 320h26h26l140 -322q-4 36 -4 57v370h103zM137 464q20 0 32.5 13t12.5 33t-12.5 33 t-32.5 13t-32.5 -13t-12.5 -33t12.5 -33t32.5 -13z" />
<glyph unicode="&#xe1f;" horiz-adv-x="735" d="M650 810v-810h-92l-173 388l-173 -388h-92v360q0 30 13 51q-45 2 -74 29t-29 70q0 44 30.5 71.5t76.5 27.5t76.5 -27.5t30.5 -71.5q0 -25 -10.5 -62t-10.5 -61v-157q0 -19 -4 -55l140 320h26h26l140 -322q-4 36 -4 57v580h103zM137 464q20 0 32.5 13t12.5 33t-12.5 33 t-32.5 13t-32.5 -13t-12.5 -33t12.5 -33t32.5 -13z" />
<glyph unicode="&#xe20;" horiz-adv-x="665" d="M147 136q-20 0 -32.5 -13t-12.5 -33t12.5 -33t32.5 -13t32.5 13t12.5 33t-12.5 33t-32.5 13zM325 619q119 0 192 -61.5t73 -158.5v-399h-107v399q0 69 -42.5 105t-115.5 36q-116 0 -150 -99l163 -31l-11 -44q-1 0 -6.5 1t-13 1.5t-12.5 0.5q-57 0 -57 -65v-94 q0 -22 8 -59.5t8 -60.5q0 -44 -30.5 -71.5t-76.5 -27.5t-76.5 27.5t-30.5 71.5q0 43 29 70t74 29q-12 24 -12 51v54q0 74 68 98l-139 24q12 85 81 144t184 59z" />
<glyph unicode="&#xe21;" horiz-adv-x="645" d="M158 136q-20 0 -32.5 -13t-12.5 -33t12.5 -33t32.5 -13t32.5 13t12.5 33t-12.5 33t-32.5 13zM148 464q20 0 32.5 13t12.5 33t-12.5 33t-32.5 13t-32.5 -13t-12.5 -33t12.5 -33t32.5 -13zM146 188q-16 23 -16 52v120q0 30 13 51q-45 2 -73.5 29t-28.5 70q0 44 30.5 71.5 t76.5 27.5t76.5 -27.5t30.5 -71.5q0 -26 -9 -63t-9 -62v-170q0 -15 3 -27q124 -14 216 -95q-3 47 -3 97v410h107v-600h-98q-80 101 -201 123q4 -20 4 -33q0 -44 -30.5 -71.5t-76.5 -27.5t-76.5 27.5t-30.5 71.5q0 41 26.5 67.5t68.5 30.5z" />
<glyph unicode="&#xe22;" horiz-adv-x="645" d="M225 464q20 0 32.5 13t12.5 33t-12.5 33t-32.5 13t-32.5 -13t-12.5 -33t12.5 -33t32.5 -13zM458 600h107v-412q0 -91 -69 -149t-181 -58t-181 55t-69 142q0 100 103 134q-46 21 -74.5 60.5t-28.5 92.5q0 65 43 104.5t117 39.5q46 0 76.5 -27.5t30.5 -71.5t-30.5 -71.5 t-76.5 -27.5q-55 0 -86 37q15 -102 189 -102v-62q-156 0 -156 -102q0 -60 38.5 -91t104.5 -31t104.5 32.5t38.5 95.5v412z" />
<glyph unicode="&#xe23;" horiz-adv-x="530" d="M386 560q4 10 6 13l23 40l80 -15v-5l-85 -108h-33q-45 62 -127 62q-49 0 -83.5 -25t-40.5 -76q139 -6 214 -37.5t75 -102.5v-121v-71q0 -55 -35 -89t-95 -34q-46 0 -76.5 27.5t-30.5 71.5t30.5 71.5t76.5 27.5q13 0 27 -3q-4 20 -4 31v76q0 56 -68 78t-215 22v31 q0 88 57.5 141.5t150.5 53.5q94 0 153 -59zM285 136q-20 0 -32.5 -13t-12.5 -33t12.5 -33t32.5 -13t32.5 13t12.5 33t-12.5 33t-32.5 13z" />
<glyph unicode="&#xe24;" horiz-adv-x="655" d="M315 619q119 0 192 -61.5t73 -158.5v-609h-107v609q0 69 -42.5 105t-115.5 36q-116 0 -150 -100l143 -30l-11 -44q-1 0 -6.5 1t-13 1.5t-12.5 0.5q-57 0 -57 -65v-64q0 -29 -11 -51q46 0 76 -27.5t30 -71.5t-30.5 -71.5t-76.5 -27.5t-76.5 27.5t-30.5 71.5q0 23 6 60.5 t6 59.5v84q0 76 69 98l-120 24q12 85 81 144t184 59zM196 136q-20 0 -32.5 -13t-12.5 -33t12.5 -33t32.5 -13t32.5 13t12.5 33t-12.5 33t-32.5 13z" />
<glyph unicode="&#xe25;" horiz-adv-x="635" d="M70 107v95q0 64 36 109t121 45q133 0 226 -130v183q0 65 -39.5 98t-108.5 33q-63 0 -101.5 -33t-46.5 -92l-107 8q11 82 77.5 139t177.5 57q115 0 185 -58.5t70 -151.5v-409h-107v105q-20 61 -81.5 120t-137.5 59q-31 0 -47.5 -17.5t-16.5 -47.5q0 -15 -6 -33q14 3 29 3 q46 0 76.5 -27.5t30.5 -71.5t-30.5 -71.5t-76.5 -27.5q-54 0 -88.5 33t-34.5 83zM193 136q-20 0 -32.5 -13t-12.5 -33t12.5 -33t32.5 -13t32.5 13t12.5 33t-12.5 33t-32.5 13z" />
<glyph unicode="&#xe26;" horiz-adv-x="670" d="M147 136q-20 0 -32.5 -13t-12.5 -33t12.5 -33t32.5 -13t32.5 13t12.5 33t-12.5 33t-32.5 13zM325 619q119 0 192 -61.5t73 -158.5v-609h-107v609q0 69 -42.5 105t-115.5 36q-116 0 -150 -99l163 -31l-11 -44q-1 0 -6.5 1t-13 1.5t-12.5 0.5q-57 0 -57 -65v-94 q0 -22 8 -59.5t8 -60.5q0 -44 -30.5 -71.5t-76.5 -27.5t-76.5 27.5t-30.5 71.5q0 43 29 70t74 29q-12 24 -12 51v54q0 74 68 98l-139 24q12 85 81 144t184 59z" />
<glyph unicode="&#xe27;" horiz-adv-x="535" d="M15 451q11 69 67.5 118.5t152.5 49.5q100 0 160 -56t60 -140v-238v-71q0 -55 -35 -89t-95 -34q-46 0 -76.5 27.5t-30.5 71.5t30.5 71.5t76.5 27.5q13 0 27 -3q-4 20 -4 31v206q0 59 -31 88t-82 29q-47 0 -76.5 -25t-37.5 -72zM325 136q-20 0 -32.5 -13t-12.5 -33 t12.5 -33t32.5 -13t32.5 13t12.5 33t-12.5 33t-32.5 13z" />
<glyph unicode="&#xe28;" horiz-adv-x="680" d="M330 365q-20 0 -32.5 -13t-12.5 -33t12.5 -33t32.5 -13t32.5 13t12.5 33t-12.5 33t-32.5 13zM483 0v100q0 17 2 121.5t2 177.5q0 44 -19 77q-49 -36 -88 -68q57 -24 57 -89q0 -44 -30.5 -71.5t-76.5 -27.5q-59 0 -89 41q-33 -63 -38 -161l-3 -100h-115q10 71 10 118 q0 44 -12.5 121t-12.5 160q0 96 71.5 158t188.5 62q95 0 163 -43q61 61 129 67l18 -93q-51 -1 -92 -24q42 -54 42 -127v-399h-107zM431 515q-38 25 -101 25q-73 0 -115 -35.5t-42 -105.5q0 -86 6 -158q24 104 76 149q24 22 59 27q64 57 117 98z" />
<glyph unicode="&#xe29;" horiz-adv-x="710" d="M133 464q20 0 32.5 13t12.5 33t-12.5 33t-32.5 13t-32.5 -13t-12.5 -33t12.5 -33t32.5 -13zM375 380q-16 0 -25.5 -10t-9.5 -25t9.5 -25t25.5 -10t25.5 10t9.5 25t-9.5 25t-25.5 10zM375 422q37 0 60.5 -21t23.5 -56q0 -29 -18 -50q6 1 15 1q29 0 52 4v300h107v-271 q38 14 69 31l19 -56q-40 -19 -88 -32v-84q0 -91 -69 -149t-181 -58t-181 58t-69 149v172q0 25 13 51q-44 2 -73 29t-29 70q0 44 30.5 71.5t76.5 27.5t76.5 -27.5t30.5 -71.5q0 -23 -9 -60.5t-9 -59.5v-202q0 -63 38.5 -95.5t104.5 -32.5t104.5 32.5t38.5 95.5v64 q-35 -4 -82 -4q-63 0 -99 25t-36 72q0 35 23.5 56t60.5 21z" />
<glyph unicode="&#xe2a;" horiz-adv-x="650" d="M70 107v95q0 64 36 109t121 45h3q78 78 177 156q-38 28 -102 28q-63 0 -101.5 -33t-46.5 -92l-107 8q11 82 77.5 139t177.5 57q100 0 167 -45q63 63 130 69l18 -93q-53 -1 -96 -26q36 -50 36 -115v-409h-107v105q-20 61 -81.5 120t-137.5 59q-31 0 -47.5 -17.5 t-16.5 -47.5q0 -15 -6 -33q14 3 29 3q46 0 76.5 -27.5t30.5 -71.5t-30.5 -71.5t-76.5 -27.5q-54 0 -88.5 33t-34.5 83zM193 136q-20 0 -32.5 -13t-12.5 -33t12.5 -33t32.5 -13t32.5 13t12.5 33t-12.5 33t-32.5 13zM290 348q96 -26 163 -122v183q0 37 -12 62 q-94 -68 -151 -123z" />
<glyph unicode="&#xe2b;" horiz-adv-x="660" d="M494 464q20 0 32.5 13t12.5 33t-12.5 33t-32.5 13t-32.5 -13t-12.5 -33t12.5 -33t32.5 -13zM138 464q20 0 32.5 13t12.5 33t-12.5 33t-32.5 13t-32.5 -13t-12.5 -33t12.5 -33t32.5 -13zM473 381q-86 -22 -158 -109t-88 -185v-87h-107v360q0 25 13 51q-44 2 -73 29t-29 70 q0 44 30.5 71.5t76.5 27.5t76.5 -27.5t30.5 -71.5q0 -23 -9 -60.5t-9 -59.5v-134q80 133 194 179q-34 28 -34 75q0 44 30.5 71.5t76.5 27.5t76.5 -27.5t30.5 -71.5q0 -32 -17 -56t-45 -35q41 -26 41 -59v-360h-107v380v1z" />
<glyph unicode="&#xe2c;" horiz-adv-x="760" d="M547 232v180q0 18 6 31h-6q-46 0 -76.5 27.5t-30.5 71.5t30.5 71.5t76.5 27.5t76.5 -27.5t30.5 -71.5v-1l1 1v-4q19 30 23 92l62 -7q-12 -102 -88 -148q-2 -24 -2 -43v-430h-92l-173 358l-173 -358h-92v360q0 30 13 51q-45 2 -74 29t-29 70q0 44 30.5 71.5t76.5 27.5 t76.5 -27.5t30.5 -71.5q0 -25 -10.5 -62t-10.5 -61v-157q0 -27 -6 -67l142 302h26h26l142 -304q-6 42 -6 69zM547 496q20 0 32.5 13t12.5 33t-12.5 33t-32.5 13t-32.5 -13t-12.5 -33t12.5 -33t32.5 -13zM137 466q20 0 32.5 13t12.5 33t-12.5 33t-32.5 13t-32.5 -13 t-12.5 -33t12.5 -33t32.5 -13z" />
<glyph unicode="&#xe2d;" horiz-adv-x="635" d="M50 423q11 82 77.5 139t177.5 57q115 0 185 -58.5t70 -151.5v-225q0 -89 -65.5 -146t-174.5 -57t-174.5 57t-65.5 146v77q0 44 30.5 71.5t76.5 27.5t76.5 -27.5t30.5 -71.5t-30.5 -71.5t-76.5 -27.5h-5q7 -50 45 -76t93 -26q60 0 96.5 31.5t36.5 92.5v225q0 65 -39.5 98 t-108.5 33q-63 0 -101.5 -33t-46.5 -92zM187 307q-20 0 -32.5 -13t-12.5 -33t12.5 -33t32.5 -13t32.5 13t12.5 33t-12.5 33t-32.5 13z" />
<glyph unicode="&#xe2e;" horiz-adv-x="640" d="M182 307q-20 0 -32.5 -13t-12.5 -33t12.5 -33t32.5 -13t32.5 13t12.5 33t-12.5 33t-32.5 13zM182 360q46 0 76.5 -27.5t30.5 -71.5t-30.5 -71.5t-76.5 -27.5h-5q7 -50 45 -76t93 -26q60 0 96.5 31.5t36.5 92.5v116q0 35 4 68.5t4 48.5v7q-67 -36 -167 -36 q-103 0 -168.5 29t-65.5 73q0 48 60.5 88.5t170.5 40.5q129 0 203 -78q21 40 23 98l93 -9q-2 -87 -68 -141q18 -34 18 -72v-233q0 -89 -65.5 -146t-174.5 -57t-174.5 57t-65.5 146v77q0 44 30.5 71.5t76.5 27.5zM155 490q0 -39 134 -39q97 0 150 34q-39 67 -150 67 q-65 0 -99.5 -18t-34.5 -44z" />
<glyph unicode="&#xe2f;" horiz-adv-x="495" d="M147 556q-20 0 -32.5 -13t-12.5 -33t12.5 -33t32.5 -13t32.5 13t12.5 33t-12.5 33t-32.5 13zM147 609q46 0 76.5 -27.5t30.5 -71.5q0 -27 -13 -50q84 32 107 135l49 5q15 -15 19 -42.5t4 -80.5v-325q0 -142 -261 -171l-16 77q94 11 132 30.5t38 63.5v231q0 20 17 73 q-63 -56 -159 -56q-62 0 -96.5 30.5t-34.5 79.5q0 44 30.5 71.5t76.5 27.5z" />
<glyph unicode="&#xe30;" horiz-adv-x="540" d="M167 506q-20 0 -32.5 -13t-12.5 -33t12.5 -33t32.5 -13t32.5 13t12.5 33t-12.5 33t-32.5 13zM167 559q46 0 76.5 -27.5t30.5 -71.5q0 -36 -20 -61h3h30q48 0 74.5 38t28.5 102l90 -11q-2 -81 -51 -133t-139 -52h-75q-74 0 -114.5 33t-40.5 84q0 44 30.5 71.5t76.5 27.5z M167 206q-20 0 -32.5 -13t-12.5 -33t12.5 -33t32.5 -13t32.5 13t12.5 33t-12.5 33t-32.5 13zM167 259q46 0 76.5 -27.5t30.5 -71.5q0 -36 -20 -61h3h30q48 0 74.5 38t28.5 102l90 -11q-2 -81 -51 -133t-139 -52h-75q-74 0 -114.5 33t-40.5 84q0 44 30.5 71.5t76.5 27.5z" />
<glyph unicode="&#xe31;" d="M-270 847q-16 0 -26 -10t-10 -27t10 -27t26 -10t26 10t10 27t-10 27t-26 10zM-270 894q39 0 64.5 -23t25.5 -61q0 -33 -21 -56h13h20q108 0 108 125l80 -9q0 -78 -48.5 -123t-126.5 -45h-60q-67 0 -106 28.5t-39 79.5q0 38 25.5 61t64.5 23z" />
<glyph unicode="&#xe32;" horiz-adv-x="485" d="M15 468q9 61 59 106t136 45q89 0 142 -50.5t53 -125.5v-443h-107v443q0 51 -24.5 74t-63.5 23q-76 0 -88 -80z" />
<glyph unicode="&#xe33;" horiz-adv-x="485" d="M15 468q9 61 59 106t136 45q89 0 142 -50.5t53 -125.5v-443h-107v443q0 51 -24.5 74t-63.5 23q-76 0 -88 -80zM-180 879q46 0 76.5 -27.5t30.5 -71.5t-30.5 -71.5t-76.5 -27.5t-76.5 27.5t-30.5 71.5t30.5 71.5t76.5 27.5zM-180 826q-20 0 -32.5 -13t-12.5 -33t12.5 -33 t32.5 -13t32.5 13t12.5 33t-12.5 33t-32.5 13z" />
<glyph unicode="&#xe34;" d="M-435 772l250 -42q-63 102 -165 102q-69 0 -85 -60zM-105 692l-9 -17l-411 64q0 61 44 106t128 45q167 0 246 -194q1 -3 2 -4z" />
<glyph unicode="&#xe35;" d="M-175 822v73l80 -14v-198l-12 -13l-418 64q0 61 42.5 106.5t121.5 45.5q118 0 197 -119q-11 35 -11 55zM-435 767l266 -45q-70 106 -182 106q-68 0 -84 -61z" />
<glyph unicode="&#xe36;" d="M-182 831q-20 0 -32.5 -13t-12.5 -33t12.5 -33t32.5 -13t32.5 13t12.5 33t-12.5 33t-32.5 13zM-182 884q46 0 76.5 -27.5t30.5 -71.5t-30.5 -71.5t-76.5 -27.5q-34 0 -57 13l-286 35q0 61 42.5 106.5t121.5 45.5q55 0 97 -34q30 32 82 32zM-286 811q-29 17 -65 17 q-68 0 -84 -60l153 -22q-7 17 -7 39q0 14 3 26z" />
<glyph unicode="&#xe37;" d="M-274 872v48l66 -14v-178l57 -10q-10 24 -10 44v133l66 -14v-198l-11 -13l-419 63q0 62 39.5 107t115.5 45q62 0 102 -40q-6 15 -6 27zM-233 732q-42 95 -127 95q-60 0 -75 -61z" />
<glyph unicode="&#xe38;" d="M-180 -113q-16 0 -26 -10t-10 -27t10 -27t26 -10t26 10t10 27t-10 27t-26 10zM-170 -305v50q0 12 5 22q-5 -1 -15 -1q-39 0 -64.5 23t-25.5 61t25.5 61t64.5 23t64.5 -23t25.5 -61q0 -21 -3.5 -47t-3.5 -42v-66h-73z" />
<glyph unicode="&#xe39;" d="M-340 -113q-16 0 -26 -10t-10 -27t10 -27t26 -10t26 10t10 27t-10 27t-26 10zM-250 -150q0 -20 -5 -40t-5 -29v-16q0 -26 47 -26t47 26v162h73v-168q0 -33 -33 -51t-87 -18q-117 0 -117 62v14h-10q-39 0 -64.5 23t-25.5 61t25.5 61t64.5 23t64.5 -23t25.5 -61z" />
<glyph unicode="&#xe3a;" d="M-150 -76q35 0 57.5 -20t22.5 -54t-22.5 -54t-57.5 -20t-57.5 20t-22.5 54t22.5 54t57.5 20z" />
<glyph unicode="&#xe3f;" horiz-adv-x="720" d="M330 450q54 6 91 40t37 93q0 62 -45.5 91.5t-126.5 29.5q-23 0 -83 -3v-254q53 3 127 3zM470 433q85 -23 132.5 -75.5t47.5 -131.5q0 -100 -75 -161.5t-199 -71.5v-113h-86v111q-66 1 -200 9v780q144 9 200 9v111h86v-117q89 -15 144 -64t55 -126q0 -107 -105 -160z M203 81q56 -4 113 -4q98 0 157 35.5t59 113.5q0 145 -216 145q-57 0 -113 -4v-286z" />
<glyph unicode="&#xe40;" horiz-adv-x="330" d="M197 136q-20 0 -32.5 -13t-12.5 -33t12.5 -33t32.5 -13t32.5 13t12.5 33t-12.5 33t-32.5 13zM90 90q0 23 6 60.5t6 59.5v390h107v-360q0 -29 -11 -51q46 0 76 -27.5t30 -71.5t-30.5 -71.5t-76.5 -27.5t-76.5 27.5t-30.5 71.5z" />
<glyph unicode="&#xe41;" horiz-adv-x="630" d="M197 136q-20 0 -32.5 -13t-12.5 -33t12.5 -33t32.5 -13t32.5 13t12.5 33t-12.5 33t-32.5 13zM90 90q0 23 6 60.5t6 59.5v390h107v-360q0 -29 -11 -51q46 0 76 -27.5t30 -71.5t-30.5 -71.5t-76.5 -27.5t-76.5 27.5t-30.5 71.5zM497 136q-20 0 -32.5 -13t-12.5 -33 t12.5 -33t32.5 -13t32.5 13t12.5 33t-12.5 33t-32.5 13zM390 90q0 23 6 60.5t6 59.5v390h107v-360q0 -29 -11 -51q46 0 76 -27.5t30 -71.5t-30.5 -71.5t-76.5 -27.5t-76.5 27.5t-30.5 71.5z" />
<glyph unicode="&#xe42;" horiz-adv-x="380" d="M240 136q-20 0 -32.5 -13t-12.5 -33t12.5 -33t32.5 -13t32.5 13t12.5 33t-12.5 33t-32.5 13zM133 90q0 23 6 60.5t6 59.5v410q0 53 -27.5 72t-118.5 19v26q0 77 49.5 126.5t135.5 49.5q80 0 136 -58q1 1 2.5 5t2.5 6l24 41l79 -15v-5l-84 -108h-33q-45 62 -114 62 q-40 0 -66.5 -21.5t-31.5 -64.5q82 -9 117.5 -40.5t35.5 -94.5v-380q0 -29 -11 -51q46 0 76 -27.5t30 -71.5t-30.5 -71.5t-76.5 -27.5t-76.5 27.5t-30.5 71.5z" />
<glyph unicode="&#xe43;" horiz-adv-x="380" d="M113 820q-20 0 -32.5 -13t-12.5 -33t12.5 -33t32.5 -13t32.5 13t12.5 33t-12.5 33t-32.5 13zM240 136q-20 0 -32.5 -13t-12.5 -33t12.5 -33t32.5 -13t32.5 13t12.5 33t-12.5 33t-32.5 13zM133 90q0 23 6 60.5t6 59.5v300q0 37 14.5 67.5t35.5 51.5t41.5 41t35 45.5 t14.5 55.5q0 42 -29 64.5t-82 22.5h-2q47 -28 47 -84q0 -44 -30.5 -71.5t-76.5 -27.5t-76.5 27.5t-30.5 71.5q0 58 48 98.5t131 40.5q84 0 132.5 -41t48.5 -108q0 -41 -18 -75t-39 -54.5t-39 -53.5t-18 -71v-270q0 -29 -11 -51q46 0 76 -27.5t30 -71.5t-30.5 -71.5 t-76.5 -27.5t-76.5 27.5t-30.5 71.5z" />
<glyph unicode="&#xe44;" horiz-adv-x="380" d="M240 136q-20 0 -32.5 -13t-12.5 -33t12.5 -33t32.5 -13t32.5 13t12.5 33t-12.5 33t-32.5 13zM-1 884v5l71 20l51 -88q12 -22 20 -45q19 34 44 73q7 12 12 18.5t17 18t29 17.5t39 6q47 0 69 -24.5t22 -54.5q0 -31 -19 -68.5t-41.5 -69t-41.5 -78.5t-19 -94v-280 q0 -29 -11 -51q46 0 76 -27.5t30 -71.5t-30.5 -71.5t-76.5 -27.5t-76.5 27.5t-30.5 71.5q0 23 6 60.5t6 59.5v310q0 51 38.5 114.5t77 116t38.5 75.5q0 10 -7.5 19t-19.5 9q-21 -9 -40 -43l-77 -111h-39z" />
<glyph unicode="&#xe45;" horiz-adv-x="485" d="M15 468q9 61 59 106t136 45q89 0 142 -50.5t53 -125.5v-653h-107v653q0 51 -24.5 74t-63.5 23q-76 0 -88 -80z" />
<glyph unicode="&#xe46;" horiz-adv-x="590" d="M207 372q-20 0 -32.5 -13t-12.5 -33t12.5 -33t32.5 -13t32.5 13t12.5 33t-12.5 33t-32.5 13zM207 425q46 0 76.5 -27.5t30.5 -71.5t-30.5 -71.5t-76.5 -27.5q-74 0 -115.5 53t-41.5 132q0 91 44 144t94 57l92 -80l92 80q50 -4 94 -57t44 -144v-622h-107v622q0 72 -39 109 l-76 -61h-8h-8l-87 70q-48 -37 -48 -118v-9q28 22 70 22z" />
<glyph unicode="&#xe47;" d="M-173 778q-16 0 -25.5 -10t-9.5 -25t9.5 -25t25.5 -10t25.5 10t9.5 25t-9.5 25t-25.5 10zM-173 820q37 0 60.5 -21t23.5 -56t-23.5 -56t-60.5 -21q-35 0 -59 20t-25 52l-43 -67q-64 0 -102 29t-38 85t38 85t102 29h113q65 0 91 23l26 -49q-34 -26 -114 -26h-116 q-74 0 -74 -62q0 -52 53 -60l46 70h7l20 -14q22 39 75 39z" />
<glyph unicode="&#xe48;" d="M-185 955v175h80v-189z" />
<glyph unicode="&#xe49;" d="M-278 1092q-24 0 -24 -26t24 -26t24 26t-24 26zM-245 962q2 24 2 34q0 4 -0.5 11t-0.5 10q-16 -8 -34 -8q-27 0 -44 15.5t-17 41.5t17 41.5t44 15.5q73 0 80 -83q2 -36 2 -47q77 17 80 128l76 -11q-1 -76 -49 -118t-134 -42h-22v12z" />
<glyph unicode="&#xe4a;" d="M-228 1025q-24 0 -24 -26t24 -26t24 26t-24 26zM-228 1056q27 0 44 -15.5t17 -41.5t-17 -41.5t-44 -15.5q-43 0 -63 25.5t-20 62.5q0 46 26.5 70.5t51.5 26.5l49 -29l50 29q24 -2 47.5 -26t23.5 -71q0 -13 -5 -26q26 34 32 99l56 -10q-7 -62 -48.5 -104t-110.5 -44l-7 29 q34 19 34 56q0 39 -27 54l-42 -24h-3h-3l-44 25q-20 -11 -25 -34q13 5 28 5z" />
<glyph unicode="&#xe4b;" d="M-270 1015v45h89v70h73v-70h88v-45h-88v-74l-73 14v60h-89z" />
<glyph unicode="&#xe4c;" d="M-180 1064q-16 0 -26 -10t-10 -27t10 -27t26 -10t26 10t10 27t-10 27t-26 10zM-270 1027q0 39 23.5 64t68.5 25h28q39 0 56 13.5t17 46.5l77 -9q0 -39 -26.5 -64t-76.5 -30q13 -21 13 -46q0 -38 -25.5 -61t-64.5 -23t-64.5 23t-25.5 61z" />
<glyph unicode="&#xe4d;" d="M-180 879q46 0 76.5 -27.5t30.5 -71.5t-30.5 -71.5t-76.5 -27.5t-76.5 27.5t-30.5 71.5t30.5 71.5t76.5 27.5zM-180 826q-20 0 -32.5 -13t-12.5 -33t12.5 -33t32.5 -13t32.5 13t12.5 33t-12.5 33t-32.5 13z" />
<glyph unicode="&#xe4e;" d="M-360 759q0 31 24 55t64 24q7 0 10 -1v2q0 32 21.5 56.5t61.5 24.5t70 -30l39 -40l-39 -34l-47 47q-12 12 -23 12q-10 0 -21 -9.5t-11 -26.5q0 -18 11 -30l37 -39l-38 -34l-48 47q-12 12 -23 12q-10 0 -19.5 -9.5t-9.5 -26.5q0 -19 15 -34l40 -39l-40 -36l-47 48 q-27 27 -27 61z" />
<glyph unicode="&#xe4f;" horiz-adv-x="660" d="M330 346q-20 0 -32.5 -13t-12.5 -33t12.5 -33t32.5 -13t32.5 13t12.5 33t-12.5 33t-32.5 13zM330 399q46 0 76.5 -27.5t30.5 -71.5t-30.5 -71.5t-76.5 -27.5t-76.5 27.5t-30.5 71.5t30.5 71.5t76.5 27.5zM330 52q-118 0 -189 71t-71 177t71 177t189 71t189 -71t71 -177 t-71 -177t-189 -71zM330 111q84 0 135.5 51t51.5 138t-51.5 138t-135.5 51t-135.5 -51t-51.5 -138t51.5 -138t135.5 -51z" />
<glyph unicode="&#xe50;" horiz-adv-x="720" d="M65 286v28q0 57 15.5 108.5t48 97t92 72.5t139.5 27t139.5 -27t92 -72.5t48 -97t15.5 -108.5v-28q0 -57 -15.5 -108.5t-48 -97t-92 -72.5t-139.5 -27t-139.5 27t-92 72.5t-48 97t-15.5 108.5zM360 60q93 0 140.5 60.5t47.5 165.5v28q0 105 -47.5 165.5t-140.5 60.5 t-140.5 -60.5t-47.5 -165.5v-28q0 -105 47.5 -165.5t140.5 -60.5z" />
<glyph unicode="&#xe51;" horiz-adv-x="720" d="M65 334q0 52 16.5 100.5t50.5 91t93 68t135 25.5q80 0 139.5 -27t92 -72.5t48 -97t15.5 -107.5v-22q0 -121 -97 -221t-249 -111l-11 79q103 7 178 82.5t75 170.5v22q0 103 -48.5 164.5t-142.5 61.5q-91 0 -143 -58t-52 -149q0 -57 33.5 -90.5t82.5 -33.5q45 0 79 21 q-46 0 -76.5 27.5t-30.5 71.5t30.5 71.5t76.5 27.5t76.5 -27.5t30.5 -71.5q0 -75 -52.5 -130.5t-148.5 -55.5q-94 0 -147.5 59t-53.5 131zM360 376q-20 0 -32.5 -13t-12.5 -33t12.5 -33t32.5 -13t32.5 13t12.5 33t-12.5 33t-32.5 13z" />
<glyph unicode="&#xe52;" horiz-adv-x="810" d="M80 189v561h103v-561q0 -50 31 -80t69 -30h257q38 0 69 30t31 80v223q0 75 -42 112l-80 -64h-8h-8l-87 70q-48 -37 -48 -118v-9q28 22 70 22q46 0 76.5 -27.5t30.5 -71.5t-30.5 -71.5t-76.5 -27.5q-74 0 -115.5 53t-41.5 132q0 91 44 144t94 57l92 -80l92 80 q50 -4 94 -57t44 -144v-223q0 -75 -54 -132t-149 -57h-254q-95 0 -149 57t-54 132zM437 372q-20 0 -32.5 -13t-12.5 -33t12.5 -33t32.5 -13t32.5 13t12.5 33t-12.5 33t-32.5 13z" />
<glyph unicode="&#xe53;" horiz-adv-x="720" d="M227 136q-20 0 -32.5 -13t-12.5 -33t12.5 -33t32.5 -13t32.5 13t12.5 33t-12.5 33t-32.5 13zM227 189q46 0 76.5 -27.5t30.5 -71.5t-30.5 -71.5t-76.5 -27.5q-52 0 -88.5 30t-49.5 77q-14 58 -14 115v212q0 36 7.5 68t24.5 61.5t49.5 47t76.5 17.5q84 0 127 -84 q43 84 127 84q44 0 76.5 -17.5t49.5 -47t24.5 -61.5t7.5 -68v-244q0 -71 -16.5 -114.5t-59.5 -75.5l-78 54q26 19 38.5 48t12.5 88v244q0 115 -63 115q-31 0 -50 -32.5t-19 -82.5v-200h-100v200q0 50 -19 82.5t-50 32.5q-63 0 -63 -115v-221q0 -17 -1 -25q21 10 50 10z" />
<glyph unicode="&#xe54;" horiz-adv-x="720" d="M508 351q-20 0 -32.5 -13t-12.5 -33t12.5 -33t32.5 -13t32.5 13t12.5 33t-12.5 33t-32.5 13zM65 297v15q0 119 76.5 204.5t214.5 92.5q51 3 114 9q64 8 83 19q37 25 45 116l107 -11q-8 -103 -61.5 -145.5t-155.5 -55.5q-50 -7 -125 -11q-86 -5 -138.5 -64t-52.5 -154v-15 q0 -96 49.5 -157t137.5 -61h69q-66 60 -66 154q0 75 37.5 123t108.5 48q46 0 76.5 -27.5t30.5 -71.5t-30.5 -71.5t-76.5 -27.5q-39 0 -67 20q1 -66 46 -106.5t106 -40.5h52v-79h-286q-76 0 -135 26.5t-92.5 70.5t-50 94.5t-16.5 105.5z" />
<glyph unicode="&#xe55;" horiz-adv-x="720" d="M382 704q-20 0 -32.5 -13t-12.5 -33t12.5 -33t32.5 -13t32.5 13t12.5 33t-12.5 33t-32.5 13zM382 757q46 0 76.5 -27.5t30.5 -71.5q0 -29 -14 -52h9q58 4 83.5 34t30.5 113l107 -11q-11 -185 -203 -204q-11 -1 -38 -1q-49 0 -76 5q-106 -11 -161 -70t-55 -160v-15 q0 -96 49.5 -157t137.5 -61h69q-66 60 -66 154q0 75 37.5 123t108.5 48q46 0 76.5 -27.5t30.5 -71.5t-30.5 -71.5t-76.5 -27.5q-39 0 -67 20q1 -66 46 -106.5t106 -40.5h52v-79h-286q-76 0 -135 26.5t-92.5 70.5t-50 94.5t-16.5 105.5v15q0 105 59 181.5t174 100.5 q-23 28 -23 64q0 44 30.5 71.5t76.5 27.5zM508 351q-20 0 -32.5 -13t-12.5 -33t12.5 -33t32.5 -13t32.5 13t12.5 33t-12.5 33t-32.5 13z" />
<glyph unicode="&#xe56;" horiz-adv-x="720" d="M212 206q-20 0 -32.5 -13t-12.5 -33t12.5 -33t32.5 -13t32.5 13t12.5 33t-12.5 33t-32.5 13zM212 259q46 0 76.5 -27.5t30.5 -71.5q0 -61 -52 -87q42 -15 100 -15q91 0 136 61t45 167v28q0 104 -45 163t-130 59q-72 0 -115 -39.5t-51 -83.5l-83 7l-59 322l107 11l22 -217 q63 83 183 83q72 0 127.5 -27t87.5 -72t47.5 -97.5t15.5 -108.5v-28q0 -57 -15 -108.5t-46.5 -97t-88.5 -72.5t-132 -27q-135 0 -201.5 55t-66.5 124q0 44 30.5 71.5t76.5 27.5z" />
<glyph unicode="&#xe57;" horiz-adv-x="905" d="M227 136q-20 0 -32.5 -13t-12.5 -33t12.5 -33t32.5 -13t32.5 13t12.5 33t-12.5 33t-32.5 13zM227 189q46 0 76.5 -27.5t30.5 -71.5t-30.5 -71.5t-76.5 -27.5q-52 0 -88.5 30t-49.5 77q-14 58 -14 115v212q0 36 7.5 68t24.5 61.5t49.5 47t76.5 17.5q84 0 127 -84 q43 84 127 84q36 0 63.5 -12t43.5 -30.5t26.5 -45t14 -52t3.5 -54.5v-244q0 -74 -23 -120q50 15 81.5 47.5t31.5 81.5v560h97v-560q0 -89 -72 -144t-198 -55l-64 54q26 19 38.5 48t12.5 88v244q0 115 -63 115q-31 0 -50 -32.5t-19 -82.5v-200h-100v200q0 50 -19 82.5 t-50 32.5q-63 0 -63 -115v-221q0 -17 -1 -25q21 10 50 10z" />
<glyph unicode="&#xe58;" horiz-adv-x="750" d="M548 351q-20 0 -32.5 -13t-12.5 -33t12.5 -33t32.5 -13t32.5 13t12.5 33t-12.5 33t-32.5 13zM65 296v16q0 116 76.5 200t214.5 91q68 4 122 9q35 5 51 9.5t33 18.5t24.5 41t11.5 73l107 -11q-8 -105 -60 -150.5t-149 -57.5q-46 -7 -133 -11q-86 -5 -138.5 -61.5 t-52.5 -150.5v-16q0 -29 4.5 -58t9.5 -46t14 -45t12 -38l105 151h81q0 -98 23.5 -146t76.5 -48q94 0 97 149q-21 -9 -47 -9q-46 0 -76.5 27.5t-30.5 71.5t30.5 71.5t76.5 27.5q71 0 100.5 -51.5t29.5 -125.5q0 -44 -8.5 -82.5t-27.5 -74.5t-56 -57.5t-88 -21.5 q-76 0 -116.5 46.5t-53.5 120.5l-109 -158h-89v29q0 31 -32.5 116t-32.5 151z" />
<glyph unicode="&#xe59;" horiz-adv-x="720" d="M545 196q-20 0 -32.5 -13t-12.5 -33t12.5 -33t32.5 -13t32.5 13t12.5 33t-12.5 33t-32.5 13zM173 445q0 62 46.5 102.5t122.5 48.5q28 3 71 6t50 4q25 3 36 5t28 8t24.5 14.5t16.5 24t13.5 39t6.5 56.5l107 -11q-8 -109 -61.5 -153.5t-152.5 -57.5q-15 -2 -63.5 -5.5 t-70.5 -5.5q-77 -8 -77 -78q0 -36 22 -52q29 3 62 3h206v-79h-206q-192 0 -192 -129q0 -128 192 -128q79 0 123 14q-39 28 -39 79q0 44 30.5 71.5t76.5 27.5t76.5 -27.5t30.5 -71.5q0 -71 -74.5 -120t-223.5 -49q-151 0 -225 58t-74 146q0 62 36.5 112t111.5 75 q-30 30 -30 73z" />
<glyph unicode="&#xe5a;" horiz-adv-x="675" d="M590 0h-93v600h93v-600zM147 556q-20 0 -32.5 -13t-12.5 -33t12.5 -33t32.5 -13t32.5 13t12.5 33t-12.5 33t-32.5 13zM147 609q46 0 76.5 -27.5t30.5 -71.5q0 -27 -13 -50q84 32 107 135l35 5q15 -15 19 -42.5t4 -80.5v-325q0 -43 -20 -75t-57 -50.5t-77 -29t-93 -16.5 l-16 77q94 11 132 30.5t38 63.5v231q0 20 17 73q-63 -56 -159 -56q-62 0 -96.5 30.5t-34.5 79.5q0 44 30.5 71.5t76.5 27.5z" />
<glyph unicode="&#xe5b;" horiz-adv-x="900" d="M70 300q0 106 71 177t189 71v-59q-84 0 -135.5 -51t-51.5 -138t51.5 -138t135.5 -51t135.5 51t51.5 138q0 88 -47 139l51 36q31 -35 48 -79l76 -174l37 207l40 5l61 -115h87v-38h-110l-44 78l-39 -214l-48 -5l-50 111q-15 -89 -80.5 -144t-168.5 -55q-118 0 -189 71 t-71 177zM330 346q-20 0 -32.5 -13t-12.5 -33t12.5 -33t32.5 -13t32.5 13t12.5 33t-12.5 33t-32.5 13zM330 399q46 0 76.5 -27.5t30.5 -71.5t-30.5 -71.5t-76.5 -27.5t-76.5 27.5t-30.5 71.5t30.5 71.5t76.5 27.5z" />
<glyph unicode="&#xe81;" horiz-adv-x="690" d="M155 136q-20 0 -32.5 -13t-12.5 -33t12.5 -33t32.5 -13t32.5 13t12.5 33t-12.5 33t-32.5 13zM155 464q20 0 32.5 13t12.5 33t-12.5 33t-32.5 13t-32.5 -13t-12.5 -33t12.5 -33t32.5 -13zM147 189q-14 25 -14 51v60v60q0 26 14 51q-43 2 -71 29.5t-28 69.5q0 44 30.5 71.5 t76.5 27.5t76 -27t31 -71q22 22 37.5 36t40 31.5t52.5 26.5t58 9q83 0 126.5 -57t43.5 -141v-416h-107v416q0 119 -87 119q-31 0 -61.5 -16t-68.5 -47t-50 -39q-6 -26 -6 -43v-90v-90q0 -22 11 -59.5t11 -60.5q0 -44 -30.5 -71.5t-76.5 -27.5t-76.5 27.5t-30.5 71.5 q0 42 28 69.5t71 29.5z" />
<glyph unicode="&#xe82;" horiz-adv-x="625" d="M167 404q20 0 32.5 13t12.5 33t-12.5 33t-32.5 13t-32.5 -13t-12.5 -33t12.5 -33t32.5 -13zM492 108q-118 -127 -250 -127q-84 0 -133 40.5t-49 108.5q0 90 125 141q2 1 7 2l6 3q69 28 156 64q23 10 31.5 14.5t27 17t26.5 28.5t8 38q0 51 -40.5 80t-101.5 29 q-45 0 -83 -11q52 -27 52 -86q0 -44 -30.5 -71.5t-76.5 -27.5t-76.5 27.5t-30.5 71.5q0 71 68.5 120t176.5 49q109 0 177 -51t68 -130q0 -31 -10.5 -57.5t-23.5 -42.5t-36.5 -32t-36.5 -22.5t-37 -16.5q-23 -10 -80.5 -33t-76.5 -31q-29 -12 -43.5 -19t-28.5 -22.5 t-14 -34.5q0 -33 21.5 -51.5t60.5 -18.5q116 0 237 133h54l74 -183v-4l-83 -16l-26 78q-2 8 -9 43z" />
<glyph unicode="&#xe84;" horiz-adv-x="670" d="M65 432q0 78 72.5 132.5t192.5 54.5q122 0 193.5 -58t71.5 -150v-411h-105v411q0 64 -42 96.5t-118 32.5q-75 0 -118.5 -29.5t-43.5 -82.5q0 -45 42.5 -68.5t114.5 -23.5v-63q-170 0 -180 -115q29 31 80 31q46 0 76.5 -27.5t30.5 -71.5t-30.5 -71.5t-76.5 -27.5 q-73 0 -116.5 44t-43.5 110q0 57 30.5 99t79.5 63q-110 32 -110 125zM225 136q-20 0 -32.5 -13t-12.5 -33t12.5 -33t32.5 -13t32.5 13t12.5 33t-12.5 33t-32.5 13z" />
<glyph unicode="&#xe87;" horiz-adv-x="520" d="M147 496q-20 0 -32.5 -13t-12.5 -33t12.5 -33t32.5 -13t32.5 13t12.5 33t-12.5 33t-32.5 13zM40 450q0 71 55.5 120t144.5 49q93 0 146.5 -50.5t53.5 -125.5v-496q0 -73 -40 -124.5t-124 -51.5q-86 0 -139 62.5t-77 158.5l97 19q20 -82 53.5 -121.5t65.5 -39.5 q61 0 61 97v499q0 54 -27.5 81t-72.5 27q-28 0 -55 -10q33 -9 52.5 -34t19.5 -60q0 -44 -30.5 -71.5t-76.5 -27.5t-76.5 27.5t-30.5 71.5z" />
<glyph unicode="&#xe88;" horiz-adv-x="590" d="M30 431q11 78 74.5 133t170.5 55q110 0 177.5 -56.5t67.5 -145.5q0 -75 -33 -181t-33 -153v-44q0 -20 -18 -31.5t-50 -11.5l-50 4q-5 127 -46 209q-28 -47 -93 -47q-46 0 -76.5 27.5t-30.5 71.5t30.5 71.5t76.5 27.5q39 0 70 -19t51.5 -52t33 -69.5t20.5 -80.5 q2 26 23 119.5t21 158.5q0 61 -38.5 92t-102.5 31q-59 0 -94.5 -30t-43.5 -86zM197 215q20 0 32.5 13t12.5 33t-12.5 33t-32.5 13t-32.5 -13t-12.5 -33t12.5 -33t32.5 -13z" />
<glyph unicode="&#xe8a;" horiz-adv-x="625" d="M640 -194l-86 -30q-82 110 -82 252q0 27 4 63q-108 -110 -234 -110q-84 0 -133 40.5t-49 108.5q0 90 125 141q2 1 7 2l6 3q69 28 156 64q23 10 31.5 14.5t27 17t26.5 28.5t8 38q0 51 -40.5 80t-101.5 29q-45 0 -83 -11q52 -27 52 -86q0 -44 -30.5 -71.5t-76.5 -27.5 t-76.5 27.5t-30.5 71.5q0 71 68.5 120t176.5 49q109 0 177 -51t68 -130q0 -31 -10.5 -57.5t-23.5 -42.5t-36.5 -32t-36.5 -22.5t-37 -16.5q-23 -10 -80.5 -33t-76.5 -31q-29 -12 -43.5 -19t-28.5 -22.5t-14 -34.5q0 -33 21.5 -51.5t60.5 -18.5q116 0 237 133l76 -11v-112 q0 -63 14 -116t27.5 -77t35.5 -56q2 -2 3 -3.5t2 -3.5v-5zM167 404q20 0 32.5 13t12.5 33t-12.5 33t-32.5 13t-32.5 -13t-12.5 -33t12.5 -33t32.5 -13z" />
<glyph unicode="&#xe8d;" horiz-adv-x="670" d="M65 168q0 93 110 125q-49 21 -79.5 63t-30.5 99q0 66 43.5 110t116.5 44q46 0 76.5 -27.5t30.5 -71.5t-30.5 -71.5t-76.5 -27.5q-51 0 -80 31q10 -115 180 -115v-63q-72 0 -114.5 -23.5t-42.5 -68.5q0 -53 43.5 -82.5t118.5 -29.5q76 0 118 32.5t42 96.5v411h105v-411 q0 -92 -71.5 -150t-193.5 -58q-120 0 -192.5 54.5t-72.5 132.5zM225 464q20 0 32.5 13t12.5 33t-12.5 33t-32.5 13t-32.5 -13t-12.5 -33t12.5 -33t32.5 -13z" />
<glyph unicode="&#xe94;" horiz-adv-x="665" d="M230 136q-20 0 -32.5 -13t-12.5 -33t12.5 -33t32.5 -13t32.5 13t12.5 33t-12.5 33t-32.5 13zM230 189q46 0 76.5 -27.5t30.5 -71.5t-30.5 -71.5t-76.5 -27.5q-73 0 -116.5 44t-43.5 110v254q0 96 71.5 158t188.5 62t188.5 -62t71.5 -158v-399h-105v399q0 70 -41 105.5 t-114 35.5t-114 -35.5t-41 -105.5v-193q0 -13 -4 -31q26 14 59 14z" />
<glyph unicode="&#xe95;" horiz-adv-x="685" d="M230 136q-20 0 -32.5 -13t-12.5 -33t12.5 -33t32.5 -13t32.5 13t12.5 33t-12.5 33t-32.5 13zM230 189q46 0 76.5 -27.5t30.5 -71.5t-30.5 -71.5t-76.5 -27.5q-73 0 -116.5 44t-43.5 110v331q0 61 38.5 102t109.5 41q76 0 122 -61q46 61 122 61q71 0 109.5 -41t38.5 -102 v-476h-105v476q0 34 -17 49t-43 15q-24 0 -41 -15t-21 -40v-115h-86v115q-4 25 -21 40t-41 15q-26 0 -43 -15t-17 -49v-270q0 -13 -4 -31q26 14 59 14z" />
<glyph unicode="&#xe96;" horiz-adv-x="695" d="M212 136q-20 0 -32.5 -13t-12.5 -33t12.5 -33t32.5 -13t32.5 13t12.5 33t-12.5 33t-32.5 13zM155 464q20 0 32.5 13t12.5 33t-12.5 33t-32.5 13t-32.5 -13t-12.5 -33t12.5 -33t32.5 -13zM233 426q-8 -19 -8 -39v-87v-60q0 -27 -12 -51q46 0 76 -27.5t30 -71.5 t-30.5 -71.5t-76.5 -27.5t-76.5 27.5t-30.5 71.5q0 23 7.5 60.5t7.5 59.5v90v63q0 25 17 49q-40 5 -64.5 31.5t-24.5 66.5q0 44 30.5 71.5t76.5 27.5t76 -26.5t31 -69.5q29 29 50.5 47.5t60 36t77.5 17.5q83 0 126.5 -57t43.5 -141v-626h-107v626q0 119 -87 119 q-33 0 -67 -19t-71 -49.5t-55 -40.5z" />
<glyph unicode="&#xe97;" horiz-adv-x="760" d="M154 464q20 0 32.5 13t12.5 33t-12.5 33t-32.5 13t-32.5 -13t-12.5 -33t12.5 -33t32.5 -13zM154 411q-46 0 -76.5 27.5t-30.5 71.5t30.5 71.5t76.5 27.5t76.5 -27.5t30.5 -71.5q0 -46 -29.5 -110.5t-29.5 -109.5v-154q0 -78 73 -78q78 0 78 78v325q0 65 43.5 109 t119.5 44q79 0 124 -44t45 -109v-461h-103v464q0 78 -66 78q-71 0 -71 -78v-325q0 -65 -45 -109t-125 -44q-82 0 -129 44t-47 109v151q0 56 61 121h-6z" />
<glyph unicode="&#xe99;" horiz-adv-x="680" d="M155 464q20 0 32.5 13t12.5 33t-12.5 33t-32.5 13t-32.5 -13t-12.5 -33t12.5 -33t32.5 -13zM246 103q-13 -58 -59.5 -86t-94.5 -31l-22 69q73 8 73 82v223q0 29 11 51q-46 0 -76 27.5t-30 71.5t30.5 71.5t76.5 27.5t76.5 -27.5t30.5 -71.5q0 -23 -6 -60.5t-6 -59.5v-180 q26 -64 70 -104.5t95 -40.5q38 0 63 26.5t25 85.5v423h107v-416q0 -84 -43 -141t-125 -57q-120 0 -196 117z" />
<glyph unicode="&#xe9a;" horiz-adv-x="690" d="M95 189v101q0 55 62 121h-4q-46 0 -76.5 27.5t-30.5 71.5t30.5 71.5t76.5 27.5t76.5 -27.5t30.5 -71.5q0 -46 -29 -110.5t-29 -109.5v-101q0 -63 41.5 -96t111.5 -33t112 33t42 96v411h106v-411q0 -91 -72 -149.5t-188 -58.5t-188 58.5t-72 149.5zM153 464q20 0 32.5 13 t12.5 33t-12.5 33t-32.5 13t-32.5 -13t-12.5 -33t12.5 -33t32.5 -13z" />
<glyph unicode="&#xe9b;" horiz-adv-x="695" d="M95 189v101q0 55 62 121h-4q-46 0 -76.5 27.5t-30.5 71.5t30.5 71.5t76.5 27.5t76.5 -27.5t30.5 -71.5q0 -46 -29 -110.5t-29 -109.5v-101q0 -63 41.5 -96t111.5 -33t112 33t42 96v621h106v-621q0 -91 -72 -149.5t-188 -58.5t-188 58.5t-72 149.5zM153 464q20 0 32.5 13 t12.5 33t-12.5 33t-32.5 13t-32.5 -13t-12.5 -33t12.5 -33t32.5 -13z" />
<glyph unicode="&#xe9c;" horiz-adv-x="790" d="M235 609q46 0 76.5 -27.5t30.5 -71.5t-30.5 -71.5t-76.5 -27.5q-33 0 -59 14q4 -18 4 -31v-265q0 -34 22.5 -51.5t54.5 -17.5q34 0 55 21t21 57l1 192h92l1 -192q0 -36 21 -57t55 -21q32 0 54.5 17.5t22.5 51.5v281q0 18 6 31h-6q-46 0 -76.5 27.5t-30.5 71.5t30.5 71.5 t76.5 27.5t76.5 -27.5t30.5 -71.5v-6q20 29 24 94l62 -7q-12 -102 -87 -147q0 -6 -0.5 -20t-0.5 -24v-301q0 -63 -43 -105.5t-122 -42.5q-88 0 -140 69q-52 -69 -140 -69q-79 0 -122 42.5t-43 105.5v326q0 66 43.5 110t116.5 44zM235 464q20 0 32.5 13t12.5 33t-12.5 33 t-32.5 13t-32.5 -13t-12.5 -33t12.5 -33t32.5 -13zM580 494q20 0 32.5 13t12.5 33t-12.5 33t-32.5 13t-32.5 -13t-12.5 -33t12.5 -33t32.5 -13z" />
<glyph unicode="&#xe9d;" horiz-adv-x="765" d="M235 464q20 0 32.5 13t12.5 33t-12.5 33t-32.5 13t-32.5 -13t-12.5 -33t12.5 -33t32.5 -13zM235 609q46 0 76.5 -27.5t30.5 -71.5t-30.5 -71.5t-76.5 -27.5q-33 0 -59 14q4 -18 4 -31v-265q0 -34 22.5 -51.5t54.5 -17.5q34 0 55 21t21 57l1 192h92l1 -192q0 -36 21 -57 t55 -21q32 0 54.5 17.5t22.5 51.5v681h105v-681q0 -63 -43 -105.5t-122 -42.5q-88 0 -140 69q-52 -69 -140 -69q-79 0 -122 42.5t-43 105.5v326q0 66 43.5 110t116.5 44z" />
<glyph unicode="&#xe9e;" horiz-adv-x="760" d="M152 464q20 0 32.5 13t12.5 33t-12.5 33t-32.5 13t-32.5 -13t-12.5 -33t12.5 -33t32.5 -13zM152 411q-46 0 -76.5 27.5t-30.5 71.5t30.5 71.5t76.5 27.5t76.5 -27.5t30.5 -71.5q0 -46 -30 -110.5t-30 -109.5v-161q0 -34 21 -51.5t51 -17.5q31 0 51.5 21t20.5 56v193h93 v-193q0 -35 20.5 -56t51.5 -21q30 0 51 17.5t21 51.5v471h105v-471q0 -63 -42 -105.5t-118 -42.5q-86 0 -136 70q-50 -70 -135 -70q-76 0 -118 42.5t-42 105.5v161q0 55 62 121h-4z" />
<glyph unicode="&#xe9f;" horiz-adv-x="765" d="M152 464q20 0 32.5 13t12.5 33t-12.5 33t-32.5 13t-32.5 -13t-12.5 -33t12.5 -33t32.5 -13zM152 411q-46 0 -76.5 27.5t-30.5 71.5t30.5 71.5t76.5 27.5t76.5 -27.5t30.5 -71.5q0 -46 -30 -110.5t-30 -109.5v-161q0 -34 21 -51.5t51 -17.5q31 0 51.5 21t20.5 56v193h93 v-193q0 -35 20.5 -56t51.5 -21q30 0 51 17.5t21 51.5v681h105v-681q0 -63 -42 -105.5t-118 -42.5q-86 0 -136 70q-50 -70 -135 -70q-76 0 -118 42.5t-42 105.5v161q0 55 62 121h-4z" />
<glyph unicode="&#xea1;" horiz-adv-x="670" d="M145 136q-20 0 -32.5 -13t-12.5 -33t12.5 -33t32.5 -13t32.5 13t12.5 33t-12.5 33t-32.5 13zM239 159q10 -7 36.5 -28.5t42 -33t40.5 -22t48 -10.5q87 0 87 119v416h107v-416q0 -84 -43.5 -141t-126.5 -57q-86 0 -179 93q-4 -40 -33.5 -64t-72.5 -24q-46 0 -76.5 27.5 t-30.5 71.5q0 42 28 69.5t71 29.5q-14 25 -14 51v360h107v-390q0 -22 9 -51z" />
<glyph unicode="&#xea2;" horiz-adv-x="675" d="M65 168q0 93 110 125q-49 21 -79.5 63t-30.5 99q0 66 43.5 110t116.5 44q46 0 76.5 -27.5t30.5 -71.5t-30.5 -71.5t-76.5 -27.5q-51 0 -80 31q10 -115 180 -115v-63q-72 0 -114.5 -23.5t-42.5 -68.5q0 -53 43.5 -82.5t118.5 -29.5q76 0 118 32.5t42 96.5v621h105v-621 q0 -92 -71.5 -150t-193.5 -58q-120 0 -192.5 54.5t-72.5 132.5zM225 464q20 0 32.5 13t12.5 33t-12.5 33t-32.5 13t-32.5 -13t-12.5 -33t12.5 -33t32.5 -13z" />
<glyph unicode="&#xea3;" horiz-adv-x="610" d="M167 196q-20 0 -32.5 -13t-12.5 -33t12.5 -33t32.5 -13t32.5 13t12.5 33t-12.5 33t-32.5 13zM167 249q46 0 76.5 -27.5t30.5 -71.5q0 -59 -52 -86q38 -11 83 -11q61 0 101.5 29t40.5 80q0 22 -8 38t-26.5 28.5t-27 17t-31.5 14.5q-87 36 -156 64q-71 29 -100 58 q-38 38 -38 88q0 62 67.5 105.5t179.5 43.5q103 0 171.5 -46t81.5 -97l-99 -13q-7 29 -46.5 54.5t-107.5 25.5q-73 0 -108.5 -21.5t-35.5 -48.5q0 -19 14 -34.5t28.5 -22.5t43.5 -19q19 -8 76.5 -31t80.5 -33q24 -10 37 -16.5t36.5 -22.5t36.5 -32t23.5 -42.5t10.5 -57.5 q0 -79 -68 -130t-177 -51q-108 0 -176.5 49t-68.5 120q0 44 30.5 71.5t76.5 27.5z" />
<glyph unicode="&#xea5;" horiz-adv-x="655" d="M193 136q-20 0 -32.5 -13t-12.5 -33t12.5 -33t32.5 -13t32.5 13t12.5 33t-12.5 33t-32.5 13zM193 189q46 0 76.5 -27.5t30.5 -71.5t-30.5 -71.5t-76.5 -27.5q-54 0 -88.5 33t-34.5 83v40q0 62 38 108.5t120 46.5q161 0 256 -180q-7 33 -7 58v225q0 67 -42.5 101 t-114.5 34q-65 0 -105 -34t-48 -95l-107 8q11 83 79 141.5t181 58.5q117 0 188.5 -59.5t71.5 -154.5v-352q0 -23 -19.5 -40t-52.5 -17l-46 4q-7 28 -18.5 56.5t-32 61.5t-45 57.5t-61 41t-77.5 16.5q-56 0 -66 -48q20 4 31 4z" />
<glyph unicode="&#xea7;" horiz-adv-x="600" d="M162 196q-20 0 -32.5 -13t-12.5 -33t12.5 -33t32.5 -13t32.5 13t12.5 33t-12.5 33t-32.5 13zM162 249q46 0 76.5 -27.5t30.5 -71.5q0 -54 -45 -82q31 -11 66 -11q59 0 93.5 30t34.5 89v241q0 62 -37 92.5t-101 30.5q-59 0 -94.5 -30.5t-43.5 -86.5l-107 8q11 78 74.5 133 t170.5 55q110 0 177.5 -56.5t67.5 -145.5v-241q0 -86 -64.5 -140.5t-170.5 -54.5q-105 0 -170 49.5t-65 119.5q0 44 30.5 71.5t76.5 27.5z" />
<glyph unicode="&#xeaa;" horiz-adv-x="665" d="M193 136q-20 0 -32.5 -13t-12.5 -33t12.5 -33t32.5 -13t32.5 13t12.5 33t-12.5 33t-32.5 13zM193 189q46 0 76.5 -27.5t30.5 -71.5t-30.5 -71.5t-76.5 -27.5q-54 0 -88.5 33t-34.5 83v40q0 62 38 108.5t120 46.5q161 0 256 -180q-7 33 -7 58v134q0 25 2 57.5t2 48.5 q-75 -50 -180 -50t-173 32t-68 78q0 49 64.5 94t176.5 45q138 0 213 -79q21 40 23 99l93 -9q-2 -41 -20 -79t-50 -63q20 -38 20 -71v-364q0 -23 -19.5 -40t-52.5 -17l-46 4q-7 28 -18.5 56.5t-32 61.5t-45 57.5t-61 41t-77.5 16.5q-56 0 -66 -48q20 4 31 4zM159 480 q0 -11 11 -22t45 -20t86 -9q103 0 163 52q-21 35 -64.5 55t-98.5 20q-66 0 -104 -24t-38 -52z" />
<glyph unicode="&#xeab;" horiz-adv-x="800" d="M411 464q20 0 32.5 13t12.5 33t-12.5 33t-32.5 13t-32.5 -13t-12.5 -33t12.5 -33t32.5 -13zM154 464q20 0 32.5 13t12.5 33t-12.5 33t-32.5 13t-32.5 -13t-12.5 -33t12.5 -33t32.5 -13zM154 411q-46 0 -76.5 27.5t-30.5 71.5t30.5 71.5t76.5 27.5t76.5 -27.5t30.5 -71.5 q0 -46 -29.5 -110.5t-29.5 -109.5v-152q0 -80 83 -80q88 0 88 80v182q0 45 38 91q-46 0 -76.5 27.5t-30.5 71.5t30.5 71.5t76.5 27.5q36 0 63 -16.5t38 -45.5q51 62 105 62q108 0 108 -168v-441h-103v427q0 54 -9.5 76.5t-32.5 22.5q-35 0 -65 -48q-5 -21 -27.5 -63.5 t-22.5 -74.5v-199q0 -67 -46.5 -111t-133.5 -44q-89 0 -137.5 44t-48.5 111v149q0 56 61 121h-6z" />
<glyph unicode="&#xead;" horiz-adv-x="640" d="M167 196q-20 0 -32.5 -13t-12.5 -33t12.5 -33t32.5 -13t32.5 13t12.5 33t-12.5 33t-32.5 13zM167 249q46 0 76.5 -27.5t30.5 -71.5q0 -61 -55 -88q47 -9 96 -9q64 0 108 37t44 99v110q0 24 0.5 43.5t2 36t1.5 25.5q-70 -47 -177 -47q-108 0 -176 34t-68 81 q0 50 64.5 98.5t179.5 48.5q126 0 201 -55.5t75 -146.5v-228q0 -90 -69.5 -149t-185.5 -59q-114 0 -184.5 49t-70.5 120q0 44 30.5 71.5t76.5 27.5zM459 470q-19 40 -63 63t-102 23q-65 0 -105 -28t-40 -56q0 -12 10.5 -23.5t45 -22.5t89.5 -11q110 0 165 55z" />
<glyph unicode="&#xeae;" horiz-adv-x="625" d="M167 196q-20 0 -32.5 -13t-12.5 -33t12.5 -33t32.5 -13t32.5 13t12.5 33t-12.5 33t-32.5 13zM492 492q7 35 9 43l26 78l83 -16v-4l-74 -183h-54q-121 133 -237 133q-39 0 -60.5 -18.5t-21.5 -51.5q0 -19 14 -34.5t28.5 -22.5t43.5 -19q19 -8 76.5 -31t80.5 -33 q24 -10 37 -16.5t36.5 -22.5t36.5 -32t23.5 -42.5t10.5 -57.5q0 -79 -68 -130t-177 -51q-108 0 -176.5 49t-68.5 120q0 44 30.5 71.5t76.5 27.5t76.5 -27.5t30.5 -71.5q0 -59 -52 -86q38 -11 83 -11q61 0 101.5 29t40.5 80q0 22 -8 38t-26.5 28.5t-27 17t-31.5 14.5 q-87 36 -156 64q-71 29 -100 58q-38 38 -38 88q0 68 49 108.5t133 40.5q132 0 250 -127z" />
<glyph unicode="&#xeaf;" horiz-adv-x="600" d="M185 56q102 9 169.5 42t67.5 97v225q0 9 2 31q-79 -153 -221 -153q-82 0 -120 46.5t-38 108.5v40q0 50 34.5 83t88.5 33q46 0 76.5 -27.5t30.5 -71.5t-30.5 -71.5t-76.5 -27.5q-11 0 -31 4q10 -48 66 -48q48 0 87 23.5t63.5 63t39 73.5t24.5 73q17 4 46 4q30 0 46 -17 t16 -40v-352q0 -92 -90 -149t-228 -65zM168 464q20 0 32.5 13t12.5 33t-12.5 33t-32.5 13t-32.5 -13t-12.5 -33t12.5 -33t32.5 -13z" />
<glyph unicode="&#xeb0;" horiz-adv-x="540" d="M167 506q-20 0 -32.5 -13t-12.5 -33t12.5 -33t32.5 -13t32.5 13t12.5 33t-12.5 33t-32.5 13zM167 559q46 0 76.5 -27.5t30.5 -71.5q0 -36 -20 -61h3h30q48 0 74.5 38t28.5 102l90 -11q-2 -81 -51 -133t-139 -52h-75q-74 0 -114.5 33t-40.5 84q0 44 30.5 71.5t76.5 27.5z M167 206q-20 0 -32.5 -13t-12.5 -33t12.5 -33t32.5 -13t32.5 13t12.5 33t-12.5 33t-32.5 13zM167 259q46 0 76.5 -27.5t30.5 -71.5q0 -36 -20 -61h3h30q48 0 74.5 38t28.5 102l90 -11q-2 -81 -51 -133t-139 -52h-75q-74 0 -114.5 33t-40.5 84q0 44 30.5 71.5t76.5 27.5z" />
<glyph unicode="&#xeb1;" d="M-420 847q-16 0 -26 -10t-10 -27t10 -27t26 -10t26 10t10 27t-10 27t-26 10zM-420 894q39 0 64.5 -23t25.5 -61q0 -33 -21 -56h13h60q108 0 108 125l80 -9q0 -78 -48.5 -123t-126.5 -45h-100q-67 0 -106 28.5t-39 79.5q0 38 25.5 61t64.5 23z" />
<glyph unicode="&#xeb2;" horiz-adv-x="510" d="M142 496q-20 0 -32.5 -13t-12.5 -33t12.5 -33t32.5 -13t32.5 13t12.5 33t-12.5 33t-32.5 13zM332 0v446q0 54 -27.5 81t-72.5 27q-28 0 -55 -10q33 -9 52.5 -34t19.5 -60q0 -44 -30.5 -71.5t-76.5 -27.5t-76.5 27.5t-30.5 71.5q0 71 55.5 120t144.5 49q93 0 146.5 -50.5 t53.5 -125.5v-443h-103z" />
<glyph unicode="&#xeb3;" horiz-adv-x="510" d="M142 496q-20 0 -32.5 -13t-12.5 -33t12.5 -33t32.5 -13t32.5 13t12.5 33t-12.5 33t-32.5 13zM332 0v446q0 54 -27.5 81t-72.5 27q-28 0 -55 -10q33 -9 52.5 -34t19.5 -60q0 -44 -30.5 -71.5t-76.5 -27.5t-76.5 27.5t-30.5 71.5q0 71 55.5 120t144.5 49q93 0 146.5 -50.5 t53.5 -125.5v-443h-103zM-315 879q46 0 76.5 -27.5t30.5 -71.5t-30.5 -71.5t-76.5 -27.5t-76.5 27.5t-30.5 71.5t30.5 71.5t76.5 27.5zM-315 826q-20 0 -32.5 -13t-12.5 -33t12.5 -33t32.5 -13t32.5 13t12.5 33t-12.5 33t-32.5 13z" />
<glyph unicode="&#xeb4;" d="M-105 760q0 -53 -32 -85l-59 22q18 27 18 53q0 67 -137 67t-137 -67q0 -26 18 -53l-59 -22q-32 32 -32 85q0 66 58.5 98t151.5 32t151.5 -32t58.5 -98z" />
<glyph unicode="&#xeb5;" d="M-530 760q0 67 54 98.5t144 31.5q83 0 137.5 -32t54.5 -98q0 -17 -5 -32q18 6 42 6h113v-59h-193l-41 22q17 25 17 53q0 67 -125 67t-125 -67q0 -26 18 -53l-59 -22q-32 32 -32 85z" />
<glyph unicode="&#xeb6;" d="M-105 760q0 -53 -32 -85l-59 22q18 27 18 53q0 32 -31.5 54.5t-105.5 22.5t-105.5 -22.5t-31.5 -54.5q0 -26 18 -53l-59 -22q-32 32 -32 85q0 66 58.5 98t151.5 32t151.5 -32t58.5 -98zM-377 730q0 24 17.5 38.5t44.5 14.5t44.5 -14.5t17.5 -38.5t-17.5 -38.5 t-44.5 -14.5t-44.5 14.5t-17.5 38.5z" />
<glyph unicode="&#xeb7;" d="M-530 760q0 67 56.5 98.5t146.5 31.5q84 0 140.5 -32t56.5 -98q0 -17 -5 -32q18 6 42 6h103v-59h-183l-41 22q17 25 17 53q0 32 -29.5 54.5t-100.5 22.5t-100.5 -22.5t-29.5 -54.5q0 -26 18 -53l-59 -22q-32 32 -32 85zM-389 730q0 24 17.5 38.5t44.5 14.5t44.5 -14.5 t17.5 -38.5t-17.5 -38.5t-44.5 -14.5t-44.5 14.5t-17.5 38.5z" />
<glyph unicode="&#xeb8;" d="M-300 -113q-16 0 -26 -10t-10 -27t10 -27t26 -10t26 10t10 27t-10 27t-26 10zM-290 -305v50q0 12 5 22q-5 -1 -15 -1q-39 0 -64.5 23t-25.5 61t25.5 61t64.5 23t64.5 -23t25.5 -61q0 -21 -3.5 -47t-3.5 -42v-66h-73z" />
<glyph unicode="&#xeb9;" d="M-400 -113q-16 0 -26 -10t-10 -27t10 -27t26 -10t26 10t10 27t-10 27t-26 10zM-310 -150q0 -20 -5 -40t-5 -29v-16q0 -26 47 -26t47 26v162h73v-168q0 -33 -33 -51t-87 -18q-117 0 -117 62v14h-10q-39 0 -64.5 23t-25.5 61t25.5 61t64.5 23t64.5 -23t25.5 -61z" />
<glyph unicode="&#xebb;" d="M-435 733q16 0 26 10t10 27t-10 27t-26 10t-26 -10t-10 -27t10 -27t26 -10zM-435 686q-39 0 -64.5 23t-25.5 61q0 51 39 79.5t106 28.5h100q78 0 126.5 -45t48.5 -123l-80 -9q0 125 -108 125h-60h-13q21 -23 21 -56q0 -38 -25.5 -61t-64.5 -23z" />
<glyph unicode="&#xebc;" d="M-440 -113q-16 0 -26 -10t-10 -27t10 -27t26 -10t26 10t10 27t-10 27t-26 10zM-352 -169q-6 -30 -30 -47.5t-58 -17.5q-39 0 -64.5 23t-25.5 61t25.5 61t64.5 23q65 0 123 -65q38 -42 75 -42q49 0 66 105l66 -19q-35 -141 -132 -141q-57 0 -107 56z" />
<glyph unicode="&#xebd;" horiz-adv-x="575" d="M40 470q0 68 47 108.5t125 40.5q131 0 222 -119q4 26 7 35l26 78l83 -16v-4l-74 -183h-54q-98 133 -204 133q-36 0 -55.5 -19t-19.5 -51q0 -7 1 -13t4.5 -11t6.5 -9t9 -9t9.5 -7.5t12.5 -7t12.5 -6.5t14 -6.5t13.5 -6.5q12 -6 61.5 -29.5t71.5 -34.5q3 -1 18.5 -9t21 -11 t20 -11.5t21 -15t18.5 -17t17.5 -21t12.5 -24t9.5 -29t2.5 -33.5v-208q0 -76 -57.5 -129.5t-157.5 -53.5q-98 0 -156.5 50.5t-58.5 118.5q0 44 30.5 71.5t76.5 27.5t76.5 -27.5t30.5 -71.5q0 -35 -19.5 -60t-52.5 -34q30 -10 70 -10q53 0 84 30t31 85v211q0 20 -7.5 36 t-19.5 26.5t-25 18t-27 14.5q-5 2 -7 3q-19 10 -71 33t-68 31q-2 1 -20 9.5t-28.5 14.5t-28.5 19t-28.5 26t-18.5 33.5t-8 43.5zM177 -14q-20 0 -32.5 -13t-12.5 -33t12.5 -33t32.5 -13t32.5 13t12.5 33t-12.5 33t-32.5 13z" />
<glyph unicode="&#xec0;" horiz-adv-x="350" d="M197 136q-20 0 -32.5 -13t-12.5 -33t12.5 -33t32.5 -13t32.5 13t12.5 33t-12.5 33t-32.5 13zM90 90q0 23 6 60.5t6 59.5v253q0 40 16.5 70.5t42.5 47t51 24.5t48 9l22 -69q-73 -8 -73 -82v-223q0 -29 -11 -51q46 0 76 -27.5t30 -71.5t-30.5 -71.5t-76.5 -27.5t-76.5 27.5 t-30.5 71.5z" />
<glyph unicode="&#xec1;" horiz-adv-x="650" d="M497 136q-20 0 -32.5 -13t-12.5 -33t12.5 -33t32.5 -13t32.5 13t12.5 33t-12.5 33t-32.5 13zM390 90q0 23 6 60.5t6 59.5v253q0 40 16.5 70.5t42.5 47t51 24.5t48 9l22 -69q-73 -8 -73 -82v-223q0 -29 -11 -51q46 0 76 -27.5t30 -71.5t-30.5 -71.5t-76.5 -27.5 t-76.5 27.5t-30.5 71.5zM197 136q-20 0 -32.5 -13t-12.5 -33t12.5 -33t32.5 -13t32.5 13t12.5 33t-12.5 33t-32.5 13zM90 90q0 23 6 60.5t6 59.5v253q0 40 16.5 70.5t42.5 47t51 24.5t48 9l22 -69q-73 -8 -73 -82v-223q0 -29 -11 -51q46 0 76 -27.5t30 -71.5t-30.5 -71.5 t-76.5 -27.5t-76.5 27.5t-30.5 71.5z" />
<glyph unicode="&#xec2;" horiz-adv-x="390" d="M11 791q0 46 33.5 84t99.5 38q84 0 146 -93q61 -88 111 -123l-54 -51q-64 45 -130 144q-34 50 -69 50q-22 0 -34.5 -13t-12.5 -36q0 -33 23.5 -76t51.5 -77.5t51.5 -76.5t23.5 -73v-248q0 -29 -11 -51q46 0 76.5 -27.5t30.5 -71.5t-30.5 -71.5t-76.5 -27.5t-76.5 27.5 t-30.5 71.5q0 23 6 60.5t6 59.5v278q0 29 -21 67.5t-46 71t-46 78t-21 86.5zM240 136q-20 0 -32.5 -13t-12.5 -33t12.5 -33t32.5 -13t32.5 13t12.5 33t-12.5 33t-32.5 13z" />
<glyph unicode="&#xec3;" horiz-adv-x="390" d="M23 758q0 67 48 111t132 44t132 -43.5t48 -111.5q0 -41 -20.5 -76t-45.5 -56t-45.5 -51t-20.5 -62v-273q0 -29 -11 -51q46 0 76.5 -27.5t30.5 -71.5t-30.5 -71.5t-76.5 -27.5t-76.5 27.5t-30.5 71.5q0 23 6 60.5t6 59.5v303q0 34 15 62.5t37 48.5t44 39t37 43t15 52 q0 89 -90 89q-42 0 -66 -22t-24 -67q0 -26 15 -48l-82 -26q-23 37 -23 74zM240 136q-20 0 -32.5 -13t-12.5 -33t12.5 -33t32.5 -13t32.5 13t12.5 33t-12.5 33t-32.5 13z" />
<glyph unicode="&#xec4;" horiz-adv-x="390" d="M23 870l33 59q49 -10 76.5 -38.5t27.5 -68.5v-70q0 -33 12.5 -48.5t41.5 -15.5q64 0 162 75l37 -58q-4 -3 -30 -21.5t-44 -33.5t-40.5 -37t-35 -46t-12.5 -47v-280q0 -29 -11 -51q46 0 76.5 -27.5t30.5 -71.5t-30.5 -71.5t-76.5 -27.5t-76.5 27.5t-30.5 71.5q0 23 6 60.5 t6 59.5v310q0 55 57 103q-57 2 -89.5 30.5t-32.5 78.5v77q0 49 -57 61zM240 136q-20 0 -32.5 -13t-12.5 -33t12.5 -33t32.5 -13t32.5 13t12.5 33t-12.5 33t-32.5 13z" />
<glyph unicode="&#xec6;" horiz-adv-x="665" d="M100 -41l103 8q7 -55 45 -86t97 -31q65 0 103.5 31t38.5 92v503q0 34 -17.5 49t-43.5 15q-24 0 -41.5 -15t-21.5 -40v-80h-86v80q-4 25 -21.5 40t-41.5 15q-26 0 -43.5 -15t-17.5 -49v-75q0 -15 -4 -33q27 16 61 16q46 0 76.5 -27.5t30.5 -71.5t-30.5 -71.5t-76.5 -27.5 q-73 0 -116.5 44t-43.5 110v136q0 61 38.5 102t109.5 41q76 0 122 -61q46 61 122 61q71 0 109.5 -41t38.5 -102v-503q0 -89 -67.5 -145.5t-177.5 -56.5q-107 0 -170.5 55t-74.5 133zM210 331q-20 0 -32.5 -13t-12.5 -33t12.5 -33t32.5 -13t32.5 13t12.5 33t-12.5 33 t-32.5 13z" />
<glyph unicode="&#xec8;" d="M-355 955v175h80v-189z" />
<glyph unicode="&#xec9;" d="M-424 1109q-24 0 -24 -26t24 -26t24 26t-24 26zM-390 966q3 14 3 39q0 15 -3 29q-16 -8 -34 -8q-27 0 -44 15.5t-17 41.5t17 41.5t44 15.5q39 0 61.5 -25t27.5 -62q4 -30 4 -45v-8q10 2 16 2q116 0 116 140l84 -11q0 -81 -52 -131t-138 -50h-74z" />
<glyph unicode="&#xeca;" d="M-409 1023q-24 0 -24 -26t24 -26t24 26t-24 26zM-409 1054q27 0 44 -15.5t17 -41.5t-17 -41.5t-44 -15.5q-47 0 -69 28t-22 69q0 54 23.5 78.5t56.5 24.5q20 0 36.5 -9t22.5 -17l6 -9q2 4 6 10t19.5 15.5t35.5 9.5q33 0 58 -24.5t25 -78.5q0 -26 -12 -46q53 39 60 144 l63 -10q-11 -74 -53 -124t-117 -56l-21 27q28 15 28 65q0 61 -38 61q-19 0 -27.5 -12.5t-8.5 -25.5h-18h-19q0 13 -8.5 25.5t-27.5 12.5q-35 0 -37 -55q16 11 38 11z" />
<glyph unicode="&#xecb;" d="M-440 1015v45h89v70h73v-70h88v-45h-88v-74l-73 14v60h-89z" />
<glyph unicode="&#xecc;" d="M-385 807q-16 0 -26 -10t-10 -27t10 -27t26 -10t26 10t10 27t-10 27t-26 10zM-295 761q-3 -34 -28 -54.5t-62 -20.5q-39 0 -64.5 23t-25.5 61t25.5 61t64.5 23q45 0 92 -34q31 -23 61 -23q23 0 33.5 21.5t17.5 57.5l66 -15q-30 -119 -113 -119q-39 0 -67 19z" />
<glyph unicode="&#xecd;" d="M-315 879q46 0 76.5 -27.5t30.5 -71.5t-30.5 -71.5t-76.5 -27.5t-76.5 27.5t-30.5 71.5t30.5 71.5t76.5 27.5zM-315 826q-20 0 -32.5 -13t-12.5 -33t12.5 -33t32.5 -13t32.5 13t12.5 33t-12.5 33t-32.5 13z" />
<glyph unicode="&#xed0;" horiz-adv-x="720" d="M65 286v28q0 57 15.5 108.5t48 97t92 72.5t139.5 27t139.5 -27t92 -72.5t48 -97t15.5 -108.5v-28q0 -57 -15.5 -108.5t-48 -97t-92 -72.5t-139.5 -27t-139.5 27t-92 72.5t-48 97t-15.5 108.5zM360 60q93 0 140.5 60.5t47.5 165.5v28q0 105 -47.5 165.5t-140.5 60.5 t-140.5 -60.5t-47.5 -165.5v-28q0 -105 47.5 -165.5t140.5 -60.5z" />
<glyph unicode="&#xed1;" horiz-adv-x="720" d="M65 334q0 52 16.5 100.5t50.5 91t93 68t135 25.5q80 0 139.5 -27t92 -72.5t48 -97t15.5 -107.5v-22q0 -121 -97 -221t-249 -111l-11 79q103 7 178 82.5t75 170.5v22q0 103 -48.5 164.5t-142.5 61.5q-95 0 -148.5 -58t-53.5 -149q0 -33 6 -60q10 30 37.5 47.5t63.5 17.5 q46 0 76.5 -27.5t30.5 -71.5t-30.5 -71.5t-76.5 -27.5q-101 0 -150.5 58t-49.5 135zM265 286q-20 0 -32.5 -13t-12.5 -33t12.5 -33t32.5 -13t32.5 13t12.5 33t-12.5 33t-32.5 13z" />
<glyph unicode="&#xed2;" horiz-adv-x="720" d="M498 351q-20 0 -32.5 -13t-12.5 -33t12.5 -33t32.5 -13t32.5 13t12.5 33t-12.5 33t-32.5 13zM65 285v30q0 118 76.5 202.5t214.5 91.5q51 3 114 9q64 8 83 19q37 25 45 116l107 -11q-4 -54 -21 -91.5t-47 -59t-64.5 -32.5t-84.5 -18q-79 -9 -125 -11q-86 -5 -138.5 -63 t-52.5 -152v-30q0 -103 51.5 -164t141.5 -61q85 0 134.5 44t55.5 116q-25 -14 -57 -14q-46 0 -76.5 27.5t-30.5 71.5t30.5 71.5t76.5 27.5q69 0 103 -48t34 -123q0 -104 -68.5 -178t-201.5 -74q-78 0 -138 27t-94 72t-51 97t-17 108z" />
<glyph unicode="&#xed3;" horiz-adv-x="670" d="M110 643q0 59 49 92.5t133 33.5q132 0 250 -127q7 35 9 43l26 78l83 -16v-4l-74 -183h-54q-24 26 -40 41.5t-49 42t-70.5 40t-77.5 13.5q-82 0 -82 -54q0 -32 49 -55q9 -4 28 -11l9 -4q19 -8 76.5 -31t80.5 -33q33 -14 48 -22t42.5 -28.5t40.5 -49.5t13 -67v-158 q0 -84 -43.5 -141t-126.5 -57q-86 0 -179 93q-4 -40 -33.5 -64t-72.5 -24q-46 0 -76.5 27.5t-30.5 71.5q0 42 28 69.5t71 29.5q-14 25 -14 51v180h107v-210q0 -25 8 -51q10 -7 37.5 -28.5t43 -33t41 -22t48.5 -10.5q89 0 89 119v158q0 9 -2 17.5t-4 15t-7.5 13.5t-8.5 11 t-11 9.5t-11 8t-13 7.5l-12 6t-12.5 5.5t-11.5 4.5q-87 36 -156 64q-81 33 -111 69q-27 32 -27 70zM145 136q-20 0 -32.5 -13t-12.5 -33t12.5 -33t32.5 -13t32.5 13t12.5 33t-12.5 33t-32.5 13z" />
<glyph unicode="&#xed4;" horiz-adv-x="720" d="M65 285v30q0 118 76.5 202.5t214.5 91.5q51 3 114 9q64 8 83 19q37 25 45 116l107 -11q-8 -103 -61.5 -145.5t-155.5 -55.5q-50 -7 -125 -11q-86 -5 -138.5 -63t-52.5 -152v-30q0 -100 45.5 -160t133.5 -60q29 0 61 6q-50 68 -50 162q0 74 37.5 122.5t108.5 48.5 q46 0 76.5 -27.5t30.5 -71.5t-30.5 -71.5t-76.5 -27.5q-39 0 -67 20q1 -85 66.5 -133.5t154.5 -55.5l-21 -76q-101 8 -169 53q-49 -28 -121 -28q-62 0 -111.5 17.5t-81.5 46.5t-53.5 68.5t-30.5 80.5t-9 86zM508 351q-20 0 -32.5 -13t-12.5 -33t12.5 -33t32.5 -13t32.5 13 t12.5 33t-12.5 33t-32.5 13z" />
<glyph unicode="&#xed5;" horiz-adv-x="720" d="M508 351q-20 0 -32.5 -13t-12.5 -33t12.5 -33t32.5 -13t32.5 13t12.5 33t-12.5 33t-32.5 13zM382 704q-20 0 -32.5 -13t-12.5 -33t12.5 -33t32.5 -13t32.5 13t12.5 33t-12.5 33t-32.5 13zM382 757q46 0 76.5 -27.5t30.5 -71.5q0 -29 -14 -52h9q58 4 83.5 34t30.5 113 l107 -11q-6 -100 -60 -152t-143 -52q-14 0 -114 4q-106 -11 -161 -70t-55 -157v-30q0 -100 45.5 -160t133.5 -60q29 0 61 6q-50 68 -50 162q0 74 37.5 122.5t108.5 48.5q46 0 76.5 -27.5t30.5 -71.5t-30.5 -71.5t-76.5 -27.5q-39 0 -67 20q1 -85 66.5 -133.5t154.5 -55.5 l-21 -76q-101 8 -169 53q-49 -28 -121 -28q-62 0 -111.5 17.5t-81.5 46.5t-53.5 68.5t-30.5 80.5t-9 86v30q0 103 59.5 179t173.5 100q-23 28 -23 64q0 44 30.5 71.5t76.5 27.5z" />
<glyph unicode="&#xed6;" horiz-adv-x="680" d="M115 643q0 59 49 92.5t133 33.5q132 0 250 -127q7 35 9 43l26 78l83 -16v-4l-74 -183h-54q-24 26 -40 41.5t-49 42t-70.5 40t-77.5 13.5q-82 0 -82 -54q0 -32 49 -55q9 -4 28 -11l9 -4q19 -8 76.5 -31t80.5 -33q33 -14 48 -22t42.5 -28.5t40.5 -49.5t13 -67v-218 q0 -61 -38.5 -102t-109.5 -41q-76 0 -122 61q-46 -61 -122 -61q-71 0 -109.5 41t-38.5 102v136q0 66 43.5 110t116.5 44q46 0 76.5 -27.5t30.5 -71.5t-30.5 -71.5t-76.5 -27.5q-34 0 -61 16q4 -18 4 -33v-75q0 -34 17.5 -49t43.5 -15q24 0 41.5 15t21.5 40v80h86v-80 q4 -25 21.5 -40t41.5 -15q26 0 43.5 15t17.5 49v218q0 9 -2 17.5t-4 15t-7.5 13.5t-8.5 11t-11 9.5t-11 8t-13 7.5l-12 6t-12.5 5.5t-11.5 4.5q-87 36 -156 64q-81 33 -111 69q-27 32 -27 70zM225 269q20 0 32.5 13t12.5 33t-12.5 33t-32.5 13t-32.5 -13t-12.5 -33t12.5 -33 t32.5 -13z" />
<glyph unicode="&#xed7;" horiz-adv-x="690" d="M155 136q-20 0 -32.5 -13t-12.5 -33t12.5 -33t32.5 -13t32.5 13t12.5 33t-12.5 33t-32.5 13zM155 464q20 0 32.5 13t12.5 33t-12.5 33t-32.5 13t-32.5 -13t-12.5 -33t12.5 -33t32.5 -13zM147 189q-14 25 -14 51v60v60q0 26 14 51q-43 2 -71 29.5t-28 69.5q0 44 30.5 71.5 t76.5 27.5t76 -27t31 -71q22 22 37.5 36t40 31.5t52.5 26.5t58 9q83 0 126.5 -57t43.5 -141v-626h-107v626q0 119 -87 119q-31 0 -61.5 -16t-68.5 -47t-50 -39q-6 -26 -6 -43v-90v-90q0 -22 11 -59.5t11 -60.5q0 -44 -30.5 -71.5t-76.5 -27.5t-76.5 27.5t-30.5 71.5 q0 42 28 69.5t71 29.5z" />
<glyph unicode="&#xed8;" horiz-adv-x="680" d="M115 -43q0 25 12.5 47t25 35t38.5 27.5t33 17.5t29 12q69 28 156 64q1 0 11.5 4.5t12.5 5.5l12 6t13 7.5t11 8t11 9.5t8.5 11t7.5 13.5t4 15t2 17.5v218q0 34 -17.5 49t-43.5 15q-24 0 -41.5 -15t-21.5 -40v-80h-86v80q-4 25 -21.5 40t-41.5 15q-26 0 -43.5 -15 t-17.5 -49v-75q0 -15 -4 -33q27 16 61 16q46 0 76.5 -27.5t30.5 -71.5t-30.5 -71.5t-76.5 -27.5q-73 0 -116.5 44t-43.5 110v136q0 61 38.5 102t109.5 41q76 0 122 -61q46 61 122 61q71 0 109.5 -41t38.5 -102v-218q0 -38 -13 -67t-40.5 -49.5t-42.5 -28.5t-48 -22 q-23 -10 -80.5 -33t-76.5 -31q-59 -24 -72.5 -38t-13.5 -32q0 -54 82 -54q40 0 77.5 13.5t70.5 40t49 42t40 41.5h54l74 -183v-4l-83 -16l-26 78q-2 8 -9 43q-118 -127 -250 -127q-84 0 -133 33.5t-49 92.5zM225 331q-20 0 -32.5 -13t-12.5 -33t12.5 -33t32.5 -13t32.5 13 t12.5 33t-12.5 33t-32.5 13z" />
<glyph unicode="&#xed9;" horiz-adv-x="750" d="M182 136q-20 0 -32.5 -13t-12.5 -33t12.5 -33t32.5 -13t32.5 13t12.5 33t-12.5 33t-32.5 13zM182 189q46 0 76.5 -27.5t30.5 -71.5t-30.5 -71.5t-76.5 -27.5t-76.5 27.5t-30.5 71.5q0 23 6 60.5t6 59.5v251q0 65 47.5 109t130.5 44q80 0 126 -44t46 -109v-325 q0 -78 70 -78q65 0 65 78v464h103v-461q0 -65 -44.5 -109t-123.5 -44q-76 0 -119 44t-43 109v325q0 78 -80 78q-75 0 -75 -78v-224q0 -29 -11 -51h3z" />
<glyph unicode="&#xede;" horiz-adv-x="700" d="M140 136q-20 0 -32.5 -13t-12.5 -33t12.5 -33t32.5 -13t32.5 13t12.5 33t-12.5 33t-32.5 13zM140 464q20 0 32.5 13t12.5 33t-12.5 33t-32.5 13t-32.5 -13t-12.5 -33t12.5 -33t32.5 -13zM366 350q-16 0 -25.5 -10t-9.5 -25t9.5 -25t25.5 -10t25.5 10t9.5 25t-9.5 25 t-25.5 10zM366 392q37 0 60.5 -21t23.5 -56q0 -29 -18 -50q5 1 14 1q29 0 52 4v146q0 119 -87 119q-31 0 -61.5 -16t-68.5 -47t-50 -39q-6 -26 -6 -43v-90v-90q0 -22 11 -59.5t11 -60.5q0 -44 -30.5 -71.5t-76.5 -27.5t-76.5 27.5t-30.5 71.5q0 42 28 69.5t71 29.5 q-14 25 -14 51v60v60q0 26 14 51q-43 2 -71 29.5t-28 69.5q0 44 30.5 71.5t76.5 27.5t76 -27t31 -71q22 22 37.5 36t40 31.5t52.5 26.5t58 9q83 0 126.5 -57t43.5 -141v-118q37 14 70 31l18 -56q-40 -19 -88 -32v-241h-107v221q-35 -4 -82 -4q-63 0 -98.5 25.5t-35.5 72.5 q0 35 23.5 56t60.5 21z" />
<glyph unicode="&#xedf;" horiz-adv-x="690" d="M225 464q20 0 32.5 13t12.5 33t-12.5 33t-32.5 13t-32.5 -13t-12.5 -33t12.5 -33t32.5 -13zM356 350q-16 0 -25.5 -10t-9.5 -25t9.5 -25t25.5 -10t25.5 10t9.5 25t-9.5 25t-25.5 10zM356 392q37 0 60.5 -21t23.5 -56q0 -29 -18 -50q5 1 14 1q30 0 54 4v330h105v-302 q37 14 70 31l18 -56q-40 -19 -88 -32v-52q0 -92 -71.5 -150t-193.5 -58q-120 0 -192.5 54.5t-72.5 132.5q0 93 110 125q-49 21 -79.5 63t-30.5 99q0 66 43.5 110t116.5 44q46 0 76.5 -27.5t30.5 -71.5t-30.5 -71.5t-76.5 -27.5q-51 0 -80 31q9 -97 128 -112q5 28 28 45 t55 17zM287 263q-119 -13 -119 -91q0 -53 43.5 -82.5t118.5 -29.5q76 0 118 32.5t42 96.5v33q-45 -5 -84 -5q-87 0 -119 46z" />
<glyph unicode="&#x1e0c;" horiz-adv-x="770" d="M320 -106q35 0 57.5 -20t22.5 -54t-22.5 -54t-57.5 -20t-57.5 20t-22.5 54t22.5 54t57.5 20zM210 80q54 -2 83 -2q297 0 297 298v28q0 298 -297 298q-29 0 -83 -2v-620zM90 780q110 9 203 9q113 0 196.5 -33t130 -89.5t68.5 -122t22 -140.5v-28q0 -75 -22 -140.5 t-68.5 -122t-130 -89.5t-196.5 -33q-41 0 -92 2t-81 5l-30 2v780z" />
<glyph unicode="&#x1e0d;" horiz-adv-x="680" d="M360 -106q35 0 57.5 -20t22.5 -54t-22.5 -54t-57.5 -20t-57.5 20t-22.5 54t22.5 54t57.5 20zM55 289v22q0 55 13.5 106t41.5 96.5t79 73t118 27.5q106 0 173 -99v295h110v-667q0 -43 13.5 -61t51.5 -22l-28 -74q-123 15 -130 124q-71 -124 -190 -124q-67 0 -118 27.5 t-79 73t-41.5 96.5t-13.5 106zM480 374q-17 68 -57 112.5t-103 44.5q-73 0 -112.5 -57t-39.5 -163v-22q0 -106 39.5 -163t112.5 -57q63 0 103 44.5t57 112.5v148z" />
<glyph unicode="&#x1e0e;" horiz-adv-x="770" d="M125 -216v72h390v-72h-390zM210 80q54 -2 83 -2q297 0 297 298v28q0 298 -297 298q-29 0 -83 -2v-620zM90 780q110 9 203 9q113 0 196.5 -33t130 -89.5t68.5 -122t22 -140.5v-28q0 -75 -22 -140.5t-68.5 -122t-130 -89.5t-196.5 -33q-41 0 -92 2t-81 5l-30 2v780z" />
<glyph unicode="&#x1e0f;" horiz-adv-x="680" d="M165 -216v72h390v-72h-390zM55 289v22q0 55 13.5 106t41.5 96.5t79 73t118 27.5q106 0 173 -99v295h110v-667q0 -43 13.5 -61t51.5 -22l-28 -74q-123 15 -130 124q-71 -124 -190 -124q-67 0 -118 27.5t-79 73t-41.5 96.5t-13.5 106zM480 374q-17 68 -57 112.5t-103 44.5 q-73 0 -112.5 -57t-39.5 -163v-22q0 -106 39.5 -163t112.5 -57q63 0 103 44.5t57 112.5v148z" />
<glyph unicode="&#x1e20;" horiz-adv-x="770" d="M215 894v72h390v-72h-390zM419 302v86h291v-251q-31 -61 -106 -108.5t-192 -47.5q-79 0 -141 23.5t-101 61.5t-64.5 90.5t-35.5 106t-10 111.5v32q0 58 10 111.5t35.5 106t64.5 90.5t101 61.5t141 23.5q71 0 129 -21t93 -54t55 -67.5t26 -67.5l-122 -12q-10 50 -57 91 t-124 41q-113 0 -171 -80t-58 -223v-32q0 -143 58 -223t171 -80q131 0 188 80v151h-181z" />
<glyph unicode="&#x1e21;" horiz-adv-x="670" d="M165 744v72h390v-72h-390zM55 315q0 42 8 82.5t27 80t47 69.5t72 48.5t98 18.5q110 0 178 -108l9 94h96v-626q0 -89 -66.5 -146t-175.5 -57q-98 0 -160.5 37t-77.5 78l105 29q8 -23 42.5 -44.5t90.5 -21.5q63 0 99.5 31.5t36.5 93.5v148q-68 -106 -177 -106 q-54 0 -98 18.5t-72 48.5t-47 69.5t-27 80t-8 82.5zM480 372q-17 68 -57 113.5t-103 45.5q-73 0 -112.5 -57t-39.5 -159t39.5 -159t112.5 -57q63 0 103 45.5t57 113.5v114z" />
<glyph unicode="&#x1e24;" horiz-adv-x="790" d="M395 -106q35 0 57.5 -20t22.5 -54t-22.5 -54t-57.5 -20t-57.5 20t-22.5 54t22.5 54t57.5 20zM90 0v780h120v-344h370v344h120v-780h-120v344h-370v-344h-120z" />
<glyph unicode="&#x1e25;" horiz-adv-x="665" d="M360 -106q35 0 57.5 -20t22.5 -54t-22.5 -54t-57.5 -20t-57.5 20t-22.5 54t22.5 54t57.5 20zM85 0v810h110v-362q81 166 227 166q84 0 128.5 -57t44.5 -141v-416h-113v412q0 59 -25 85.5t-65 26.5q-69 0 -124.5 -69.5t-69.5 -156.5v-298h-113z" />
<glyph unicode="&#x1e2a;" horiz-adv-x="790" d="M200 -98l70 23q27 -95 125 -95t125 95l70 -23q-17 -60 -64.5 -101t-130.5 -41t-130.5 41t-64.5 101zM90 0v780h120v-344h370v344h120v-780h-120v344h-370v-344h-120z" />
<glyph unicode="&#x1e2b;" horiz-adv-x="665" d="M165 -98l70 23q27 -95 125 -95t125 95l70 -23q-17 -60 -64.5 -101t-130.5 -41t-130.5 41t-64.5 101zM85 0v810h110v-362q81 166 227 166q84 0 128.5 -57t44.5 -141v-416h-113v412q0 59 -25 85.5t-65 26.5q-69 0 -124.5 -69.5t-69.5 -156.5v-298h-113z" />
<glyph unicode="&#x1e36;" horiz-adv-x="570" d="M320 -106q35 0 57.5 -20t22.5 -54t-22.5 -54t-57.5 -20t-57.5 20t-22.5 54t22.5 54t57.5 20zM90 0v780h122v-687h333v-93h-455z" />
<glyph unicode="&#x1e37;" horiz-adv-x="315" d="M190 -106q35 0 57.5 -20t22.5 -54t-22.5 -54t-57.5 -20t-57.5 20t-22.5 54t22.5 54t57.5 20zM90 128v682h113v-672q0 -39 24.5 -56t77.5 -22l-22 -74q-193 14 -193 142z" />
<glyph unicode="&#x1e38;" horiz-adv-x="570" d="M-35 894v72h390v-72h-390zM320 -106q35 0 57.5 -20t22.5 -54t-22.5 -54t-57.5 -20t-57.5 20t-22.5 54t22.5 54t57.5 20zM90 0v780h122v-687h333v-93h-455z" />
<glyph unicode="&#x1e39;" horiz-adv-x="315" d="M-55 924v72h390v-72h-390zM190 -106q35 0 57.5 -20t22.5 -54t-22.5 -54t-57.5 -20t-57.5 20t-22.5 54t22.5 54t57.5 20zM90 128v682h113v-672q0 -39 24.5 -56t77.5 -22l-22 -74q-193 14 -193 142z" />
<glyph unicode="&#x1e3a;" horiz-adv-x="570" d="M125 -216v72h390v-72h-390zM90 0v780h122v-687h333v-93h-455z" />
<glyph unicode="&#x1e3b;" horiz-adv-x="315" d="M-5 -216v72h390v-72h-390zM90 128v682h113v-672q0 -39 24.5 -56t77.5 -22l-22 -74q-193 14 -193 142z" />
<glyph unicode="&#x1e42;" horiz-adv-x="880" d="M440 -106q35 0 57.5 -20t22.5 -54t-22.5 -54t-57.5 -20t-57.5 20t-22.5 54t22.5 54t57.5 20zM790 0h-119v554l-202 -359h-58l-202 359v-554h-119v769l100 11l250 -462l250 462l100 -11v-769z" />
<glyph unicode="&#x1e43;" horiz-adv-x="945" d="M480 -106q35 0 57.5 -20t22.5 -54t-22.5 -54t-57.5 -20t-57.5 20t-22.5 54t22.5 54t57.5 20zM75 594l103 9l14 -124q61 131 180 131q64 0 104 -35.5t54 -94.5q60 130 180 130q81 0 123 -55.5t42 -138.5v-416h-113v412q0 109 -82 109q-55 0 -92.5 -58t-50.5 -141v-322 h-114v412q0 109 -81 109q-55 0 -93 -59t-51 -141v-321h-113v420z" />
<glyph unicode="&#x1e44;" horiz-adv-x="790" d="M395 1004q35 0 57.5 -20t22.5 -54t-22.5 -54t-57.5 -20t-57.5 20t-22.5 54t22.5 54t57.5 20zM90 0v769l103 11l390 -587v587h117v-780h-103l-390 587v-587h-117z" />
<glyph unicode="&#x1e45;" horiz-adv-x="655" d="M330 854q35 0 57.5 -20t22.5 -54t-22.5 -54t-57.5 -20t-57.5 20t-22.5 54t22.5 54t57.5 20zM85 0v420l-10 174l103 9l16 -150q77 161 219 161q83 0 127.5 -57t44.5 -141v-416h-113v412q0 59 -25 85.5t-64 26.5q-67 0 -119.5 -69t-65.5 -156v-299h-113z" />
<glyph unicode="&#x1e46;" horiz-adv-x="790" d="M395 -106q35 0 57.5 -20t22.5 -54t-22.5 -54t-57.5 -20t-57.5 20t-22.5 54t22.5 54t57.5 20zM90 0v769l103 11l390 -587v587h117v-780h-103l-390 587v-587h-117z" />
<glyph unicode="&#x1e47;" horiz-adv-x="655" d="M360 -106q35 0 57.5 -20t22.5 -54t-22.5 -54t-57.5 -20t-57.5 20t-22.5 54t22.5 54t57.5 20zM85 0v420l-10 174l103 9l16 -150q77 161 219 161q83 0 127.5 -57t44.5 -141v-416h-113v412q0 59 -25 85.5t-64 26.5q-67 0 -119.5 -69t-65.5 -156v-299h-113z" />
<glyph unicode="&#x1e48;" horiz-adv-x="790" d="M200 -216v72h390v-72h-390zM90 0v769l103 11l390 -587v587h117v-780h-103l-390 587v-587h-117z" />
<glyph unicode="&#x1e49;" horiz-adv-x="655" d="M165 -216v72h390v-72h-390zM85 0v420l-10 174l103 9l16 -150q77 161 219 161q83 0 127.5 -57t44.5 -141v-416h-113v412q0 59 -25 85.5t-64 26.5q-67 0 -119.5 -69t-65.5 -156v-299h-113z" />
<glyph unicode="&#x1e5a;" horiz-adv-x="730" d="M360 -106q35 0 57.5 -20t22.5 -54t-22.5 -54t-57.5 -20t-57.5 20t-22.5 54t22.5 54t57.5 20zM304 320q-66 2 -95 3v-323h-119v329v451q162 9 260 9q143 0 231.5 -62.5t88.5 -172.5q0 -93 -63.5 -152t-172.5 -76l266 -320v-6h-136zM209 410q64 -4 127 -4q215 0 215 148 q0 78 -59 113.5t-156 35.5q-63 0 -127 -4v-289z" />
<glyph unicode="&#x1e5b;" horiz-adv-x="435" d="M170 -106q35 0 57.5 -20t22.5 -54t-22.5 -54t-57.5 -20t-57.5 20t-22.5 54t22.5 54t57.5 20zM70 592l95 11l34 -138q48 149 165 149q38 0 71 -15l-43 -94q-22 12 -46 12q-52 0 -85 -58t-43 -141v-318h-113v435z" />
<glyph unicode="&#x1e5c;" horiz-adv-x="730" d="M165 894v72h390v-72h-390zM360 -106q35 0 57.5 -20t22.5 -54t-22.5 -54t-57.5 -20t-57.5 20t-22.5 54t22.5 54t57.5 20zM304 320q-66 2 -95 3v-323h-119v329v451q162 9 260 9q143 0 231.5 -62.5t88.5 -172.5q0 -93 -63.5 -152t-172.5 -76l266 -320v-6h-136zM209 410 q64 -4 127 -4q215 0 215 148q0 78 -59 113.5t-156 35.5q-63 0 -127 -4v-289z" />
<glyph unicode="&#x1e5d;" horiz-adv-x="435" d="M45 744v72h390v-72h-390zM170 -106q35 0 57.5 -20t22.5 -54t-22.5 -54t-57.5 -20t-57.5 20t-22.5 54t22.5 54t57.5 20zM70 592l95 11l34 -138q48 149 165 149q38 0 71 -15l-43 -94q-22 12 -46 12q-52 0 -85 -58t-43 -141v-318h-113v435z" />
<glyph unicode="&#x1e5e;" horiz-adv-x="730" d="M165 -216v72h390v-72h-390zM304 320q-66 2 -95 3v-323h-119v329v451q162 9 260 9q143 0 231.5 -62.5t88.5 -172.5q0 -93 -63.5 -152t-172.5 -76l266 -320v-6h-136zM209 410q64 -4 127 -4q215 0 215 148q0 78 -59 113.5t-156 35.5q-63 0 -127 -4v-289z" />
<glyph unicode="&#x1e5f;" horiz-adv-x="435" d="M-25 -216v72h390v-72h-390zM70 592l95 11l34 -138q48 149 165 149q38 0 71 -15l-43 -94q-22 12 -46 12q-52 0 -85 -58t-43 -141v-318h-113v435z" />
<glyph unicode="&#x1e60;" horiz-adv-x="710" d="M355 1004q35 0 57.5 -20t22.5 -54t-22.5 -54t-57.5 -20t-57.5 20t-22.5 54t22.5 54t57.5 20zM55 179l119 17q9 -50 56 -89t125 -39q89 0 136 35t47 97q0 89 -97 117q-112 32 -202 64q-67 25 -116.5 73.5t-49.5 124.5q0 96 78.5 158t203.5 62q121 0 193.5 -61.5 t86.5 -132.5l-119 -17q-9 49 -52 86.5t-109 37.5q-75 0 -120 -35t-45 -93q0 -42 26.5 -65t74.5 -41q52 -19 192 -62q72 -22 122 -73.5t50 -136.5q0 -98 -81.5 -161.5t-218.5 -63.5q-69 0 -126 19.5t-92 50t-55.5 63.5t-26.5 65z" />
<glyph unicode="&#x1e61;" horiz-adv-x="570" d="M285 854q35 0 57.5 -20t22.5 -54t-22.5 -54t-57.5 -20t-57.5 20t-22.5 54t22.5 54t57.5 20zM45 139l110 14q6 -37 41 -64.5t93 -27.5q61 0 94.5 26t33.5 69q0 63 -72 85q-111 32 -152 47q-132 49 -132 156q0 76 61.5 125.5t162.5 49.5q99 0 156.5 -48.5t67.5 -105.5 l-110 -15q-6 37 -35 63t-79 26q-53 0 -84.5 -24.5t-31.5 -66.5q0 -53 73 -78q32 -10 145 -44q138 -42 138 -166q0 -78 -65.5 -128.5t-174.5 -50.5q-107 0 -168 49.5t-72 108.5z" />
<glyph unicode="&#x1e62;" horiz-adv-x="710" d="M355 -106q35 0 57.5 -20t22.5 -54t-22.5 -54t-57.5 -20t-57.5 20t-22.5 54t22.5 54t57.5 20zM55 179l119 17q9 -50 56 -89t125 -39q89 0 136 35t47 97q0 89 -97 117q-112 32 -202 64q-67 25 -116.5 73.5t-49.5 124.5q0 96 78.5 158t203.5 62q121 0 193.5 -61.5 t86.5 -132.5l-119 -17q-9 49 -52 86.5t-109 37.5q-75 0 -120 -35t-45 -93q0 -42 26.5 -65t74.5 -41q52 -19 192 -62q72 -22 122 -73.5t50 -136.5q0 -98 -81.5 -161.5t-218.5 -63.5q-69 0 -126 19.5t-92 50t-55.5 63.5t-26.5 65z" />
<glyph unicode="&#x1e63;" horiz-adv-x="570" d="M285 -106q35 0 57.5 -20t22.5 -54t-22.5 -54t-57.5 -20t-57.5 20t-22.5 54t22.5 54t57.5 20zM45 139l110 14q6 -37 41 -64.5t93 -27.5q61 0 94.5 26t33.5 69q0 63 -72 85q-111 32 -152 47q-132 49 -132 156q0 76 61.5 125.5t162.5 49.5q99 0 156.5 -48.5t67.5 -105.5 l-110 -15q-6 37 -35 63t-79 26q-53 0 -84.5 -24.5t-31.5 -66.5q0 -53 73 -78q32 -10 145 -44q138 -42 138 -166q0 -78 -65.5 -128.5t-174.5 -50.5q-107 0 -168 49.5t-72 108.5z" />
<glyph unicode="&#x1e6c;" horiz-adv-x="620" d="M310 -106q35 0 57.5 -20t22.5 -54t-22.5 -54t-57.5 -20t-57.5 20t-22.5 54t22.5 54t57.5 20zM30 691v89h560v-89h-220v-691h-120v691h-220z" />
<glyph unicode="&#x1e6d;" horiz-adv-x="415" d="M280 -106q35 0 57.5 -20t22.5 -54t-22.5 -54t-57.5 -20t-57.5 20t-22.5 54t22.5 54t57.5 20zM30 528v72h94v126l107 9v-135h149v-72h-147v-384q0 -44 13 -60.5t42 -16.5q58 0 95 25l27 -74q-58 -32 -136 -32q-154 0 -154 142v400h-90z" />
<glyph unicode="&#x1e6e;" horiz-adv-x="620" d="M115 -216v72h390v-72h-390zM30 691v89h560v-89h-220v-691h-120v691h-220z" />
<glyph unicode="&#x1e6f;" horiz-adv-x="415" d="M85 -216v72h390v-72h-390zM30 528v72h94v126l107 9v-135h149v-72h-147v-384q0 -44 13 -60.5t42 -16.5q58 0 95 25l27 -74q-58 -32 -136 -32q-154 0 -154 142v400h-90z" />
<glyph unicode="&#x1e80;" horiz-adv-x="1060" d="M375 978l49 77l216 -165l-31 -45zM1035 761l-228 -761h-104l-173 590l-173 -590h-104l-228 761v8l131 11l158 -612l166 592h100l166 -592l158 612l131 -11v-8z" />
<glyph unicode="&#x1e81;" horiz-adv-x="830" d="M260 828l49 77l216 -165l-31 -45zM810 585l-175 -585h-97l-123 428l-123 -428h-97l-175 585v6l121 9l111 -441l118 426h90l118 -426l111 441l121 -9v-6z" />
<glyph unicode="&#x1e82;" horiz-adv-x="1060" d="M685 978l-234 -133l-31 45l216 165zM1035 761l-228 -761h-104l-173 590l-173 -590h-104l-228 761v8l131 11l158 -612l166 592h100l166 -592l158 612l131 -11v-8z" />
<glyph unicode="&#x1e83;" horiz-adv-x="830" d="M570 828l-234 -133l-31 45l216 165zM810 585l-175 -585h-97l-123 428l-123 -428h-97l-175 585v6l121 9l111 -441l118 426h90l118 -426l111 441l121 -9v-6z" />
<glyph unicode="&#x1e84;" horiz-adv-x="1060" d="M335 930q0 31 21 49.5t53 18.5t53 -18.5t21 -49.5t-21 -49.5t-53 -18.5t-53 18.5t-21 49.5zM578 930q0 31 21 49.5t53 18.5t52.5 -18.5t20.5 -49.5t-20.5 -49.5t-52.5 -18.5t-53 18.5t-21 49.5zM1035 761l-228 -761h-104l-173 590l-173 -590h-104l-228 761v8l131 11 l158 -612l166 592h100l166 -592l158 612l131 -11v-8z" />
<glyph unicode="&#x1e85;" horiz-adv-x="830" d="M220 780q0 31 21 49.5t53 18.5t53 -18.5t21 -49.5t-21 -49.5t-53 -18.5t-53 18.5t-21 49.5zM463 780q0 31 21 49.5t53 18.5t52.5 -18.5t20.5 -49.5t-20.5 -49.5t-52.5 -18.5t-53 18.5t-21 49.5zM810 585l-175 -585h-97l-123 428l-123 -428h-97l-175 585v6l121 9l111 -441 l118 426h90l118 -426l111 441l121 -9v-6z" />
<glyph unicode="&#x1e8e;" horiz-adv-x="670" d="M335 1004q35 0 57.5 -20t22.5 -54t-22.5 -54t-57.5 -20t-57.5 20t-22.5 54t22.5 54t57.5 20zM10 761v8l135 11l190 -368l190 368l135 -11v-8l-265 -466v-295h-120v295z" />
<glyph unicode="&#x1e8f;" horiz-adv-x="600" d="M300 854q35 0 57.5 -20t22.5 -54t-22.5 -54t-57.5 -20t-57.5 20t-22.5 54t22.5 54t57.5 20zM15 585v6l123 9l162 -468l162 468l123 -9v-6l-245 -609q-1 -2 -12.5 -27.5t-13.5 -30t-13.5 -27t-16 -28.5t-16.5 -24t-20 -23.5t-21.5 -17t-25.5 -15.5t-28.5 -8t-33.5 -4 q-61 0 -114 42l55 68q35 -31 55 -31q31 0 55.5 35t57.5 112l4 9z" />
<glyph unicode="&#x1e92;" horiz-adv-x="670" d="M335 -106q35 0 57.5 -20t22.5 -54t-22.5 -54t-57.5 -20t-57.5 20t-22.5 54t22.5 54t57.5 20zM35 69l429 618h-403v93h555l9 -69l-428 -618h438v-93h-591z" />
<glyph unicode="&#x1e93;" horiz-adv-x="530" d="M265 -106q35 0 57.5 -20t22.5 -54t-22.5 -54t-57.5 -20t-57.5 20t-22.5 54t22.5 54t57.5 20zM30 57l315 464h-293v79h435l7 -57l-315 -464h321v-79h-463z" />
<glyph unicode="&#x1e97;" horiz-adv-x="415" d="M-15 900q0 31 21 49.5t53 18.5t53 -18.5t21 -49.5t-21 -49.5t-53 -18.5t-53 18.5t-21 49.5zM228 900q0 31 21 49.5t53 18.5t52.5 -18.5t20.5 -49.5t-20.5 -49.5t-52.5 -18.5t-53 18.5t-21 49.5zM30 528v72h94v126l107 9v-135h149v-72h-147v-384q0 -44 13 -60.5t42 -16.5 q58 0 95 25l27 -74q-58 -32 -136 -32q-154 0 -154 142v400h-90z" />
<glyph unicode="&#x1e9e;" horiz-adv-x="800" d="M324 145l117 8q6 -37 30 -61t63 -24q43 0 68.5 23.5t25.5 67.5q0 61 -60 84q-43 17 -116 48q-114 48 -114 159l3 28l178 73v2q0 64 -41.5 111.5t-117.5 47.5q-66 0 -110.5 -39.5t-44.5 -132.5v-540h-120v540q0 120 77 189.5t198 69.5q61 0 110.5 -18t80.5 -45.5t52.5 -63 t30 -68.5t8.5 -63l-3 -29l-186 -77q2 -14 7.5 -24.5t17.5 -18.5t15.5 -9.5t19.5 -8.5q49 -21 113 -47q47 -18 83 -62t36 -106q0 -74 -56 -126t-155 -52q-97 0 -149.5 52.5t-60.5 111.5z" />
<glyph unicode="&#x1ea0;" horiz-adv-x="750" d="M375 -106q35 0 57.5 -20t22.5 -54t-22.5 -54t-57.5 -20t-57.5 20t-22.5 54t22.5 54t57.5 20zM735 0h-136l-59 167h-330l-59 -167h-136v8l310 772h100l310 -772v-8zM510 253l-135 385l-135 -385h270z" />
<glyph unicode="&#x1ea1;" horiz-adv-x="625" d="M330 -106q35 0 57.5 -20t22.5 -54t-22.5 -54t-57.5 -20t-57.5 20t-22.5 54t22.5 54t57.5 20zM55 173q0 62 51 106t146 44q80 0 178 -10v106q0 60 -35.5 89t-94.5 29q-52 0 -86 -29.5t-41 -83.5l-113 9q11 77 72.5 131.5t167.5 54.5q109 0 174.5 -56t65.5 -144v-276 q0 -43 13.5 -61t51.5 -22l-28 -74q-101 12 -124 89q-64 -89 -180 -89q-101 0 -159.5 50.5t-58.5 136.5zM436 245q-88 12 -178 12q-39 0 -66 -22.5t-27 -63.5q0 -58 35 -87t87 -29q67 0 102.5 44.5t46.5 110.5v35z" />
<glyph unicode="&#x1ea2;" horiz-adv-x="750" d="M265 1021q47 27 113 27q47 0 77 -23t30 -65q0 -31 -11.5 -55t-34.5 -39.5t-42.5 -24t-50.5 -18.5l-19 38q45 19 66.5 37.5t21.5 48.5q0 39 -50 39q-45 0 -93 -24zM735 0h-136l-59 167h-330l-59 -167h-136v8l310 772h100l310 -772v-8zM510 253l-135 385l-135 -385h270z " />
<glyph unicode="&#x1ea3;" horiz-adv-x="625" d="M200 871q47 27 113 27q47 0 77 -23t30 -65q0 -31 -11.5 -55t-34.5 -39.5t-42.5 -24t-50.5 -18.5l-19 38q45 19 66.5 37.5t21.5 48.5q0 39 -50 39q-45 0 -93 -24zM55 173q0 62 51 106t146 44q80 0 178 -10v106q0 60 -35.5 89t-94.5 29q-52 0 -86 -29.5t-41 -83.5l-113 9 q11 77 72.5 131.5t167.5 54.5q109 0 174.5 -56t65.5 -144v-276q0 -43 13.5 -61t51.5 -22l-28 -74q-101 12 -124 89q-64 -89 -180 -89q-101 0 -159.5 50.5t-58.5 136.5zM436 245q-88 12 -178 12q-39 0 -66 -22.5t-27 -63.5q0 -58 35 -87t87 -29q67 0 102.5 44.5t46.5 110.5 v35z" />
<glyph unicode="&#x1ea4;" horiz-adv-x="750" d="M505 1158l-234 -133l-31 45l216 165zM180 867l180 148h30l180 -148l-34 -37l-161 97l-161 -97zM735 0h-136l-59 167h-330l-59 -167h-136v8l310 772h100l310 -772v-8zM510 253l-135 385l-135 -385h270z" />
<glyph unicode="&#x1ea5;" horiz-adv-x="625" d="M425 1008l-234 -133l-31 45l216 165zM115 717l180 148h30l180 -148l-34 -37l-161 97l-161 -97zM55 173q0 62 51 106t146 44q80 0 178 -10v106q0 60 -35.5 89t-94.5 29q-52 0 -86 -29.5t-41 -83.5l-113 9q11 77 72.5 131.5t167.5 54.5q109 0 174.5 -56t65.5 -144v-276 q0 -43 13.5 -61t51.5 -22l-28 -74q-101 12 -124 89q-64 -89 -180 -89q-101 0 -159.5 50.5t-58.5 136.5zM436 245q-88 12 -178 12q-39 0 -66 -22.5t-27 -63.5q0 -58 35 -87t87 -29q67 0 102.5 44.5t46.5 110.5v35z" />
<glyph unicode="&#x1ea6;" horiz-adv-x="750" d="M255 1158l49 77l216 -165l-31 -45zM180 867l180 148h30l180 -148l-34 -37l-161 97l-161 -97zM735 0h-136l-59 167h-330l-59 -167h-136v8l310 772h100l310 -772v-8zM510 253l-135 385l-135 -385h270z" />
<glyph unicode="&#x1ea7;" horiz-adv-x="625" d="M175 1008l49 77l216 -165l-31 -45zM115 717l180 148h30l180 -148l-34 -37l-161 97l-161 -97zM55 173q0 62 51 106t146 44q80 0 178 -10v106q0 60 -35.5 89t-94.5 29q-52 0 -86 -29.5t-41 -83.5l-113 9q11 77 72.5 131.5t167.5 54.5q109 0 174.5 -56t65.5 -144v-276 q0 -43 13.5 -61t51.5 -22l-28 -74q-101 12 -124 89q-64 -89 -180 -89q-101 0 -159.5 50.5t-58.5 136.5zM436 245q-88 12 -178 12q-39 0 -66 -22.5t-27 -63.5q0 -58 35 -87t87 -29q67 0 102.5 44.5t46.5 110.5v35z" />
<glyph unicode="&#x1ea8;" horiz-adv-x="750" d="M420 1201q47 27 113 27q47 0 77 -23t30 -65q0 -31 -11.5 -55t-34.5 -39.5t-42.5 -24t-50.5 -18.5l-19 38q45 19 66.5 37.5t21.5 48.5q0 39 -50 39q-45 0 -93 -24zM180 867l180 148h30l180 -148l-34 -37l-161 97l-161 -97zM735 0h-136l-59 167h-330l-59 -167h-136v8 l310 772h100l310 -772v-8zM510 253l-135 385l-135 -385h270z" />
<glyph unicode="&#x1ea9;" horiz-adv-x="625" d="M340 1051q47 27 113 27q47 0 77 -23t30 -65q0 -31 -11.5 -55t-34.5 -39.5t-42.5 -24t-50.5 -18.5l-19 38q45 19 66.5 37.5t21.5 48.5q0 39 -50 39q-45 0 -93 -24zM115 717l180 148h30l180 -148l-34 -37l-161 97l-161 -97zM55 173q0 62 51 106t146 44q80 0 178 -10v106 q0 60 -35.5 89t-94.5 29q-52 0 -86 -29.5t-41 -83.5l-113 9q11 77 72.5 131.5t167.5 54.5q109 0 174.5 -56t65.5 -144v-276q0 -43 13.5 -61t51.5 -22l-28 -74q-101 12 -124 89q-64 -89 -180 -89q-101 0 -159.5 50.5t-58.5 136.5zM436 245q-88 12 -178 12q-39 0 -66 -22.5 t-27 -63.5q0 -58 35 -87t87 -29q67 0 102.5 44.5t46.5 110.5v35z" />
<glyph unicode="&#x1eaa;" horiz-adv-x="750" d="M180 1068q10 26 19 43.5t23 37.5t33.5 30.5t43.5 10.5t47 -10.5t31 -17t27 -23.5l11 -11t11 -10.5t9 -7.5t9.5 -6t9.5 -2q28 0 58 81l58 -21q-9 -25 -18.5 -43.5t-23.5 -38t-33.5 -30t-43.5 -10.5t-47 10.5t-31 17t-27 23.5l-11 11t-11 10.5t-9 7.5t-9.5 6t-9.5 2 q-7 0 -14 -4.5t-12 -10.5t-10.5 -17l-8.5 -17t-7.5 -18t-5.5 -14zM180 867l180 148h30l180 -148l-34 -37l-161 97l-161 -97zM735 0h-136l-59 167h-330l-59 -167h-136v8l310 772h100l310 -772v-8zM510 253l-135 385l-135 -385h270z" />
<glyph unicode="&#x1eab;" horiz-adv-x="625" d="M115 918q10 26 19 43.5t23 37.5t33.5 30.5t43.5 10.5t47 -10.5t31 -17t27 -23.5l11 -11t11 -10.5t9 -7.5t9.5 -6t9.5 -2q28 0 58 81l58 -21q-9 -25 -18.5 -43.5t-23.5 -38t-33.5 -30t-43.5 -10.5t-47 10.5t-31 17t-27 23.5l-11 11t-11 10.5t-9 7.5t-9.5 6t-9.5 2 q-7 0 -14 -4.5t-12 -10.5t-10.5 -17l-8.5 -17t-7.5 -18t-5.5 -14zM115 717l180 148h30l180 -148l-34 -37l-161 97l-161 -97zM55 173q0 62 51 106t146 44q80 0 178 -10v106q0 60 -35.5 89t-94.5 29q-52 0 -86 -29.5t-41 -83.5l-113 9q11 77 72.5 131.5t167.5 54.5 q109 0 174.5 -56t65.5 -144v-276q0 -43 13.5 -61t51.5 -22l-28 -74q-101 12 -124 89q-64 -89 -180 -89q-101 0 -159.5 50.5t-58.5 136.5zM436 245q-88 12 -178 12q-39 0 -66 -22.5t-27 -63.5q0 -58 35 -87t87 -29q67 0 102.5 44.5t46.5 110.5v35z" />
<glyph unicode="&#x1eac;" horiz-adv-x="750" d="M180 867l180 148h30l180 -148l-34 -37l-161 97l-161 -97zM375 -106q35 0 57.5 -20t22.5 -54t-22.5 -54t-57.5 -20t-57.5 20t-22.5 54t22.5 54t57.5 20zM735 0h-136l-59 167h-330l-59 -167h-136v8l310 772h100l310 -772v-8zM510 253l-135 385l-135 -385h270z" />
<glyph unicode="&#x1ead;" horiz-adv-x="625" d="M115 717l180 148h30l180 -148l-34 -37l-161 97l-161 -97zM330 -106q35 0 57.5 -20t22.5 -54t-22.5 -54t-57.5 -20t-57.5 20t-22.5 54t22.5 54t57.5 20zM55 173q0 62 51 106t146 44q80 0 178 -10v106q0 60 -35.5 89t-94.5 29q-52 0 -86 -29.5t-41 -83.5l-113 9 q11 77 72.5 131.5t167.5 54.5q109 0 174.5 -56t65.5 -144v-276q0 -43 13.5 -61t51.5 -22l-28 -74q-101 12 -124 89q-64 -89 -180 -89q-101 0 -159.5 50.5t-58.5 136.5zM436 245q-88 12 -178 12q-39 0 -66 -22.5t-27 -63.5q0 -58 35 -87t87 -29q67 0 102.5 44.5t46.5 110.5 v35z" />
</font>
</defs>
</svg>
